{"glyphs":{"0":{"ha":802,"x_min":87,"x_max":1117,"o":"m 1080 954 q 1117 924 1101 954 l 1117 913 q 1106 902 1117 908 l 1102 902 q 1069 939 1076 902 q 1080 954 1075 954 m 419 878 q 518 841 492 860 q 610 760 564 841 q 621 745 616 760 q 618 742 618 745 l 621 742 q 625 745 621 745 q 659 694 643 713 q 654 690 654 694 q 666 668 662 690 q 662 665 662 668 q 695 543 677 665 q 703 444 703 543 q 695 418 703 432 q 699 336 699 369 q 684 244 688 313 q 621 130 642 197 q 603 108 616 130 l 607 108 q 566 60 590 68 q 489 23 489 40 l 485 23 l 489 16 l 471 5 q 467 9 471 9 l 467 5 q 471 1 471 5 q 441 -6 457 -6 l 430 -6 q 360 -3 395 -6 q 319 -6 340 -6 q 264 35 306 14 q 198 93 264 44 q 146 163 146 138 q 94 329 94 251 q 87 347 88 329 q 94 377 87 351 l 94 421 q 106 480 106 471 q 98 524 98 513 q 135 672 119 658 q 194 764 135 695 q 205 783 194 783 l 201 789 q 290 852 290 847 q 415 874 345 874 q 419 878 415 878 m 294 760 q 290 764 294 764 l 290 760 q 294 757 294 760 q 220 709 232 709 q 176 565 220 668 l 157 498 l 168 447 l 157 395 q 179 300 174 395 q 201 222 195 300 q 231 171 206 222 q 312 100 248 135 q 345 82 321 82 q 452 100 441 93 q 530 152 496 114 q 570 211 564 178 q 592 296 592 244 q 625 414 610 296 q 614 465 625 422 q 621 509 621 503 q 607 606 610 540 q 574 675 593 606 q 518 745 574 736 q 485 779 502 779 q 463 775 482 779 q 430 786 439 786 q 419 783 426 786 q 382 793 390 793 l 378 793 l 356 789 q 338 793 350 793 q 304 760 333 793 l 294 760 z "},"1":{"ha":495,"x_min":50,"x_max":371,"o":"m 275 869 q 359 836 359 861 q 363 832 363 836 q 359 828 359 832 q 371 825 363 828 l 363 666 q 367 629 367 647 q 353 549 353 574 q 363 397 359 513 q 353 346 356 377 q 359 316 353 339 l 353 275 q 359 224 359 248 l 359 169 q 367 139 367 142 q 359 117 367 133 q 363 47 363 77 l 363 40 q 341 -5 363 6 l 304 -5 q 271 28 271 1 l 275 51 q 268 87 268 82 l 271 132 l 268 151 q 271 187 271 170 l 268 210 q 282 290 271 258 l 282 360 l 286 368 q 268 449 271 368 q 275 478 268 456 q 271 537 271 516 l 271 574 q 223 644 258 644 l 205 644 q 142 614 176 620 q 138 618 142 618 q 127 607 138 613 l 98 607 q 50 655 50 621 q 161 736 50 690 q 256 854 161 758 q 275 869 257 859 z "},"2":{"ha":728,"x_min":92,"x_max":648,"o":"m 334 856 l 368 848 q 408 852 393 852 q 552 812 477 827 l 608 745 q 604 742 604 745 l 608 742 q 611 745 608 745 q 648 616 627 745 q 600 480 627 480 q 523 414 597 469 q 464 366 503 366 q 361 329 374 329 q 328 292 353 329 q 272 255 292 292 q 224 211 254 255 q 172 134 172 170 q 217 71 172 71 q 269 82 264 82 l 276 82 q 320 71 285 82 l 323 71 q 375 82 372 82 l 379 82 q 438 75 396 82 q 519 90 495 83 q 555 79 526 90 q 600 130 580 79 l 614 141 l 618 141 l 629 134 l 626 97 l 626 90 l 640 67 q 611 16 640 36 q 608 20 611 20 l 608 16 q 611 12 611 16 q 596 5 606 12 q 559 16 594 5 q 534 12 548 16 q 387 23 443 16 q 353 12 362 12 q 298 20 338 12 q 287 16 294 20 q 254 20 267 20 q 154 8 234 13 q 113 31 119 31 l 117 38 l 110 34 q 92 56 104 34 l 95 64 l 95 123 q 176 281 115 214 q 250 326 177 294 q 309 362 268 362 q 364 391 328 391 q 467 476 419 418 q 545 532 517 476 q 574 583 567 532 q 530 712 553 712 q 482 775 489 775 q 464 789 464 780 l 456 789 q 427 786 441 789 l 408 789 q 387 786 406 789 q 346 804 356 804 q 276 786 332 795 q 220 749 255 764 q 184 679 220 740 q 151 591 174 591 q 143 583 151 583 l 128 583 q 110 627 113 583 q 158 712 110 691 q 213 801 206 801 q 246 827 220 801 q 334 852 331 852 q 338 848 334 848 l 338 852 q 334 856 334 852 z "},"3":{"ha":692,"x_min":50,"x_max":618,"o":"m 341 877 l 378 865 l 470 877 q 574 840 574 877 q 585 806 579 840 q 566 766 575 766 q 562 770 566 770 l 566 762 q 489 692 507 727 q 437 608 437 667 q 430 589 433 608 q 489 549 430 563 q 595 416 595 456 q 618 346 615 346 q 607 317 607 321 l 610 265 q 559 147 570 168 q 526 99 555 147 q 452 29 521 99 l 386 -15 q 312 -56 333 -56 q 165 -118 186 -118 q 109 -122 118 -122 q 68 -74 68 -115 q 127 -30 93 -37 q 146 -22 140 -22 q 176 -26 172 -26 q 216 7 183 -26 q 286 37 245 7 q 371 73 323 37 q 374 70 371 70 l 374 73 q 371 77 371 73 q 408 125 391 92 l 489 202 q 518 291 518 277 l 518 342 q 470 435 518 364 q 386 475 434 475 q 359 486 385 482 q 275 456 278 469 q 220 435 275 443 q 191 442 196 442 l 194 449 l 186 446 q 172 456 172 451 q 176 460 176 456 l 168 460 l 168 468 q 205 530 168 500 l 212 527 l 212 530 q 209 534 209 530 q 282 618 253 572 q 334 656 292 618 q 386 729 361 671 l 386 744 q 338 770 383 755 q 327 781 338 775 l 312 781 q 271 759 287 759 l 235 777 l 186 755 q 132 700 152 741 l 117 692 q 50 766 50 692 q 113 847 60 847 q 191 865 164 865 l 194 865 l 201 862 q 209 869 203 869 l 227 869 q 286 862 232 869 l 304 862 q 341 877 315 862 z "},"4":{"ha":659,"x_min":64,"x_max":669,"o":"m 433 897 l 440 897 q 492 852 477 897 q 488 709 488 762 q 477 672 481 672 l 481 665 l 481 621 q 488 550 481 580 l 477 521 q 481 469 481 490 q 473 406 473 420 l 473 388 q 492 307 473 370 q 514 285 492 285 l 536 285 q 540 289 540 285 q 591 281 545 286 q 628 285 610 285 q 669 237 669 266 q 621 208 669 224 q 532 226 595 218 q 488 193 526 214 q 473 126 473 153 q 492 -32 492 33 q 463 -58 488 -58 q 404 -10 404 -48 q 418 104 418 90 l 418 138 l 425 138 q 352 211 425 211 q 252 226 331 218 q 230 218 246 226 q 178 222 199 222 l 142 222 q 116 208 123 208 q 64 259 64 228 q 101 355 75 304 q 145 418 101 361 q 193 513 145 427 q 234 595 193 532 q 267 668 258 629 q 315 731 285 709 q 345 790 330 775 l 340 790 q 370 856 350 831 q 433 897 410 897 m 219 403 l 212 406 q 216 395 216 399 q 168 348 199 348 l 164 329 l 164 321 q 245 277 172 277 l 260 274 q 304 285 294 285 l 355 274 l 374 274 q 425 344 401 274 q 422 421 422 392 l 422 429 q 411 462 422 440 l 422 536 q 414 569 422 541 q 422 616 422 602 q 396 694 422 694 q 340 621 366 681 q 308 562 318 621 q 271 503 294 562 q 219 403 220 445 z "},"5":{"ha":713,"x_min":120,"x_max":654,"o":"m 470 881 q 492 873 485 873 q 532 878 525 878 q 562 873 559 873 l 584 878 q 629 840 602 878 l 629 837 q 625 833 629 833 q 629 822 629 826 q 603 789 629 801 q 558 796 596 793 q 422 793 469 793 q 411 789 418 793 q 334 796 411 793 q 282 793 328 796 q 252 796 262 796 q 216 752 245 796 q 208 730 208 752 l 219 689 q 208 631 208 640 q 241 553 234 558 q 260 542 241 545 q 378 568 336 568 q 511 542 468 568 q 570 505 533 542 q 640 402 604 505 q 654 361 654 387 l 654 288 q 621 184 654 255 q 614 181 621 181 l 617 174 q 555 81 595 118 q 499 33 530 33 q 440 -14 467 33 q 356 -55 395 -55 q 293 -81 356 -71 q 231 -106 268 -98 q 205 -125 231 -125 q 131 -96 131 -106 l 131 -88 q 161 -44 131 -68 l 161 -40 l 168 -44 l 164 -37 q 260 -14 164 -18 l 352 26 q 408 59 371 41 q 481 115 429 96 q 499 151 489 115 q 540 199 533 151 q 577 302 562 199 q 581 317 581 302 q 536 420 579 355 q 540 424 540 420 l 532 420 q 426 487 484 473 l 400 490 q 293 461 293 477 q 212 387 262 441 l 201 387 q 138 442 138 396 l 138 450 q 142 487 138 454 q 120 671 135 519 q 127 696 120 678 q 123 774 123 745 l 123 778 q 146 866 123 866 l 179 866 q 205 878 193 878 l 212 878 q 245 863 229 863 q 275 870 269 870 q 297 863 281 870 q 470 881 453 873 z "},"6":{"ha":728,"x_min":96,"x_max":653,"o":"m 557 926 q 605 878 605 905 l 605 874 q 579 859 599 859 l 553 859 l 546 863 q 461 838 546 840 q 391 797 438 816 q 347 771 389 785 l 307 738 q 262 682 275 708 q 203 591 233 682 q 181 513 184 591 q 170 465 181 500 l 170 461 q 181 454 170 454 q 248 494 224 470 q 362 539 255 494 l 366 539 q 395 528 391 528 q 469 532 450 532 q 564 469 487 532 q 561 465 561 469 l 564 465 q 568 469 564 469 l 576 454 q 572 450 572 454 l 576 450 q 579 454 576 454 l 579 450 l 576 443 l 579 443 l 579 447 q 591 443 587 443 l 587 435 l 591 435 q 594 439 591 439 l 605 425 l 602 417 l 605 417 q 609 421 605 421 q 635 355 609 410 q 631 351 631 355 q 646 292 641 351 q 653 277 648 292 q 638 200 653 270 l 642 178 q 583 93 642 166 l 579 75 l 579 45 q 572 31 572 36 l 535 26 l 509 31 q 435 -3 457 31 q 384 -14 420 -3 q 285 5 364 -7 q 189 56 256 33 q 170 90 170 79 q 174 93 174 90 q 115 214 115 120 q 96 373 102 214 q 122 598 122 471 q 148 664 134 602 q 178 705 163 664 q 207 753 186 708 q 266 815 225 760 q 366 871 290 835 q 369 867 366 867 q 406 885 369 876 q 491 918 440 894 q 557 926 526 918 m 384 465 l 366 469 l 347 469 l 340 465 q 336 469 340 469 l 336 465 q 340 461 340 465 q 258 414 298 433 q 237 391 256 401 l 229 395 l 229 391 q 233 388 233 391 q 196 325 196 345 q 200 311 196 323 l 189 267 q 222 163 204 191 q 307 85 258 108 l 325 75 l 343 78 l 376 78 q 454 108 399 78 q 502 130 502 108 q 538 163 502 141 l 572 211 q 579 237 576 237 l 568 277 q 576 318 576 303 q 528 421 576 352 q 447 461 480 454 q 425 473 443 473 l 421 473 q 384 465 384 472 m 380 178 l 384 178 q 391 170 391 176 l 391 163 l 388 163 q 380 170 380 163 l 380 178 m 638 52 l 646 52 l 646 38 q 631 12 646 18 l 620 12 q 609 23 614 12 l 638 52 z "},"7":{"ha":703,"x_min":58,"x_max":663,"o":"m 515 892 q 545 882 534 882 l 574 882 q 659 848 659 871 q 663 833 663 842 l 663 804 q 633 749 663 783 q 611 709 633 728 q 574 653 604 684 l 578 646 q 519 502 521 545 q 496 450 507 492 q 471 373 482 450 q 456 358 464 358 l 460 351 q 434 285 460 341 q 423 196 423 217 l 427 189 q 412 149 412 164 q 416 137 412 137 q 408 71 411 81 q 412 38 412 51 l 412 8 q 405 -39 412 -7 l 408 -66 q 379 -110 393 -100 l 360 -110 q 301 -87 334 -110 l 320 -14 l 320 41 q 338 214 320 109 q 364 321 338 273 q 397 429 364 368 q 434 513 416 500 q 490 646 460 623 q 508 760 504 696 q 471 786 508 777 l 437 782 q 375 793 431 788 q 353 800 375 798 q 254 786 317 800 l 216 797 q 158 760 205 797 q 154 764 158 764 q 158 760 154 760 l 154 741 l 154 723 q 172 694 172 700 q 146 631 150 667 q 113 624 123 624 l 92 624 q 58 650 62 624 q 69 686 69 668 l 69 694 q 62 723 69 709 q 99 867 68 867 q 132 885 121 885 q 165 882 145 885 q 239 885 206 885 q 301 878 298 878 q 323 885 313 885 q 360 878 353 878 l 368 878 q 515 892 467 878 z "},"8":{"ha":830,"x_min":94,"x_max":746,"o":"m 418 864 l 565 849 q 613 816 572 849 q 694 746 635 816 q 720 617 720 672 q 701 543 701 559 q 646 503 671 513 q 631 463 631 469 l 631 451 q 705 374 705 387 l 701 366 l 705 366 q 709 370 705 370 q 746 271 734 336 q 731 219 736 219 l 690 109 q 635 53 635 62 l 624 60 l 624 57 q 631 50 631 56 l 610 35 l 584 35 q 580 39 580 35 q 547 27 553 27 l 513 31 q 410 -2 502 31 l 403 -2 q 267 35 324 35 q 256 42 256 35 l 248 39 q 182 86 225 69 q 127 171 127 134 q 94 252 102 193 q 130 355 111 355 q 163 418 158 381 q 215 469 215 431 q 174 540 212 503 q 141 665 141 650 q 174 743 149 720 q 208 790 179 743 l 274 827 q 330 857 284 857 l 418 864 m 363 772 q 333 779 339 779 q 289 743 302 768 q 245 720 278 729 q 219 690 245 716 l 215 669 l 215 639 q 322 532 215 595 q 418 510 365 532 l 458 499 l 462 499 q 584 547 584 516 q 621 573 590 555 q 642 628 642 612 l 642 654 q 584 739 642 703 q 506 779 572 779 l 488 779 q 454 798 469 798 l 436 794 q 403 801 422 801 l 363 772 m 311 433 q 307 437 311 437 l 311 429 l 311 425 q 248 378 248 393 q 215 340 248 355 q 182 278 199 278 l 178 256 q 215 168 186 172 q 259 127 239 157 q 340 98 304 127 q 407 86 353 98 q 543 119 518 95 l 576 116 q 672 175 603 139 q 680 237 680 234 l 680 245 q 654 307 654 268 l 616 366 q 580 396 601 366 q 576 392 576 396 q 525 418 533 418 q 488 411 515 418 l 444 437 q 425 440 437 440 l 414 440 q 311 433 353 440 z "},"9":{"ha":754,"x_min":93,"x_max":668,"o":"m 373 882 q 521 830 475 863 q 587 767 587 787 l 638 682 l 635 675 q 653 612 646 675 q 668 583 658 612 l 664 557 l 664 546 q 668 517 664 520 q 664 476 664 492 l 664 458 q 668 395 664 423 q 635 299 668 323 q 606 167 617 167 q 539 52 561 52 q 502 8 508 37 q 469 -10 469 -3 q 429 -51 446 -46 l 410 -47 q 388 -62 391 -47 l 391 -84 q 288 -110 342 -110 l 281 -106 q 211 -113 237 -113 l 170 -113 q 137 -87 146 -113 q 167 -47 137 -62 q 211 -54 196 -54 q 281 -25 260 -54 l 329 -18 q 332 -21 329 -21 l 332 -18 q 329 -14 329 -18 q 355 8 337 -14 q 414 26 391 14 l 410 34 q 465 97 465 64 l 484 115 q 488 111 484 111 l 484 119 q 535 200 519 183 q 565 281 535 212 l 565 285 q 539 340 550 340 q 506 307 534 340 q 465 299 479 307 q 462 303 465 303 q 370 267 418 275 l 358 267 q 267 299 296 267 q 159 380 213 314 q 123 439 143 385 q 93 506 93 465 l 97 532 q 93 572 97 539 q 174 782 93 684 q 255 845 189 806 q 373 882 304 867 m 167 635 q 170 602 170 614 q 156 543 156 553 q 178 458 156 525 q 174 454 174 458 l 178 454 q 182 458 178 458 q 244 384 182 451 q 336 355 277 355 q 366 362 360 362 q 388 355 378 355 l 399 355 q 450 373 403 361 q 513 421 467 409 q 572 561 572 486 q 565 605 565 593 q 568 656 565 611 q 509 734 541 707 q 373 812 509 771 q 277 779 296 795 q 196 686 196 732 q 167 635 182 673 z "},"\u0000":{"ha":0,"x_min":0,"x_max":0,"o":""}," ":{"ha":345,"x_min":0,"x_max":0,"o":""},"!":{"ha":391,"x_min":112,"x_max":319,"o":"m 208 247 l 221 247 q 298 210 253 247 q 313 165 313 178 q 319 136 313 160 q 284 75 303 75 q 239 40 273 75 l 232 40 q 144 93 185 47 q 125 138 144 98 q 120 178 125 150 q 184 241 120 212 q 208 247 201 247 m 171 964 l 182 964 q 267 899 267 942 q 274 858 274 899 l 274 838 l 256 739 q 252 736 252 739 l 252 682 q 233 572 237 625 q 237 539 237 555 q 171 445 237 445 q 134 506 143 445 q 138 539 134 516 q 112 858 130 760 q 130 932 122 932 q 171 964 139 932 z "},"\"":{"ha":543,"x_min":60,"x_max":495,"o":"m 141 1008 q 222 923 222 976 q 208 794 215 886 q 189 688 199 784 l 193 662 q 182 625 193 654 q 185 577 185 593 q 163 536 185 551 l 149 536 q 86 585 90 562 q 94 625 94 620 l 94 632 q 67 802 94 754 q 60 901 67 880 q 119 997 73 997 q 141 1008 119 1001 m 392 1004 l 403 1004 q 488 945 488 984 q 495 909 495 945 l 495 890 l 477 802 q 473 798 473 802 l 473 750 q 454 650 458 699 q 458 621 458 636 q 392 536 458 536 q 355 591 364 536 q 359 621 355 601 q 333 909 351 821 q 351 975 343 975 q 392 1004 360 975 z "},"#":{"ha":851,"x_min":9,"x_max":823,"o":"m 92 619 q 100 633 94 625 q 102 647 100 640 l 92 619 m 494 980 q 512 983 505 983 l 480 983 q 494 980 487 983 m 359 -5 q 342 -9 349 -9 l 374 -9 q 359 -5 367 -9 m 731 355 q 730 340 732 347 l 741 370 q 731 355 738 363 m 92 619 l 92 618 q 92 619 92 618 m 452 351 q 452 353 452 353 q 450 353 451 353 l 452 351 m 545 585 q 466 589 495 592 q 401 585 427 584 l 389 585 q 362 529 385 557 q 336 463 353 495 q 315 399 338 437 q 388 399 352 397 q 389 395 387 396 q 407 395 393 404 q 469 407 456 408 q 492 446 476 427 q 518 511 501 479 q 545 585 515 541 m 410 637 q 436 641 420 639 q 470 655 461 660 l 484 644 l 507 652 q 526 631 507 649 l 526 634 q 563 646 557 633 q 569 646 566 646 q 592 720 583 682 l 606 740 l 644 843 q 648 869 644 847 q 644 877 644 874 q 682 911 644 882 q 705 979 694 980 l 713 975 q 742 948 740 974 q 706 817 728 871 q 669 771 667 787 q 655 708 670 754 q 629 676 641 707 l 626 677 q 637 651 635 651 l 629 634 q 675 654 643 634 q 802 639 730 653 q 814 602 823 627 l 816 592 q 748 597 812 583 q 706 574 709 572 q 700 581 703 575 q 676 587 680 585 l 605 589 q 587 566 600 581 q 576 517 592 517 q 562 456 561 475 q 523 399 529 436 q 560 397 542 399 q 600 411 587 418 q 631 403 616 402 l 665 425 l 670 422 q 684 407 687 413 q 734 367 732 400 q 730 365 732 363 q 731 355 731 359 q 722 344 728 349 q 669 333 676 338 q 621 334 642 345 l 611 339 l 608 345 q 584 344 604 336 q 526 355 543 355 l 527 353 q 500 326 528 343 q 477 277 476 281 l 469 279 l 473 274 q 448 205 460 260 q 428 137 436 205 q 418 114 427 114 l 421 108 l 422 96 q 404 48 404 79 q 373 0 396 43 q 359 -5 366 -3 q 351 0 355 -3 q 347 -3 351 -3 q 330 60 317 11 q 321 80 323 60 l 321 86 l 354 112 q 359 146 361 127 q 388 180 357 161 q 414 245 397 215 q 434 311 412 260 q 446 338 439 323 q 416 351 434 340 q 385 342 387 341 l 324 336 q 307 356 326 338 l 305 353 l 295 353 q 262 254 275 306 l 248 235 l 210 132 q 205 106 210 127 q 210 97 210 100 q 172 64 210 93 q 149 -5 159 -5 l 140 0 q 112 26 115 1 q 148 158 127 103 q 185 203 187 188 q 199 267 184 220 q 225 298 213 267 l 228 298 q 216 323 219 323 l 228 346 q 210 351 216 348 q 157 334 197 359 q 31 349 102 334 q 18 385 9 361 l 16 395 q 83 391 20 405 q 125 414 122 416 q 132 406 128 412 q 155 401 152 403 l 258 398 q 267 409 262 403 q 278 458 262 458 q 292 518 294 500 q 332 589 332 542 q 271 591 302 587 q 232 576 244 569 q 200 584 216 585 l 166 563 l 161 566 q 147 581 145 574 q 98 621 100 587 q 102 623 99 624 q 100 633 100 628 q 110 644 104 637 q 162 654 155 649 q 210 653 189 643 l 220 648 l 224 642 q 248 644 227 651 q 314 636 310 626 q 334 633 324 635 q 353 649 340 640 q 378 698 378 693 l 385 695 l 381 701 q 406 769 394 715 q 426 838 418 769 q 436 861 427 861 l 433 867 l 432 878 q 450 926 450 895 q 481 975 458 931 q 494 980 488 978 q 503 975 498 978 q 507 978 503 978 q 524 914 537 964 q 532 895 531 914 l 533 888 l 500 863 q 495 829 493 848 q 466 795 496 813 q 440 729 457 760 q 420 663 441 715 q 410 637 416 652 z "},"$":{"ha":732,"x_min":83,"x_max":650,"o":"m 341 997 q 382 968 358 997 q 404 949 397 968 q 393 924 393 931 q 400 901 400 911 q 393 868 400 896 q 396 865 396 868 l 393 865 l 396 857 q 389 821 396 842 l 400 821 q 448 835 442 835 q 514 806 476 835 l 514 802 q 518 806 518 802 l 532 798 q 558 831 547 798 q 573 842 573 839 q 584 839 581 839 l 581 831 l 588 835 q 621 780 604 835 l 621 776 q 599 743 599 753 q 610 691 599 726 l 606 654 q 610 632 606 652 q 599 614 608 614 l 606 603 l 606 585 q 591 577 601 585 l 588 577 q 551 610 557 577 l 551 644 q 518 721 530 644 q 477 762 511 721 q 400 787 412 787 l 396 787 l 378 783 l 378 765 q 382 736 378 750 q 378 710 378 721 q 385 658 385 671 q 374 647 385 653 l 363 647 q 326 669 326 650 q 334 691 326 675 l 330 691 q 349 739 334 720 l 337 762 l 345 787 q 337 798 341 798 q 267 765 292 798 q 208 728 208 750 q 168 699 201 714 l 164 691 l 164 684 q 175 651 164 675 q 172 618 172 631 l 172 610 q 208 559 172 587 q 275 518 224 518 q 282 507 275 507 q 286 511 282 511 l 290 503 q 286 500 286 503 q 290 503 290 500 q 334 496 319 496 q 374 500 366 500 q 444 477 406 477 q 529 448 472 448 l 584 397 q 581 393 581 397 l 588 397 q 640 308 601 396 q 650 282 650 308 q 643 238 650 264 q 650 186 650 203 q 584 98 650 151 q 518 54 584 68 q 473 17 501 31 l 455 20 l 452 20 q 426 6 439 20 l 415 6 l 396 9 l 393 2 q 396 -1 396 2 l 393 -1 l 396 -9 l 396 -20 q 389 -50 389 -46 q 411 -160 411 -114 l 411 -171 q 374 -186 411 -181 q 330 -153 330 -174 l 334 -119 q 326 -97 326 -107 q 334 -64 334 -67 l 330 -45 q 334 -31 334 -33 q 330 14 330 -5 l 326 14 q 220 39 290 14 q 161 79 220 56 q 131 24 153 73 l 109 20 q 83 61 83 25 l 83 87 q 90 127 83 113 q 87 157 87 148 q 94 212 94 208 q 83 271 94 221 q 113 300 83 282 l 127 300 q 149 241 149 294 q 186 186 156 217 q 297 105 237 105 q 393 91 297 99 q 433 120 401 91 q 459 113 456 113 q 544 190 530 151 q 562 297 558 239 q 573 334 568 297 q 526 374 573 341 q 467 408 484 408 q 433 404 446 404 q 404 433 427 404 l 396 430 q 359 437 365 437 l 341 430 q 337 433 341 433 q 330 426 337 426 l 323 426 q 282 444 295 426 q 286 448 286 444 l 278 444 q 231 463 268 451 q 168 503 208 488 q 138 595 138 557 q 105 644 108 635 q 135 713 113 686 q 164 758 135 738 q 238 813 174 813 q 323 853 314 852 q 326 894 323 869 q 323 916 326 897 q 326 957 326 936 l 323 957 q 341 997 328 997 z "},"%":{"ha":889,"x_min":94,"x_max":860,"o":"m 808 1059 l 812 1059 q 823 1014 823 1034 q 793 955 793 981 q 716 830 716 878 q 705 815 714 815 l 709 808 q 646 738 646 747 q 598 661 621 661 q 543 557 562 611 q 510 506 525 557 l 503 509 l 506 502 q 473 447 481 478 l 469 447 q 465 450 469 450 l 469 443 q 414 351 451 425 q 348 237 359 287 q 300 167 319 214 q 248 78 271 153 q 185 5 224 16 q 127 -51 151 -51 q 97 -21 107 -41 l 97 -14 q 200 159 140 110 q 248 255 209 163 q 311 329 290 296 q 315 325 311 325 l 311 332 q 336 366 315 343 l 333 373 q 380 458 364 408 q 447 550 431 490 q 488 587 447 569 q 547 697 523 637 q 576 715 576 705 l 572 738 q 613 789 596 760 q 657 878 633 789 q 709 970 709 903 q 745 1025 719 977 q 808 1059 794 1059 m 208 892 q 277 878 266 878 q 307 885 300 885 q 380 833 334 863 q 403 745 403 802 l 399 727 q 410 675 410 703 l 410 671 q 403 638 410 662 l 406 612 q 377 524 406 602 q 355 502 377 518 q 303 469 355 478 l 270 473 q 230 454 239 454 l 226 454 q 163 480 208 454 q 104 594 137 480 q 97 612 97 594 q 104 664 104 661 q 94 715 94 688 q 108 749 94 747 l 104 756 q 138 838 104 793 q 208 892 191 892 m 171 793 l 163 797 l 163 793 q 167 789 167 793 q 156 767 156 785 l 156 741 q 145 668 156 730 q 174 564 174 612 q 248 520 174 546 l 252 520 q 311 557 279 557 q 351 605 349 595 l 348 612 q 370 671 370 660 q 351 712 351 701 q 333 782 351 766 q 336 785 336 782 q 321 804 329 785 l 326 812 l 318 808 q 237 841 275 841 q 185 800 205 841 q 171 793 180 800 m 712 561 l 716 561 q 808 502 728 561 q 842 439 831 450 q 860 314 842 426 q 845 252 860 308 l 848 226 q 808 159 848 205 q 790 108 808 154 l 764 108 q 712 115 751 108 q 680 108 688 108 q 595 141 595 127 q 550 178 578 178 q 498 321 526 214 q 495 325 495 321 q 517 410 517 372 l 513 410 q 562 494 540 494 q 631 546 562 532 q 650 553 631 553 l 683 550 q 712 561 701 561 m 654 476 q 642 480 646 480 q 602 454 620 480 q 606 414 606 429 q 583 362 583 385 l 583 343 l 609 258 q 665 211 609 231 l 680 211 q 701 233 701 211 q 683 255 698 255 l 683 270 q 716 262 707 262 l 731 262 q 768 351 768 298 l 768 355 l 745 432 q 683 484 724 484 q 654 476 676 484 z "},"&":{"ha":832,"x_min":67,"x_max":782,"o":"m 388 908 q 461 889 445 899 q 506 831 479 855 q 528 747 524 787 q 524 709 524 727 l 524 693 q 447 597 478 630 q 369 539 447 561 l 362 513 l 362 508 q 447 382 412 382 q 484 458 469 382 q 535 551 492 466 q 616 593 570 566 q 635 597 623 597 l 656 597 q 715 559 684 597 q 753 500 753 549 q 694 424 753 424 q 661 420 680 424 q 620 486 644 420 l 609 486 q 564 443 585 486 q 543 393 549 443 q 520 358 520 382 q 524 317 520 351 l 513 258 q 572 174 519 222 q 627 124 587 124 l 631 124 q 682 162 635 124 l 690 159 l 690 162 l 686 162 q 727 220 705 208 l 734 220 q 782 178 782 213 l 782 170 q 697 59 782 125 q 646 39 653 39 l 620 39 q 498 127 541 39 q 502 132 502 127 l 498 132 q 494 127 498 127 q 476 140 494 137 q 406 71 456 140 q 321 43 381 55 q 307 28 321 37 q 252 47 264 47 l 185 47 q 122 97 147 47 q 67 247 67 132 q 134 451 67 388 q 137 447 134 447 l 137 451 q 134 454 134 451 l 148 467 l 155 463 l 155 467 q 152 470 152 467 q 233 528 198 520 q 240 551 240 540 l 240 562 q 214 720 240 587 q 252 843 229 843 q 388 908 252 893 m 277 743 q 317 628 277 659 q 340 601 317 614 l 347 601 q 421 674 376 601 q 461 747 434 675 l 461 770 q 425 824 440 792 q 340 843 373 827 q 285 785 285 827 q 277 743 277 750 m 141 267 q 159 189 155 237 q 258 121 221 130 q 270 109 258 115 l 299 109 l 325 116 q 329 113 325 113 l 329 116 q 325 121 325 116 l 369 143 q 417 201 369 157 l 417 205 q 388 339 417 229 q 340 393 388 345 l 343 401 l 340 401 q 336 397 340 397 q 311 454 327 412 q 270 470 291 470 q 218 432 218 439 q 141 267 141 365 z "},"'":{"ha":316,"x_min":75,"x_max":240,"o":"m 163 987 q 237 947 187 987 l 233 939 l 240 939 l 240 936 q 222 873 240 926 q 229 825 229 840 q 214 800 222 825 l 218 781 q 203 685 208 768 q 200 677 200 685 q 203 623 203 646 q 208 618 203 618 q 134 556 181 556 q 111 612 111 576 q 115 652 115 637 l 104 703 q 111 741 111 731 q 78 873 78 819 q 82 877 82 873 q 75 884 75 877 l 75 924 q 119 980 81 980 q 163 987 151 987 z "},"(":{"ha":439,"x_min":96,"x_max":428,"o":"m 362 1057 l 395 1057 l 414 1038 l 414 1027 q 395 987 414 1021 q 370 950 388 962 q 329 895 370 943 q 281 803 293 818 q 252 736 252 788 q 226 681 239 736 q 207 648 217 676 l 214 611 q 193 559 193 568 l 193 552 q 196 523 193 537 q 189 471 189 490 q 203 431 199 431 q 193 390 193 399 l 207 302 l 207 283 q 229 254 229 258 q 226 224 226 233 q 292 92 226 210 l 299 77 q 296 73 296 77 l 299 73 q 303 77 299 77 q 351 14 303 64 q 406 -71 370 -35 q 428 -133 406 -80 q 402 -170 415 -170 l 395 -170 q 299 -111 363 -164 q 255 -56 269 -56 q 222 11 232 -56 q 200 40 219 11 l 203 47 l 200 47 l 200 43 q 163 147 171 43 q 126 195 149 189 q 108 272 126 202 l 115 387 q 96 482 105 482 q 119 582 96 524 q 155 707 119 637 q 189 770 168 770 q 211 858 201 839 l 252 932 l 258 928 l 258 932 q 255 935 255 932 q 311 1013 298 969 l 314 1013 q 317 1009 314 1009 l 314 1017 q 362 1057 340 1057 z "},")":{"ha":471,"x_min":-5,"x_max":386,"o":"m 65 1059 l 77 1059 q 102 1026 83 1059 q 169 982 142 1017 q 220 901 197 901 l 220 897 q 216 893 216 897 l 224 897 q 246 864 246 884 q 242 842 242 844 q 272 801 242 833 q 319 635 294 732 q 342 591 329 635 l 342 569 q 368 507 342 519 q 382 484 382 507 l 382 477 q 368 458 368 460 l 368 444 q 382 374 382 385 q 368 340 368 351 q 386 296 368 337 q 368 241 371 260 q 375 204 375 210 q 338 156 375 186 l 309 156 q 257 60 283 60 q 216 -46 229 14 q 142 -123 216 -62 q 128 -194 134 -185 l 121 -194 q 54 -168 111 -194 q -5 -131 -5 -168 q 28 -65 1 -65 q 69 -17 69 -28 l 73 -17 l 80 -20 l 77 -13 l 77 -9 q 146 79 101 -9 q 201 186 172 92 q 257 381 223 186 q 250 433 254 428 q 257 477 254 467 q 227 650 257 610 q 169 805 192 805 q 106 901 146 852 q 65 941 106 928 q 28 1008 36 981 q 65 1059 37 1059 m 284 61 l 292 50 l 281 43 q 273 50 273 43 q 284 61 273 55 z "},"*":{"ha":618,"x_min":5,"x_max":545,"o":"m 9 922 q 5 924 8 926 l 5 922 l 9 922 m 302 628 q 277 621 291 626 q 262 562 269 614 l 248 538 q 195 477 227 494 q 178 469 195 474 q 140 488 151 458 q 128 494 136 486 l 125 505 q 148 556 124 519 q 177 593 148 584 q 218 654 178 640 q 216 701 224 680 q 144 715 208 697 q 138 715 142 717 l 137 717 l 136 722 l 130 722 q 130 720 132 720 q 73 748 110 730 q 73 800 54 791 q 92 831 77 803 q 127 823 119 838 q 176 805 146 827 q 219 791 195 804 q 242 797 227 793 q 260 802 258 800 q 264 802 262 800 l 262 804 q 258 804 260 802 q 262 859 258 821 q 260 936 247 924 q 269 947 262 941 q 307 977 292 992 l 342 972 l 340 953 q 340 895 364 918 q 346 839 367 869 q 345 779 351 800 q 347 773 346 776 q 422 814 409 798 q 469 827 431 810 q 532 829 504 831 q 543 765 545 813 l 543 762 q 479 733 530 736 l 476 738 l 475 735 q 476 732 477 734 q 448 705 456 728 q 387 694 415 714 q 433 629 410 671 q 447 613 446 619 l 452 609 l 443 601 l 459 593 q 481 536 467 576 q 424 497 478 506 l 412 500 l 416 505 l 409 505 q 349 573 379 564 q 319 614 329 593 q 308 633 307 624 q 305 627 306 625 q 309 630 308 627 l 306 631 q 302 628 305 627 z "},"+":{"ha":670,"x_min":18,"x_max":663,"o":"m 347 738 q 380 683 380 722 l 380 609 q 391 572 381 583 l 387 554 q 413 484 387 496 q 446 473 427 473 q 460 477 454 473 q 465 473 465 477 l 490 477 l 519 477 q 652 454 652 471 q 663 432 652 446 q 637 380 650 380 l 545 380 q 465 385 519 380 q 450 370 465 378 q 398 373 444 370 q 380 347 380 368 l 380 311 q 391 262 380 302 q 380 233 391 250 q 391 193 391 233 q 339 93 366 93 q 292 182 305 93 l 292 189 q 295 237 292 191 q 288 259 288 249 l 288 262 q 295 292 288 279 q 251 385 291 385 l 247 385 q 166 370 197 385 l 151 373 q 118 359 135 373 l 111 359 q 22 399 22 377 l 18 425 q 48 465 33 458 l 56 462 l 56 465 q 52 469 52 465 q 92 477 66 477 q 155 465 115 477 q 236 480 191 477 q 280 495 236 488 q 295 580 290 543 q 277 642 277 630 l 277 686 l 284 686 l 280 694 q 347 738 309 738 z "},",":{"ha":375,"x_min":89,"x_max":300,"o":"m 200 245 q 260 216 229 228 q 300 142 277 202 q 274 25 292 126 q 229 -43 239 -9 l 223 -41 l 223 -43 l 226 -43 q 174 -106 206 -106 q 137 -120 157 -110 q 115 -123 126 -123 l 111 -123 q 95 -106 95 -123 q 111 -54 97 -59 q 115 -58 111 -58 l 111 -52 q 134 -23 120 -38 q 137 -26 134 -26 l 134 -20 q 149 14 149 5 l 149 22 q 97 94 97 79 q 89 123 89 121 q 155 231 89 206 q 200 245 155 233 z "},"-":{"ha":617,"x_min":25,"x_max":587,"o":"m 280 479 q 308 473 293 473 l 315 473 q 349 479 321 473 q 380 473 372 473 q 408 479 391 473 q 435 476 433 476 q 474 479 466 479 q 518 470 510 470 l 546 470 q 587 429 571 460 l 587 415 q 577 397 577 404 l 570 400 q 573 391 573 395 q 566 377 566 382 l 563 377 l 556 380 l 556 377 q 559 374 559 377 q 508 365 537 365 l 467 368 q 418 351 441 357 q 380 357 405 357 l 353 357 q 239 374 316 365 q 212 368 236 374 q 149 377 201 368 q 129 365 146 377 l 121 365 q 50 374 98 371 q 25 421 34 389 q 98 470 44 470 q 129 476 129 472 l 146 473 l 218 473 q 280 479 246 473 z "},".":{"ha":374,"x_min":71,"x_max":290,"o":"m 168 234 l 182 234 q 267 193 217 234 q 284 144 284 158 q 290 112 284 138 q 252 45 272 45 q 203 7 240 45 l 194 7 q 98 65 143 15 q 77 115 98 71 q 71 159 77 128 q 142 228 71 195 q 168 234 160 234 z "},"/":{"ha":461,"x_min":-60,"x_max":526,"o":"m 500 1100 l 463 1100 q 489 1088 476 1100 q 493 1093 489 1093 q 506 1011 526 1075 q 513 985 513 1011 l 513 978 l 473 945 q 463 901 463 925 q 427 857 463 881 q 390 772 413 812 q 360 687 390 753 q 319 606 347 654 q 279 514 316 559 q 242 429 265 471 q 198 326 242 389 q 187 304 198 304 q 191 300 187 300 q 136 160 157 233 l 117 134 l 62 1 q 55 -32 62 -4 q 59 -43 59 -39 q 12 -86 59 -48 q -21 -175 -9 -175 l -31 -168 q -60 -135 -60 -168 q -5 35 -35 -36 q 43 94 43 74 q 65 175 43 115 q 98 216 81 176 l 102 216 q 91 248 94 248 l 132 322 q 157 359 132 326 q 176 422 157 422 q 198 499 198 476 q 253 610 253 535 l 250 632 q 283 669 250 646 q 315 731 315 725 l 323 728 l 319 735 q 356 823 336 753 q 386 911 369 823 q 400 941 390 941 l 397 949 l 397 964 q 422 1026 419 986 q 463 1088 432 1032 q 500 1100 487 1100 z "},":":{"ha":402,"x_min":102,"x_max":307,"o":"m 185 698 q 222 688 216 688 l 229 691 q 283 637 260 691 q 307 559 305 637 q 280 511 296 558 l 260 511 q 222 488 246 511 q 138 508 138 488 q 104 596 108 508 l 104 623 q 185 698 104 669 m 214 220 q 299 153 252 220 l 299 143 q 252 41 299 72 q 223 19 245 41 l 214 19 l 201 29 l 185 29 q 172 16 185 22 q 137 52 166 16 q 102 109 102 74 l 102 127 q 131 172 102 154 q 127 175 131 175 q 214 220 127 205 z "},";":{"ha":403,"x_min":101,"x_max":321,"o":"m 192 692 q 230 682 223 682 l 237 686 q 292 630 268 686 q 316 551 314 630 q 289 503 305 550 l 268 503 q 230 479 254 503 q 144 500 144 479 q 109 589 113 500 l 109 617 q 192 692 109 663 m 217 245 q 280 215 247 227 q 321 138 298 201 q 294 16 313 121 q 247 -56 258 -20 l 241 -53 l 241 -56 l 244 -56 q 191 -121 223 -121 q 151 -136 172 -125 q 128 -140 140 -140 l 125 -140 q 107 -121 107 -140 q 125 -68 110 -72 q 128 -71 125 -71 l 125 -65 q 149 -35 134 -50 q 151 -38 149 -38 l 149 -32 q 163 3 163 -5 l 163 13 q 110 87 110 72 q 101 117 101 115 q 170 230 101 204 q 217 245 171 232 z "},"<":{"ha":652,"x_min":44,"x_max":608,"o":"m 44 446 l 44 457 q 162 502 93 483 q 228 549 196 549 q 306 572 264 549 l 309 572 l 342 568 q 420 619 355 570 q 541 667 488 619 l 556 675 q 608 623 608 670 l 608 619 q 597 616 601 616 l 597 593 q 567 572 597 572 q 541 560 567 566 l 534 564 q 409 528 491 542 q 338 490 382 505 q 313 469 330 475 q 273 472 280 472 q 191 454 227 457 q 180 446 191 446 l 180 420 q 346 366 199 420 q 397 339 387 366 q 534 307 477 307 q 545 310 541 310 l 564 299 l 589 299 q 600 277 589 289 q 574 229 600 229 q 545 214 574 224 l 490 233 l 490 236 q 486 233 486 236 q 460 248 465 248 l 464 255 l 460 255 l 460 251 q 346 277 439 269 q 243 317 328 289 q 99 366 139 366 q 55 410 81 366 q 44 446 44 429 z "},"=":{"ha":724,"x_min":66,"x_max":700,"o":"m 202 584 q 291 569 273 569 l 323 576 q 401 566 381 566 q 460 576 416 566 q 519 569 478 576 q 570 580 526 573 q 623 569 595 569 l 648 573 q 688 551 688 559 l 685 543 l 688 543 q 692 547 688 547 q 700 532 692 541 l 700 514 q 618 484 644 484 q 585 492 595 492 l 530 481 q 408 492 516 488 q 372 484 377 484 l 349 496 q 261 488 262 491 l 239 492 l 224 492 q 125 477 180 492 l 110 477 q 66 543 66 489 q 114 580 66 564 q 169 576 123 580 q 202 584 193 584 m 147 355 q 235 348 216 348 l 246 348 q 276 352 262 348 q 349 340 318 348 q 387 348 353 340 q 486 330 435 330 q 545 345 505 340 q 564 352 545 351 q 644 337 574 340 q 685 296 684 314 l 685 281 q 674 252 685 254 l 670 252 q 623 260 655 252 q 585 237 612 260 l 564 237 q 500 263 534 263 l 456 234 l 449 237 l 423 237 q 379 256 415 237 q 353 230 372 256 q 323 222 340 222 l 313 222 q 269 256 294 222 q 258 260 261 260 q 246 256 254 260 q 213 260 227 260 l 202 260 l 202 248 l 199 230 q 117 234 143 234 l 110 230 q 70 252 87 235 q 96 337 70 337 q 147 355 116 355 z "},">":{"ha":644,"x_min":77,"x_max":641,"o":"m 641 428 l 641 417 q 523 372 592 391 q 457 325 489 325 q 379 302 420 325 l 376 302 l 342 307 q 265 255 330 304 q 144 207 197 255 l 129 199 q 77 251 77 204 l 77 255 q 88 258 84 258 l 88 281 q 118 302 88 302 q 144 314 118 308 l 151 310 q 276 347 194 332 q 347 384 303 370 q 372 406 355 399 q 412 402 405 402 q 494 420 458 417 q 505 428 494 428 l 505 454 q 339 509 486 454 q 288 535 298 509 q 151 568 208 568 q 140 564 144 564 l 121 575 l 96 575 q 85 597 96 585 q 111 646 85 646 q 140 660 111 650 l 195 642 l 195 638 q 199 642 199 638 q 224 627 220 627 l 221 619 l 224 619 l 224 623 q 339 597 245 605 q 442 557 357 585 q 586 509 546 509 q 630 465 604 509 q 641 428 641 446 z "},"?":{"ha":616,"x_min":29,"x_max":563,"o":"m 279 908 q 316 901 307 901 l 342 905 q 423 871 422 882 q 434 875 430 875 q 523 794 523 838 q 559 687 559 771 l 563 669 q 519 573 563 608 q 408 481 493 524 q 353 414 364 481 q 328 330 328 396 q 305 308 307 308 l 298 308 q 228 378 228 331 l 228 385 q 250 455 240 397 q 335 558 302 558 q 338 555 335 555 l 338 558 q 335 562 335 558 q 441 658 437 613 q 460 687 450 658 q 393 798 427 798 q 349 823 393 811 l 338 823 q 272 805 304 823 q 220 809 241 809 l 220 805 l 213 809 l 187 809 q 140 750 161 809 l 140 739 q 191 680 185 702 l 191 635 q 158 591 166 617 q 140 581 144 581 q 51 621 51 589 q 29 687 31 659 q 87 842 47 773 q 143 864 131 842 q 172 882 154 882 q 184 879 180 879 q 279 908 199 879 m 283 205 l 316 205 q 372 138 372 160 q 313 35 362 83 l 305 35 q 272 43 300 35 q 250 35 250 40 q 187 101 221 35 l 184 123 l 184 131 q 246 197 198 197 q 250 193 246 193 l 250 197 q 246 201 246 197 l 283 205 z "},"@":{"ha":1018,"x_min":50,"x_max":953,"o":"m 300 202 q 293 180 293 190 l 293 176 q 374 77 293 138 l 404 77 l 448 84 l 484 73 q 599 121 496 73 q 650 176 599 129 q 665 231 650 179 q 635 272 665 272 q 595 302 616 272 l 576 305 l 569 305 q 528 283 559 305 q 466 287 516 283 q 381 264 393 271 q 300 202 327 239 m 300 202 q 296 205 300 205 l 296 202 l 300 202 m 725 5 q 720 3 722 5 q 672 29 697 8 l 669 29 q 632 22 661 29 q 595 43 600 43 q 584 40 588 40 q 581 43 584 43 q 503 7 581 33 l 414 7 q 370 18 379 18 l 345 18 q 307 33 334 26 q 315 43 315 42 l 311 43 q 304 37 311 37 q 234 110 271 77 q 227 132 234 117 q 252 254 229 254 q 340 320 319 320 q 363 323 363 320 l 370 320 l 414 320 q 451 338 427 320 q 481 331 475 331 q 562 357 537 347 q 595 368 562 365 q 599 364 599 368 q 665 423 645 387 q 639 493 665 479 q 606 537 635 493 q 566 552 572 552 q 517 537 561 552 l 522 545 l 514 541 l 510 541 q 484 552 496 552 q 433 534 479 552 q 399 537 413 537 q 378 511 384 528 q 381 452 381 474 l 381 438 l 374 441 l 378 434 l 378 431 q 330 412 337 412 q 271 446 275 431 q 267 460 271 460 q 293 515 279 515 q 296 511 293 511 l 293 519 q 392 589 342 589 q 463 608 450 608 l 484 608 q 676 556 640 608 q 684 549 684 555 q 680 545 680 549 l 687 549 q 728 490 728 534 l 749 427 q 743 387 743 395 q 749 349 749 363 q 731 298 731 311 l 743 261 q 728 213 728 232 l 728 202 q 743 184 740 184 q 735 154 735 170 q 761 106 749 106 l 764 106 q 822 137 781 106 q 838 163 829 149 q 877 235 882 186 q 883 283 876 244 l 876 306 l 888 355 q 881 390 888 362 l 880 429 q 849 475 859 451 q 850 495 850 486 q 846 522 847 511 q 795 590 816 549 q 707 640 749 644 l 704 640 q 634 673 640 673 l 629 678 l 628 688 l 611 686 l 558 707 q 519 706 551 707 l 476 711 q 421 688 449 694 q 382 694 397 694 l 372 695 q 347 680 360 687 l 347 667 q 302 633 325 650 q 277 626 283 626 q 199 541 259 627 q 191 538 195 540 q 174 511 174 514 l 167 507 l 158 507 q 148 467 149 490 q 134 412 147 456 l 136 387 l 115 332 q 116 292 115 324 l 111 248 q 134 191 127 219 q 127 151 128 166 l 127 140 q 166 53 153 103 q 244 -18 203 -16 l 248 -18 q 311 -65 305 -65 l 315 -73 l 315 -75 q 331 -87 323 -83 l 338 -93 q 419 -103 376 -90 q 505 -78 485 -107 l 506 -76 q 569 -51 566 -55 l 576 -52 l 591 -62 q 614 -90 604 -71 l 608 -104 q 576 -127 604 -111 l 573 -122 l 572 -129 q 519 -161 551 -137 l 517 -159 l 514 -153 l 513 -160 q 496 -163 510 -163 l 492 -157 l 490 -159 q 491 -164 493 -161 l 410 -165 q 339 -157 353 -155 q 291 -136 336 -162 l 282 -138 q 239 -121 273 -138 l 242 -113 l 235 -117 q 171 -84 214 -101 l 171 -81 l 174 -73 l 167 -76 q 153 -61 161 -76 l 157 -54 l 154 -54 q 150 -57 154 -57 l 99 23 q 62 99 74 86 q 53 214 53 100 q 50 221 50 214 l 60 269 q 59 387 58 373 q 82 489 71 401 q 91 507 90 489 l 92 533 q 104 543 98 538 q 119 583 106 554 l 127 579 l 123 586 q 155 650 138 608 l 159 650 l 165 647 l 163 654 q 177 668 163 660 l 184 664 l 184 667 q 181 672 181 668 l 258 723 q 332 760 319 747 q 443 769 332 768 q 450 772 444 772 l 496 762 q 610 764 597 764 q 710 740 625 751 q 728 732 710 732 l 752 730 q 781 699 768 712 q 789 691 785 696 q 794 687 792 689 l 795 687 l 798 684 q 835 667 819 667 l 831 659 l 839 663 q 876 621 865 654 q 916 570 876 609 l 915 545 q 923 513 919 532 q 924 511 923 512 l 924 509 q 932 466 928 490 q 936 460 935 467 l 933 418 q 953 316 951 328 q 945 224 943 301 q 939 208 937 223 l 942 185 q 892 103 889 130 l 885 105 l 885 104 l 889 99 q 886 90 888 94 l 886 84 q 805 3 886 52 l 787 7 l 758 7 q 753 3 755 5 l 749 3 q 725 5 734 1 z "},"A":{"ha":719,"x_min":2,"x_max":703,"o":"m 337 874 l 344 874 q 368 840 364 850 q 363 836 363 840 l 368 836 q 371 840 368 840 l 393 806 q 408 754 401 789 q 404 750 404 754 q 445 630 418 739 q 460 555 453 630 q 489 439 489 516 q 526 349 526 378 l 526 338 l 522 330 q 555 218 539 330 q 581 126 564 207 q 644 120 602 110 l 644 117 q 648 120 648 117 q 703 64 703 108 q 618 15 678 15 q 589 22 599 22 q 452 19 495 19 q 430 31 430 22 q 434 34 434 31 l 427 31 q 408 60 408 43 l 408 87 q 441 113 408 113 l 484 120 q 486 169 496 120 l 486 199 q 404 255 479 260 q 401 258 404 258 l 357 255 q 237 258 296 258 q 205 165 205 218 l 205 151 q 260 90 178 113 l 260 87 l 268 90 q 294 38 289 90 q 253 12 294 26 l 231 15 q 183 4 227 15 q 161 12 171 12 l 146 12 q 35 10 96 12 q 2 67 26 19 l 2 71 q 109 109 2 109 q 142 184 131 136 q 150 203 150 184 l 146 221 q 161 263 161 258 q 171 308 171 302 q 208 469 201 422 q 245 645 238 587 q 256 675 253 645 q 253 698 256 678 q 279 802 279 758 q 290 825 290 806 l 290 855 q 337 874 304 867 m 253 372 q 319 324 262 324 q 353 317 326 320 q 434 335 425 326 l 437 354 l 437 361 q 419 481 422 399 q 397 571 409 481 q 360 669 372 606 q 342 676 353 669 q 301 571 321 676 q 272 448 290 472 q 253 372 272 408 z "},"B":{"ha":795,"x_min":30,"x_max":781,"o":"m 354 869 q 406 854 394 854 l 413 854 q 465 861 425 854 q 509 854 497 854 l 509 857 q 583 843 521 850 q 675 707 653 730 l 675 699 l 671 662 q 675 600 675 624 q 656 530 667 581 q 619 467 619 483 q 637 434 619 456 l 634 427 l 637 427 q 642 430 637 430 q 663 412 652 412 l 660 404 l 667 408 q 722 330 701 383 q 741 316 733 330 q 737 312 741 312 l 741 304 q 722 268 722 288 q 719 165 722 239 q 671 87 690 141 q 634 43 634 69 l 634 36 q 645 10 645 22 l 645 -5 q 627 -27 645 -27 q 560 6 587 6 l 534 6 q 483 -5 487 -5 q 442 3 479 -5 l 420 3 l 413 6 q 372 -12 413 0 q 351 3 369 -12 q 277 -1 340 3 l 240 10 l 218 10 l 174 -8 q 103 10 144 3 q 37 21 103 18 q 30 36 34 36 q 48 69 35 69 q 89 65 73 65 q 130 80 130 77 q 170 73 144 73 l 177 73 q 214 113 201 73 l 218 113 q 214 117 218 117 q 251 180 251 171 q 225 201 251 185 q 210 231 210 229 q 229 298 229 280 q 203 323 229 319 q 184 389 184 348 q 195 427 184 397 q 184 519 184 496 q 207 633 184 581 l 203 633 q 195 636 195 633 l 225 692 q 184 772 184 754 q 170 787 170 780 l 166 787 q 162 777 166 783 q 111 791 127 791 l 107 791 q 66 784 71 784 l 66 791 l 71 799 l 63 799 l 63 817 q 59 821 63 821 q 133 843 59 841 q 166 857 134 848 l 166 861 l 170 861 q 199 846 185 846 l 221 846 q 262 857 258 857 q 328 854 321 854 l 354 869 m 406 766 q 280 747 280 766 q 269 703 269 712 l 269 695 q 295 636 269 652 q 317 581 313 636 q 328 574 322 574 l 328 563 q 416 486 328 513 l 450 486 q 542 526 542 513 q 578 559 543 533 q 604 659 604 580 q 601 669 601 666 q 604 673 604 669 q 578 699 591 673 q 519 710 571 705 q 439 758 439 733 q 442 762 442 758 l 439 762 q 435 758 439 758 q 424 769 435 761 l 406 766 m 266 279 q 284 205 284 215 q 273 187 275 205 q 310 95 273 95 l 402 80 l 428 87 q 475 83 459 83 q 608 146 496 105 q 637 235 630 191 l 612 327 q 583 371 601 330 q 568 375 576 375 l 557 375 q 553 371 553 375 q 519 404 537 371 q 479 412 515 408 q 442 404 446 404 q 357 412 433 404 q 277 327 321 412 q 266 279 266 287 m 774 213 q 781 205 781 212 l 781 198 l 767 194 l 763 201 q 774 213 763 207 m 696 43 l 704 43 q 711 36 711 42 l 701 28 l 696 36 l 696 43 z "},"C":{"ha":740,"x_min":64,"x_max":691,"o":"m 378 876 q 458 846 400 854 q 477 839 458 839 l 484 839 q 514 846 511 846 q 522 839 522 845 l 522 836 l 510 821 l 510 810 q 543 787 523 787 l 547 787 q 576 836 552 787 q 599 865 593 865 l 606 865 q 676 784 646 865 q 661 680 665 731 q 646 659 656 680 l 646 654 q 676 570 646 644 q 643 463 676 463 q 617 452 635 452 q 555 530 587 452 l 555 537 q 558 559 555 540 q 514 666 558 606 q 477 718 514 704 q 463 754 467 718 q 374 780 463 770 q 348 739 367 749 l 337 739 q 308 754 321 754 q 278 725 300 754 q 234 684 234 715 q 190 614 190 653 q 172 544 172 593 l 164 548 q 168 537 168 541 q 153 471 160 527 q 160 412 153 464 l 157 386 q 197 212 157 285 q 234 146 197 164 q 275 94 252 136 l 293 91 q 326 121 313 114 q 407 83 407 121 q 437 68 413 68 q 536 179 536 117 q 562 257 562 197 q 591 301 567 257 q 646 309 638 309 q 691 245 673 309 q 676 157 680 229 q 650 113 650 125 q 654 102 654 106 l 625 80 q 610 32 621 32 q 581 39 587 39 q 555 6 570 39 l 481 -9 q 396 -35 456 -19 q 352 -20 360 -20 l 345 -20 l 319 -23 q 227 21 313 -15 q 178 80 179 62 q 98 209 98 164 q 83 257 98 216 q 87 309 87 288 l 72 356 l 75 378 q 64 408 64 397 q 79 478 79 448 l 79 500 q 105 648 101 583 q 134 721 134 674 q 172 765 142 721 q 231 824 180 765 q 326 861 258 831 l 352 857 q 378 876 352 866 z "},"D":{"ha":762,"x_min":30,"x_max":722,"o":"m 266 859 l 298 851 l 332 854 q 369 847 366 847 q 395 854 376 847 q 435 851 420 851 l 450 854 q 572 820 481 840 q 616 771 585 813 q 675 680 646 771 q 711 544 703 669 q 722 498 716 544 q 719 388 719 414 q 722 335 719 382 q 696 214 708 300 q 630 111 645 155 q 583 66 614 106 q 487 16 542 66 l 468 12 l 450 16 q 413 12 431 12 l 409 12 q 387 20 399 12 q 229 1 229 14 q 111 28 169 5 q 63 9 102 28 q 30 35 41 9 q 103 115 30 115 q 159 111 140 111 q 229 157 229 117 q 221 206 229 206 l 229 237 l 221 274 q 233 312 233 307 q 225 369 225 348 l 225 380 q 233 414 225 390 q 229 456 233 423 q 233 475 229 469 q 229 547 229 517 l 229 627 q 236 699 229 653 q 166 783 236 783 l 111 783 l 85 774 q 48 817 48 798 q 77 851 48 840 l 130 847 q 266 859 260 859 m 310 748 l 310 653 q 302 616 310 616 l 310 456 q 295 391 295 406 q 306 361 301 361 l 302 335 l 302 309 q 317 248 302 304 q 306 184 317 233 l 306 153 q 354 111 306 111 q 409 107 363 111 q 498 138 454 138 q 553 187 498 143 q 583 233 553 199 q 627 351 583 243 l 634 388 q 630 426 630 408 q 642 456 642 445 q 630 566 634 486 q 634 578 634 574 q 604 650 631 614 l 608 658 l 608 669 q 572 714 608 714 q 413 786 572 742 l 416 793 q 413 790 413 793 l 387 793 l 380 793 q 310 748 310 783 z "},"E":{"ha":819,"x_min":30,"x_max":737,"o":"m 575 866 q 671 836 649 857 q 689 810 689 814 q 686 806 686 810 q 730 635 701 806 l 730 612 q 701 568 725 568 l 696 568 q 656 601 684 568 q 634 616 645 601 l 634 624 l 656 687 l 656 699 q 560 769 656 736 q 553 772 560 772 q 519 765 529 765 l 512 765 q 465 799 483 765 q 406 777 431 795 q 336 780 394 777 q 313 772 323 772 q 310 777 313 777 l 310 772 q 313 769 313 772 q 284 736 290 769 l 284 732 q 291 671 291 677 l 291 668 q 284 627 291 663 l 284 619 l 291 593 q 288 538 288 547 q 350 500 320 500 l 365 500 q 369 504 369 500 l 376 500 l 395 500 q 446 545 446 511 q 475 619 446 619 q 501 635 481 635 q 534 583 518 635 q 524 452 524 455 q 534 329 531 436 q 498 277 534 307 l 483 277 q 446 374 446 295 q 387 422 429 422 l 365 422 q 298 381 298 422 l 298 347 q 295 258 298 311 q 310 224 307 224 q 298 183 298 199 q 328 135 298 135 q 357 157 332 135 q 457 127 457 141 q 498 116 486 116 l 516 119 q 519 116 516 116 l 519 123 l 545 123 l 545 116 l 549 116 q 583 135 549 122 q 604 183 591 147 q 616 205 612 183 q 612 217 616 210 q 616 258 616 243 l 616 288 q 663 332 640 332 l 696 332 l 696 325 l 704 329 q 737 250 732 318 q 704 41 719 173 q 689 26 693 26 l 663 31 q 627 12 639 12 l 619 12 l 623 19 q 612 15 616 15 q 578 26 592 26 l 553 12 l 545 12 q 479 26 522 12 q 427 7 446 7 q 273 34 273 17 l 236 19 q 199 31 232 19 l 184 -3 l 166 -3 q 148 19 148 7 l 129 19 q 107 7 115 7 q 30 38 47 7 l 30 49 q 118 119 30 109 l 121 119 q 177 112 157 112 l 180 112 q 206 142 206 112 l 199 273 q 214 310 214 302 q 210 355 214 335 q 221 460 214 428 q 210 500 214 500 l 214 507 l 214 530 l 210 553 q 221 624 221 575 l 221 720 q 174 780 221 780 q 121 783 151 783 q 70 765 107 783 q 33 817 33 781 l 33 829 q 107 855 47 855 q 206 851 150 855 q 247 855 232 855 q 284 848 277 851 l 509 863 q 549 851 543 851 q 575 866 575 863 z "},"F":{"ha":724,"x_min":30,"x_max":693,"o":"m 184 857 q 225 849 204 849 q 302 853 237 849 l 339 849 l 347 853 l 369 849 l 372 849 q 424 857 385 849 q 571 853 538 853 q 663 796 663 840 q 674 759 674 777 l 671 725 q 686 694 681 697 l 682 675 l 682 656 q 693 623 682 648 q 689 532 689 570 l 689 522 l 674 502 q 604 555 629 515 l 604 559 q 612 601 612 574 q 597 713 601 652 q 583 728 591 713 q 586 732 586 728 l 583 732 l 583 728 q 545 766 574 728 q 479 785 500 770 q 295 747 295 785 q 288 717 288 734 l 306 680 q 288 551 295 624 q 280 528 280 551 q 354 488 280 501 q 431 528 431 500 q 450 623 441 541 q 486 638 463 638 l 498 638 q 512 623 503 638 l 512 596 q 519 567 512 593 q 512 528 512 536 q 524 484 524 495 q 509 450 509 463 q 524 397 524 401 q 519 374 519 377 q 527 321 527 346 l 527 310 q 483 254 527 279 l 479 254 q 427 329 427 271 q 387 412 409 412 q 354 408 367 408 l 347 408 q 339 416 339 408 q 280 348 280 390 l 291 307 l 280 239 q 288 216 288 226 l 288 212 q 280 171 280 176 l 280 159 q 306 122 302 130 l 306 118 l 302 111 l 306 111 q 310 115 306 115 q 427 92 310 99 q 475 62 466 76 q 413 20 425 20 l 406 24 q 372 12 395 24 q 306 28 330 28 q 277 1 298 28 l 265 1 q 184 24 252 16 q 140 1 150 1 q 92 28 119 28 l 77 28 q 52 12 61 12 q 30 31 37 18 l 30 62 q 96 111 56 97 q 155 106 134 106 q 195 133 170 106 l 192 141 q 206 227 206 207 q 199 254 206 254 q 214 291 214 283 q 210 344 214 320 q 225 593 221 391 q 229 596 229 593 q 214 635 214 596 l 214 646 q 229 687 214 652 q 195 762 229 762 q 129 774 195 765 l 70 770 q 52 815 52 804 l 52 819 q 85 853 73 850 l 170 853 q 184 857 178 853 z "},"G":{"ha":739,"x_min":43,"x_max":725,"o":"m 353 861 q 397 853 378 853 l 416 857 q 515 808 448 850 l 549 808 q 596 827 566 808 q 640 782 640 816 q 618 733 626 733 q 622 730 618 730 q 614 703 614 718 q 622 669 614 687 q 618 665 618 669 q 633 631 633 665 q 626 602 626 608 l 629 564 l 608 553 q 559 583 559 553 q 452 744 487 744 q 393 770 402 770 q 342 764 350 764 q 305 767 310 767 q 283 737 289 767 q 250 718 269 725 l 231 722 q 202 684 220 722 q 146 542 146 655 q 139 481 140 542 l 143 481 q 128 411 136 465 q 143 380 141 380 q 136 343 136 363 q 165 298 136 326 l 165 294 l 161 279 q 180 212 176 256 q 231 137 212 178 l 243 137 l 264 141 q 334 121 295 121 q 397 141 345 121 q 441 121 431 129 q 534 245 534 193 q 482 317 534 295 q 460 347 465 317 q 504 395 460 380 q 589 388 567 388 q 622 395 613 395 q 718 366 718 378 q 725 332 722 359 q 670 287 720 287 q 637 212 637 287 l 626 121 q 637 88 626 115 q 578 13 637 35 l 574 13 q 482 43 553 43 l 482 47 q 464 32 464 43 l 471 5 l 456 -5 l 416 -5 q 375 21 392 -5 q 360 24 369 24 l 353 24 l 331 21 q 313 24 325 24 l 287 13 q 187 66 187 35 q 132 103 132 85 q 113 137 132 121 q 69 227 75 227 q 47 317 55 227 l 47 332 q 51 347 47 340 q 43 388 43 361 q 55 444 55 428 q 51 456 55 449 q 92 631 55 607 q 132 718 92 640 q 191 789 132 735 q 287 850 191 803 l 313 850 q 353 861 328 850 z "},"H":{"ha":832,"x_min":35,"x_max":801,"o":"m 595 869 q 635 859 597 869 l 650 859 q 728 862 680 859 q 801 821 801 840 q 764 795 801 808 q 761 800 764 800 q 683 774 761 779 q 669 726 683 768 q 680 663 669 695 q 669 564 675 596 q 683 538 675 564 l 676 427 l 680 383 q 676 342 676 358 q 683 298 683 317 l 683 276 q 680 250 683 255 q 716 121 680 121 q 801 52 801 92 q 779 18 801 32 l 731 18 q 713 41 726 18 q 672 18 704 41 q 591 -4 618 18 q 481 29 491 18 l 473 44 q 514 114 498 114 q 554 106 540 106 q 595 162 578 106 l 599 162 q 591 210 591 178 q 599 254 592 254 q 584 347 588 296 q 606 379 584 353 q 572 412 606 412 q 488 427 506 418 l 462 424 l 444 424 q 429 427 435 424 l 333 412 l 311 416 l 304 416 q 267 353 272 416 q 263 339 267 345 l 278 273 q 267 232 278 271 l 267 229 q 278 191 278 195 q 271 151 271 155 q 351 103 271 125 q 355 99 351 99 q 359 103 355 103 q 385 62 385 81 l 385 52 q 348 3 385 18 q 274 15 287 15 l 271 15 q 241 3 255 3 q 212 7 238 3 l 204 3 q 142 15 160 15 l 94 15 q 64 59 64 15 q 94 99 72 83 q 138 121 100 99 q 178 140 178 121 q 182 243 182 196 l 182 294 q 189 332 182 302 q 182 401 182 376 l 182 450 q 193 494 182 463 q 186 519 191 519 q 193 560 193 539 q 182 663 189 648 l 186 671 l 186 678 q 157 770 181 770 q 123 777 151 770 q 53 774 83 774 q 35 789 37 781 l 35 792 q 72 833 72 824 q 101 854 72 854 l 127 851 q 157 866 157 863 q 197 862 182 862 q 234 866 214 862 q 267 862 254 862 l 289 866 q 326 862 309 862 l 330 862 q 345 866 338 862 q 389 825 389 853 l 389 821 q 355 789 384 789 q 351 792 355 792 q 274 774 351 781 q 263 711 274 768 q 271 659 271 673 l 267 626 q 274 597 267 619 q 271 568 271 576 q 319 512 271 512 q 351 519 342 519 q 429 505 359 512 q 455 512 436 505 l 514 505 q 606 549 593 505 l 606 553 l 613 549 l 613 553 l 591 582 q 595 630 595 614 q 587 637 587 630 l 591 671 q 580 682 591 682 l 580 696 q 613 730 613 696 l 613 733 q 576 781 613 749 l 532 777 l 495 789 q 473 785 492 789 q 466 792 473 792 l 466 810 q 540 862 511 862 l 595 869 m 728 170 l 739 170 q 749 158 744 170 l 749 151 q 735 144 744 151 q 716 158 718 151 q 728 170 716 163 z "},"I":{"ha":684,"x_min":52,"x_max":648,"o":"m 184 874 q 317 867 239 867 l 332 867 q 372 870 347 867 q 446 856 394 865 q 505 859 499 859 q 538 852 532 852 l 564 863 q 637 823 637 849 q 648 774 646 823 q 618 767 635 767 q 578 771 611 767 l 523 756 q 471 760 492 760 l 442 760 q 387 738 387 760 l 387 730 q 394 693 394 696 q 391 649 391 655 q 394 620 394 623 q 387 579 387 593 q 394 535 394 547 q 387 498 387 512 q 423 432 387 432 q 431 414 431 420 q 394 343 422 343 l 391 336 l 391 310 q 401 299 391 305 q 423 307 416 307 q 435 299 423 299 l 435 281 q 442 251 435 264 q 438 240 438 244 l 427 240 q 401 288 414 288 q 391 277 396 288 l 391 270 q 397 240 391 267 l 397 237 q 391 196 397 232 q 397 148 397 163 l 397 122 l 401 115 q 394 108 394 114 l 397 108 l 397 111 q 420 104 410 104 q 482 126 439 116 q 612 82 549 115 q 641 52 641 77 l 641 37 q 623 4 641 24 q 626 1 626 4 q 615 -7 617 -7 l 608 -3 l 608 -7 q 612 -10 612 -7 l 608 -10 q 556 -3 595 -10 q 519 -14 537 -14 q 482 -3 517 -14 q 460 -14 460 -10 l 453 -10 l 394 -10 q 379 -14 386 -10 q 258 4 352 -4 q 221 -10 226 -10 q 184 4 199 4 q 125 -18 159 4 q 52 30 52 -18 l 52 41 q 77 89 52 63 q 99 115 77 115 l 140 104 q 243 122 189 115 l 280 115 q 291 126 280 120 q 287 166 287 159 q 302 222 294 212 l 294 222 l 294 233 l 291 255 q 302 340 298 271 q 309 355 309 340 q 283 414 287 395 q 298 454 298 445 l 298 458 l 291 484 q 317 708 298 576 l 317 720 q 280 749 317 742 q 184 782 243 782 q 136 760 148 760 l 132 760 q 85 767 99 767 q 81 764 81 767 l 66 771 l 81 852 q 184 874 100 874 m 420 509 l 423 509 q 435 465 423 492 l 423 458 l 420 458 q 409 469 417 458 q 420 509 412 509 m 442 203 q 460 170 454 203 q 453 159 456 159 q 435 185 435 164 l 435 193 l 442 203 z "},"J":{"ha":680,"x_min":37,"x_max":719,"o":"m 531 885 q 648 870 606 870 l 660 870 q 701 811 687 870 q 719 778 719 796 l 719 774 q 711 767 719 767 q 642 800 666 767 l 619 800 q 590 770 597 770 q 571 785 571 776 q 531 745 531 774 q 527 682 527 701 l 538 616 q 509 597 511 606 l 509 590 q 516 549 516 554 l 516 490 l 498 443 q 512 361 512 443 q 505 340 505 349 l 505 310 l 501 302 q 534 251 534 288 l 519 225 q 524 166 519 220 q 498 130 524 130 q 468 119 468 130 l 468 115 q 479 78 479 82 l 479 74 q 442 45 443 52 q 435 37 442 37 q 401 41 422 37 q 387 15 387 37 l 391 15 q 354 -11 378 -11 q 306 12 341 -11 l 280 8 q 221 22 235 22 q 199 12 218 12 q 170 56 177 56 l 151 56 q 129 41 129 43 q 74 81 77 72 q 37 196 37 150 l 37 273 l 44 273 q 41 277 44 277 q 103 358 41 313 l 129 358 q 221 281 179 358 q 214 248 221 275 q 221 225 221 232 l 214 222 q 210 225 214 225 q 155 177 155 191 l 155 174 q 247 81 155 137 l 280 81 q 413 155 360 81 q 435 196 424 155 l 424 266 q 431 340 431 315 l 427 358 q 431 372 431 371 q 420 534 427 471 q 427 664 424 547 q 420 693 427 675 q 424 726 424 713 l 424 741 q 291 785 424 768 l 247 782 q 236 814 236 795 l 236 826 q 269 863 242 863 q 298 859 273 863 q 328 867 328 861 l 336 863 l 339 863 q 406 881 353 863 q 501 870 414 875 q 531 885 524 885 z "},"K":{"ha":784,"x_min":35,"x_max":753,"o":"m 101 865 q 174 857 138 857 q 215 861 190 857 q 256 849 246 849 q 277 857 271 857 q 336 846 291 851 q 359 827 359 831 l 359 823 q 333 797 359 797 q 303 800 313 800 q 241 713 241 753 l 245 687 q 233 620 239 676 q 237 608 237 612 q 233 604 233 608 q 259 582 245 604 q 252 503 252 534 q 285 480 256 480 l 292 480 q 330 533 312 484 q 348 552 336 533 q 418 646 398 583 q 495 774 440 652 q 447 800 495 785 q 436 827 436 814 q 469 857 436 847 l 495 853 q 547 865 529 865 q 587 849 578 849 q 598 853 594 853 l 628 842 q 668 846 653 846 l 672 846 q 720 819 704 846 l 720 793 q 668 774 720 785 q 602 785 621 785 q 576 747 587 785 q 543 687 567 747 q 498 638 498 677 q 458 593 486 612 q 429 555 455 574 l 425 547 q 429 517 429 527 q 399 465 399 478 l 399 460 q 466 355 399 447 q 488 302 471 355 q 554 228 490 290 q 613 95 566 151 q 731 73 613 86 l 753 39 q 675 13 753 13 q 672 16 675 16 q 635 -3 672 7 q 587 16 596 16 l 580 16 l 554 13 q 551 16 554 16 q 510 1 551 5 q 436 28 441 20 q 433 43 433 34 l 433 50 q 462 81 433 55 q 498 73 469 81 q 524 95 515 73 q 498 148 524 105 q 477 201 486 168 q 429 292 429 227 q 385 336 420 307 q 348 374 374 374 l 322 374 q 292 295 302 374 q 256 220 256 237 q 259 189 256 216 q 252 159 252 176 l 252 155 q 315 87 252 100 q 362 35 354 87 q 307 5 362 7 l 289 5 q 233 16 269 5 l 222 16 q 156 1 164 1 q 145 5 149 5 q 64 8 138 5 q 45 43 45 29 q 130 84 45 71 q 171 163 171 106 q 178 201 178 163 q 167 284 178 221 q 171 326 171 309 l 171 382 l 167 405 q 178 499 174 419 q 167 559 167 546 q 174 653 167 592 l 171 691 l 174 718 q 119 785 174 785 q 38 808 38 791 l 35 815 q 101 865 35 844 z "},"L":{"ha":812,"x_min":30,"x_max":752,"o":"m 273 867 l 281 864 l 299 864 q 340 867 314 864 q 387 860 356 860 l 431 860 q 469 867 439 860 q 546 819 533 845 l 546 811 q 520 795 540 795 l 513 795 q 498 799 505 795 l 446 784 q 413 795 442 784 q 328 772 328 795 q 317 701 328 753 q 332 636 332 672 q 317 591 332 634 q 332 556 317 584 q 325 389 325 454 q 317 355 317 364 q 328 268 317 341 l 325 229 l 332 168 l 325 146 q 340 93 332 146 q 395 74 352 74 l 417 74 l 417 66 q 450 85 446 81 q 454 81 450 81 q 513 123 454 100 q 535 112 535 123 q 538 115 538 112 q 579 100 561 100 l 594 100 q 653 161 653 118 q 660 226 660 222 q 656 237 660 230 q 660 249 660 245 l 649 287 l 667 347 l 664 385 q 686 419 664 404 q 723 382 705 419 l 719 363 l 719 359 q 749 229 737 307 l 749 226 l 741 157 q 752 89 749 134 l 749 70 q 752 47 752 50 q 679 17 752 17 l 671 5 q 572 24 608 8 l 568 24 q 516 9 557 24 l 509 9 l 513 17 l 505 14 q 490 17 492 17 q 417 1 444 9 q 361 17 391 14 l 328 9 q 295 28 315 14 l 284 28 q 159 14 216 14 l 81 14 q 48 9 68 14 q 30 40 37 9 q 81 104 43 104 l 111 81 q 192 109 132 99 q 225 96 216 96 q 248 154 248 96 q 240 222 240 191 l 248 249 l 248 298 q 251 359 248 337 q 240 503 251 369 q 251 587 251 569 l 251 610 q 243 640 251 625 q 248 692 248 671 q 233 734 248 697 q 237 750 237 748 q 181 795 222 795 l 166 795 q 140 769 159 795 l 137 769 q 119 777 119 769 l 74 772 l 52 772 q 34 792 34 781 q 45 822 34 822 l 41 829 q 81 864 60 864 q 111 860 91 864 q 229 864 181 864 q 240 857 240 860 l 273 867 z "},"M":{"ha":846,"x_min":50,"x_max":780,"o":"m 596 865 l 614 861 l 688 861 q 777 819 747 861 q 707 759 777 789 l 707 728 q 695 683 707 719 l 695 649 q 688 603 695 629 q 703 562 703 573 q 695 531 695 537 l 699 512 l 695 489 q 703 436 703 458 q 695 383 703 404 q 707 319 701 362 q 703 247 703 282 l 703 239 q 725 171 725 187 q 772 94 758 151 l 780 41 q 762 7 780 18 l 758 7 q 728 15 755 7 l 710 15 q 603 1 669 1 q 551 22 603 14 q 545 45 545 35 q 603 99 545 79 q 622 174 607 128 l 622 186 q 618 239 622 207 q 629 269 629 258 l 629 277 q 614 326 629 287 q 629 368 629 361 q 610 417 610 414 q 636 528 630 432 q 640 562 640 530 q 629 614 629 597 l 640 645 q 618 713 629 669 q 603 717 612 717 q 551 660 551 671 q 555 584 555 609 l 559 584 q 530 531 558 570 q 504 349 530 456 q 478 269 487 321 q 430 247 454 247 l 404 247 q 353 338 372 247 q 356 342 356 338 q 330 433 345 342 q 297 550 297 509 l 301 550 q 271 642 297 578 q 279 671 279 655 l 279 690 q 250 728 279 707 q 235 759 235 754 l 216 759 q 201 728 208 759 q 231 698 201 719 l 231 686 q 209 633 216 664 l 212 614 q 209 554 209 559 q 216 524 216 540 l 216 478 q 227 402 224 451 l 224 395 l 227 368 q 220 288 220 303 q 231 254 231 268 q 224 152 224 165 q 257 87 244 104 l 264 91 q 286 27 286 91 q 271 7 279 9 l 264 7 q 250 12 256 7 q 161 -12 227 1 q 54 22 54 3 l 50 38 q 121 110 50 69 q 135 205 126 110 q 132 250 132 244 q 139 311 139 290 q 135 353 139 319 q 150 395 142 395 l 135 433 l 142 505 l 135 642 q 142 671 142 655 l 142 751 q 76 785 142 785 q 62 819 67 798 q 113 850 62 850 q 191 861 113 856 q 279 838 235 846 q 330 709 330 783 q 378 591 364 674 q 408 505 408 549 q 430 493 422 493 q 452 509 433 493 q 456 505 452 505 l 452 512 q 471 570 471 545 l 467 570 l 489 630 q 526 736 489 639 l 526 785 q 522 789 526 789 q 577 854 522 813 q 596 865 596 862 z "},"N":{"ha":782,"x_min":37,"x_max":770,"o":"m 515 863 q 604 852 557 863 q 641 859 634 855 l 732 837 q 770 829 749 829 l 759 774 q 729 763 738 763 q 663 767 694 767 q 629 708 637 740 q 655 671 633 694 l 655 663 q 633 631 633 645 q 652 560 652 590 q 637 472 637 532 l 641 465 q 626 428 626 439 q 644 328 644 341 l 644 284 q 637 236 644 269 q 641 181 641 199 l 637 166 q 648 100 648 135 q 644 89 648 96 q 648 74 648 82 l 648 66 q 633 41 633 50 l 633 12 q 556 -3 633 0 q 493 96 524 -3 q 486 115 486 108 q 490 118 490 115 q 464 181 479 118 q 427 262 448 200 q 431 266 431 262 q 412 299 416 270 l 416 321 q 387 365 416 328 q 353 431 387 383 q 323 505 353 457 q 272 605 323 529 q 254 634 272 627 q 228 516 232 583 q 239 483 239 489 q 235 395 235 416 l 246 295 q 239 266 239 271 q 243 262 243 266 q 239 258 239 262 q 258 229 258 249 q 239 151 247 216 q 335 104 256 104 q 368 59 368 81 l 368 48 q 302 4 368 4 q 264 -3 272 -3 l 254 -3 l 217 7 l 191 7 q 143 -7 175 7 q 37 26 37 7 l 37 45 q 77 115 50 115 q 117 100 109 100 l 121 100 q 161 148 131 101 l 158 174 l 158 189 q 165 251 158 201 q 161 262 161 258 q 165 266 165 262 q 151 310 159 266 q 158 461 158 444 q 151 505 156 505 q 158 534 158 528 l 151 597 q 154 652 154 644 q 117 770 147 770 q 43 819 43 777 q 40 829 40 819 l 40 837 q 66 848 57 848 l 73 844 q 132 859 73 854 l 176 859 q 261 837 250 842 q 309 760 309 787 q 353 663 336 689 q 420 531 380 644 l 416 524 q 431 468 425 524 q 441 446 437 467 q 438 442 438 446 q 460 384 451 442 q 456 380 456 384 l 460 380 q 464 384 460 384 q 530 302 507 302 l 534 302 q 552 339 552 311 q 545 369 552 351 q 549 428 549 406 l 549 439 q 545 472 549 452 q 549 483 549 479 q 541 560 543 558 q 545 572 545 568 q 541 642 545 601 q 545 711 545 682 q 511 763 545 763 l 505 763 l 482 760 q 441 770 451 770 l 408 767 q 401 785 401 779 q 412 844 408 793 l 434 855 q 464 852 454 852 l 515 863 z "},"O":{"ha":734,"x_min":64,"x_max":694,"o":"m 404 884 q 503 850 503 870 q 576 801 520 850 q 621 745 597 800 q 617 741 617 745 q 646 699 625 741 q 658 688 652 699 q 654 685 654 688 q 680 625 664 685 q 687 613 684 625 q 694 418 687 591 l 690 392 q 694 358 694 372 q 684 306 694 351 l 690 275 l 665 231 q 628 140 665 168 q 584 81 628 118 q 517 31 543 31 l 492 31 q 422 -17 453 11 q 418 -14 422 -14 l 418 -17 q 422 -21 422 -17 l 418 -21 q 389 -6 405 -21 l 340 -6 q 311 5 313 -6 l 304 2 l 281 2 q 230 17 269 12 l 178 65 q 138 118 138 85 q 86 216 86 190 q 75 287 75 274 l 75 306 q 79 395 75 343 l 64 422 l 64 437 q 72 467 64 440 q 68 505 72 471 q 75 534 75 518 l 75 591 q 112 669 89 609 l 109 688 q 138 715 122 715 q 134 719 138 719 q 189 793 134 724 q 197 805 189 805 l 193 812 q 234 827 203 821 q 337 865 234 854 l 337 861 l 404 884 m 123 565 l 123 542 q 112 515 112 525 l 116 490 l 112 452 l 123 433 l 123 429 q 112 392 123 425 q 145 290 136 352 q 168 231 162 286 q 201 174 180 223 q 256 125 216 174 q 315 84 279 125 l 399 65 q 503 122 469 83 q 562 201 544 145 l 576 216 q 580 212 576 212 q 576 222 576 219 q 587 253 587 242 l 587 279 q 610 313 610 307 q 613 324 613 320 q 610 366 610 350 q 628 433 610 380 q 591 580 616 543 l 587 580 l 591 617 l 591 640 q 562 703 591 646 q 566 707 566 703 l 562 707 q 558 703 562 703 q 492 771 529 771 q 404 798 469 780 q 389 812 404 803 l 337 812 q 260 767 297 812 q 182 677 229 762 q 123 565 149 677 m 576 538 l 580 531 q 573 523 580 523 l 569 523 l 569 531 q 576 538 570 538 z "},"P":{"ha":776,"x_min":35,"x_max":731,"o":"m 355 907 l 359 907 q 366 899 366 905 l 366 884 q 351 880 353 880 l 348 888 l 348 899 q 355 907 349 907 m 186 854 l 208 850 q 233 854 219 850 q 281 850 258 850 l 304 854 q 385 847 318 850 l 510 854 q 646 787 567 854 q 680 753 646 773 q 731 566 728 616 q 728 532 728 546 l 728 458 q 687 435 720 446 q 602 393 658 393 l 587 353 q 576 345 587 349 q 503 372 544 372 q 481 382 503 375 q 429 356 441 356 l 425 356 q 370 382 414 356 l 363 382 q 326 338 353 382 l 322 338 q 340 262 340 290 q 326 165 330 244 q 359 128 326 155 l 374 128 l 392 142 l 425 142 q 429 146 429 142 q 510 110 476 119 q 539 76 517 109 q 492 4 539 20 l 458 8 q 433 1 451 8 l 396 31 l 392 31 q 296 4 372 12 q 248 20 264 20 l 233 20 q 175 -3 209 20 l 171 -3 q 142 20 156 -3 q 104 38 104 20 q 90 42 98 42 l 79 42 q 57 20 79 26 q 35 38 41 25 l 35 42 q 86 102 35 85 q 175 113 96 109 q 186 124 175 119 q 219 121 205 121 q 237 199 229 121 q 230 334 230 274 q 237 372 230 349 q 233 450 233 420 l 233 458 q 237 547 233 494 q 230 589 230 562 l 230 607 q 237 716 230 665 q 212 772 230 772 l 204 772 l 168 761 q 79 776 155 768 l 64 776 q 60 772 60 776 q 35 794 47 772 l 35 802 q 50 847 35 812 q 104 844 86 844 l 112 844 q 186 854 159 844 m 289 753 l 292 753 q 286 731 286 738 q 307 656 286 717 l 307 614 q 296 517 299 581 q 340 446 304 446 q 381 439 376 439 q 410 442 385 439 q 451 439 443 439 q 547 479 477 439 q 598 532 584 479 q 639 663 628 541 l 639 667 q 591 724 600 723 l 569 720 q 503 761 523 761 l 488 761 q 451 753 458 753 l 448 753 q 333 779 431 779 l 326 783 q 289 753 312 783 z "},"Q":{"ha":777,"x_min":64,"x_max":728,"o":"m 345 884 l 352 880 l 451 880 q 569 831 547 865 q 606 804 606 812 q 602 800 602 804 l 610 804 q 684 682 660 774 q 709 583 697 650 q 713 576 713 583 q 709 461 709 494 q 724 427 724 438 q 713 396 713 406 l 717 380 q 694 324 709 343 l 702 294 q 665 206 665 212 l 669 186 q 646 145 669 178 q 602 107 641 127 q 547 50 602 102 l 543 31 l 543 5 q 581 -37 551 -37 q 632 8 599 -37 q 643 12 635 8 q 728 -34 728 -9 q 694 -98 728 -59 q 654 -148 683 -102 q 617 -159 640 -155 q 606 -156 610 -156 q 562 -163 596 -156 q 463 -117 463 -145 q 429 -26 444 -106 q 345 1 396 1 q 241 38 271 24 q 197 69 223 60 q 178 99 180 89 q 182 103 182 99 l 178 103 q 175 99 178 99 q 116 168 175 107 q 72 366 86 203 q 68 385 68 366 l 75 380 l 72 389 l 75 408 q 72 412 72 408 q 75 415 75 412 q 64 435 64 415 q 72 469 72 459 l 72 518 q 98 602 72 569 l 94 621 l 123 709 q 160 758 146 709 q 208 834 183 770 q 345 880 285 880 l 345 884 m 171 552 l 175 507 l 175 503 q 160 427 175 480 q 190 256 185 330 q 219 195 208 205 l 222 195 q 275 233 238 195 q 340 263 275 248 q 503 191 503 221 l 499 183 l 503 183 l 503 186 q 525 180 515 180 q 581 248 546 180 q 599 335 599 322 l 606 332 l 602 340 l 613 393 q 606 431 606 425 q 617 503 610 492 q 581 659 599 551 q 540 701 581 663 q 484 784 508 756 q 481 781 481 784 q 399 807 466 781 q 330 781 332 781 q 289 743 311 781 q 208 640 252 712 q 178 564 208 564 q 171 552 175 552 m 340 115 l 340 107 q 352 96 340 101 l 355 96 q 411 126 391 96 l 411 130 q 385 180 411 180 q 340 115 358 180 z "},"R":{"ha":762,"x_min":30,"x_max":767,"o":"m 442 874 q 498 844 492 844 q 509 848 505 848 q 634 712 599 772 q 631 709 631 712 l 634 709 q 637 712 634 712 q 663 652 663 674 q 634 611 649 618 q 631 615 634 615 l 634 607 l 623 592 l 623 578 q 645 540 623 562 l 645 532 l 623 532 q 549 465 559 504 q 524 419 524 431 q 568 333 548 360 q 601 284 570 311 q 604 273 601 280 l 593 246 q 623 138 601 138 q 719 107 662 107 q 767 36 753 91 l 767 18 q 755 6 767 12 l 745 6 q 686 2 724 6 l 649 21 q 572 14 635 21 q 513 119 513 49 q 498 198 501 139 q 483 262 493 198 q 465 352 475 262 q 406 412 427 412 q 336 385 355 385 q 258 321 283 385 q 233 250 258 278 l 233 239 q 236 220 233 227 l 229 179 q 310 96 250 96 q 357 66 345 96 q 354 62 354 66 l 357 62 q 361 66 357 66 l 361 55 q 332 6 361 41 q 321 -9 332 -9 l 313 -9 l 284 25 l 280 25 q 251 18 277 25 l 225 21 q 195 10 207 10 l 192 10 l 144 25 q 52 6 60 6 q 30 40 30 31 q 52 100 43 100 l 107 100 q 166 164 160 100 l 166 179 q 125 266 166 231 l 125 269 q 151 326 125 277 l 151 333 l 130 378 l 162 419 l 162 427 l 159 460 q 174 585 159 486 q 170 623 170 604 l 170 652 q 166 656 170 656 l 170 664 q 166 720 170 673 q 170 743 170 740 q 130 780 159 780 q 89 791 117 780 q 74 788 82 788 q 48 825 48 799 q 66 859 48 859 q 130 844 83 859 q 266 859 165 844 q 306 855 286 855 q 328 870 306 862 l 336 867 l 365 867 q 369 870 369 867 q 413 863 372 867 q 442 874 442 869 m 229 739 l 233 717 q 225 675 225 701 l 225 645 q 221 566 225 615 q 251 513 233 513 l 262 513 q 310 528 305 528 l 325 525 l 383 536 q 402 521 400 528 q 398 517 398 521 l 406 521 q 439 506 428 506 q 498 532 461 506 q 501 528 498 528 l 501 532 q 498 536 498 532 q 538 600 532 536 q 527 626 538 612 l 527 652 q 546 701 527 667 l 546 705 q 513 758 534 758 q 490 769 493 758 q 494 772 494 769 l 487 769 q 439 788 481 776 q 424 795 439 792 q 365 783 409 788 q 325 803 334 803 q 229 750 229 776 l 229 739 z "},"S":{"ha":701,"x_min":70,"x_max":652,"o":"m 306 876 q 372 872 328 876 q 401 876 393 876 q 534 842 441 876 l 542 842 q 578 876 570 876 q 623 833 623 852 q 604 699 623 778 q 627 611 616 699 q 597 572 621 585 l 582 572 l 586 580 l 578 576 l 575 576 l 578 584 l 571 580 q 523 711 547 580 q 446 783 511 748 q 427 791 446 791 l 416 791 q 401 788 408 791 q 313 810 354 810 q 206 737 279 810 q 184 665 196 720 q 232 561 184 599 q 283 526 262 548 q 280 522 280 526 l 288 526 q 494 480 428 507 q 575 434 517 464 q 615 364 593 417 q 652 292 633 344 l 648 276 q 652 211 652 231 q 601 115 627 141 q 582 77 582 83 l 575 80 l 575 77 l 578 77 q 519 42 578 54 q 387 -1 519 14 q 342 11 370 -1 q 283 7 305 7 l 262 7 q 184 50 254 7 q 170 53 178 53 l 159 53 l 125 11 l 118 15 l 118 7 l 106 7 q 70 37 70 7 l 74 83 q 70 126 70 118 q 85 230 70 145 q 77 264 77 255 l 77 273 q 88 299 77 299 l 85 307 q 103 314 97 314 q 144 269 144 302 q 173 222 144 252 q 283 130 216 130 l 288 130 q 317 138 313 138 q 342 123 323 123 q 479 172 399 123 q 494 184 479 178 q 497 180 494 180 l 494 188 q 530 241 519 213 l 527 241 q 534 284 534 262 l 530 299 q 538 322 538 315 q 416 422 538 370 l 361 410 q 302 441 312 441 l 262 441 q 232 465 232 456 q 229 460 229 465 q 144 549 207 460 q 147 553 147 549 q 114 653 125 553 q 173 807 114 696 q 306 876 256 876 z "},"T":{"ha":744,"x_min":60,"x_max":694,"o":"m 517 880 l 528 880 q 535 872 535 878 q 531 868 531 872 q 535 872 535 868 q 661 808 632 872 q 682 785 682 798 q 664 747 664 761 q 679 689 664 734 q 668 648 668 664 l 679 610 q 671 587 679 587 l 679 507 q 620 454 679 481 q 572 515 583 454 q 579 549 576 522 q 572 575 576 575 l 579 633 q 524 762 579 711 q 461 792 509 792 l 458 792 q 395 720 430 792 q 402 694 395 712 q 399 648 399 666 l 414 553 q 417 515 414 528 q 410 484 410 500 l 410 397 q 406 351 410 371 q 410 306 410 332 l 410 275 q 420 233 410 254 l 417 225 q 446 131 417 131 l 458 131 l 479 134 q 528 111 528 121 l 535 115 l 546 115 q 694 28 606 115 l 694 20 q 646 -6 670 -3 l 635 -6 q 594 13 623 -6 l 597 20 q 561 13 589 17 q 538 20 549 20 l 535 20 q 517 -3 521 -3 l 513 -3 q 505 5 505 -3 l 505 28 q 491 36 500 28 q 450 1 471 1 q 376 13 422 9 q 329 9 353 9 l 307 9 q 262 20 294 9 q 211 1 230 1 l 207 1 q 167 20 200 1 q 137 5 144 5 q 111 32 127 5 l 111 58 q 155 97 111 97 q 233 104 201 104 l 237 104 q 288 100 257 104 q 321 150 307 100 q 307 184 321 159 q 314 233 314 218 l 314 245 q 310 249 314 249 l 314 256 l 314 267 q 317 359 314 305 l 314 366 l 321 393 q 317 446 317 425 l 317 500 q 325 561 325 555 q 317 614 317 600 l 317 633 q 332 686 317 645 q 288 785 315 785 q 273 789 281 789 q 218 766 256 789 q 134 667 144 766 q 152 553 152 605 q 122 450 152 526 l 115 446 l 100 446 q 63 477 63 446 q 71 500 71 489 q 60 545 71 517 q 67 610 67 594 q 60 640 64 640 q 71 686 71 673 q 67 701 71 694 q 111 842 79 842 q 152 868 111 857 q 181 861 171 861 q 207 868 189 861 q 244 864 239 864 q 317 868 298 868 q 351 861 342 861 l 366 861 q 410 872 375 861 l 432 861 q 476 868 457 868 q 487 864 480 868 q 517 880 503 870 m 469 252 l 476 252 q 484 245 484 252 l 484 237 q 473 225 484 234 q 458 230 466 230 l 458 241 q 469 252 458 246 m 476 199 l 479 199 q 487 192 479 192 l 487 184 q 476 172 487 178 q 461 180 467 180 l 461 184 q 476 199 461 190 z "},"U":{"ha":785,"x_min":43,"x_max":783,"o":"m 529 866 q 573 859 554 859 l 584 859 q 661 862 614 859 q 735 851 672 854 q 783 787 783 806 q 768 768 783 782 q 724 783 732 783 l 713 783 q 699 734 713 767 l 691 738 q 694 734 691 734 l 691 711 q 694 633 691 690 q 680 606 688 614 l 661 610 l 647 610 l 647 606 q 676 572 647 590 q 684 531 684 553 l 665 531 q 661 535 661 531 q 643 501 643 535 q 650 494 650 500 q 673 501 665 501 l 676 494 l 676 482 q 673 429 676 462 q 694 374 694 382 l 694 369 q 669 321 694 345 q 647 256 647 272 q 650 178 650 199 q 643 148 650 166 q 661 106 661 116 l 661 87 q 595 27 661 56 q 540 1 590 16 q 522 -10 540 -5 q 470 -7 490 -7 l 448 -10 q 411 -3 431 -3 q 359 -18 373 -18 l 337 -18 q 260 31 260 1 q 201 57 253 40 q 175 114 175 74 q 157 219 157 151 q 160 230 160 227 q 157 264 160 250 l 164 490 q 160 557 160 505 l 160 562 q 149 599 160 566 q 164 659 164 646 q 153 745 157 686 q 101 768 134 766 l 83 764 q 43 798 49 777 q 90 859 43 833 l 109 854 l 113 854 q 157 862 157 854 q 337 847 248 851 l 337 840 l 345 843 q 381 806 363 834 l 381 794 q 359 775 381 789 q 319 779 334 779 q 252 738 295 751 l 249 720 l 249 715 l 252 693 q 245 667 245 677 l 249 640 q 245 629 249 636 q 249 588 249 595 q 241 445 249 537 q 249 399 249 418 q 241 366 241 376 l 252 324 l 249 290 q 252 279 252 283 l 278 279 l 275 272 l 282 276 l 286 276 l 286 264 q 264 253 282 253 l 252 253 l 249 238 q 278 174 249 201 q 315 111 282 174 q 359 87 359 92 q 370 91 366 91 q 426 61 379 91 l 433 61 q 444 64 440 64 l 444 87 q 422 103 429 87 l 422 106 q 466 132 422 120 q 492 111 471 132 l 496 111 q 525 132 512 111 q 570 208 570 159 q 566 283 570 232 q 576 336 576 321 q 566 366 571 366 q 573 429 573 395 l 573 463 q 570 542 573 494 q 581 572 581 562 q 570 663 573 608 q 573 693 573 677 q 517 749 573 749 q 485 787 507 749 q 444 840 444 787 q 529 866 463 848 m 687 219 q 702 200 697 218 q 691 182 697 182 l 687 182 q 676 204 676 185 q 687 219 682 219 z "},"V":{"ha":692,"x_min":3,"x_max":714,"o":"m 486 876 q 526 869 492 876 q 618 873 597 873 q 667 865 652 865 l 688 865 q 714 839 704 858 l 707 809 q 711 798 711 802 q 696 779 703 780 l 688 779 q 648 786 684 779 q 608 760 608 786 q 611 749 608 755 l 608 734 l 611 700 q 574 673 611 688 q 559 640 559 650 l 559 587 q 541 500 541 520 l 545 474 l 508 429 q 479 342 508 382 q 482 312 479 332 q 453 195 482 309 q 475 127 464 168 q 456 75 465 112 q 412 -8 412 41 l 405 -12 l 375 -12 q 290 72 290 4 q 294 94 290 75 q 269 184 269 125 q 250 263 269 203 q 243 304 250 281 l 246 338 q 243 350 243 346 q 246 353 246 350 l 243 353 q 239 350 243 350 q 202 455 215 382 q 187 553 191 510 q 154 662 174 567 l 158 688 q 132 741 158 705 q 55 789 132 789 q 3 839 3 829 l 14 854 l 40 850 l 43 850 q 136 865 113 865 q 210 854 195 861 l 239 862 q 302 828 298 862 l 302 823 q 258 789 302 820 l 217 789 q 206 775 212 789 l 210 755 q 206 752 206 755 l 210 752 q 213 755 210 755 q 250 632 213 713 q 243 590 245 599 q 294 481 281 535 q 290 440 290 456 q 309 353 301 424 q 361 290 335 290 l 364 290 q 401 353 393 290 q 464 568 446 455 q 453 594 455 568 q 482 696 482 618 q 493 711 490 711 q 449 789 481 789 q 401 816 449 796 l 397 836 q 427 865 401 865 l 486 876 z "},"W":{"ha":770,"x_min":43,"x_max":751,"o":"m 673 882 q 751 821 751 865 q 699 783 751 802 q 673 682 673 713 l 677 644 l 651 549 q 654 519 651 546 q 629 357 642 519 q 618 281 621 357 q 603 262 609 262 l 607 254 l 607 231 q 581 70 581 130 q 555 9 568 61 q 515 1 529 1 q 452 118 454 12 q 441 172 447 118 l 445 205 q 430 311 433 241 q 408 379 422 326 q 382 399 386 399 q 356 304 356 378 q 323 164 337 272 q 297 32 309 145 q 260 -2 275 -2 q 198 81 198 16 q 176 210 198 132 q 157 270 176 251 l 161 296 l 161 391 l 150 444 l 153 470 q 127 519 153 479 q 124 530 127 523 q 127 565 127 551 l 127 576 q 113 629 113 618 l 113 632 q 120 663 113 636 q 76 795 94 795 q 43 829 71 795 l 43 844 q 146 866 43 863 q 153 871 146 871 q 191 852 178 871 l 191 844 l 172 772 q 220 473 186 501 l 220 466 q 209 432 209 446 q 242 326 235 391 l 250 323 l 260 323 q 301 463 275 323 q 319 549 315 497 q 374 682 346 663 q 382 686 382 682 q 445 617 417 686 q 467 496 445 549 q 463 492 463 496 l 471 492 l 471 481 q 507 353 483 353 q 511 349 507 349 l 518 349 q 555 512 536 349 q 581 636 564 512 q 603 708 587 636 l 603 761 q 566 810 603 779 q 551 840 551 831 q 592 878 567 878 q 647 874 638 874 q 673 882 673 874 m 374 455 l 374 444 l 378 425 l 382 425 q 400 451 400 436 q 397 463 397 458 l 382 463 q 374 455 374 461 z "},"X":{"ha":779,"x_min":13,"x_max":757,"o":"m 116 866 l 119 866 q 157 848 130 858 q 249 859 222 851 l 281 840 q 311 843 302 843 q 333 814 333 836 l 333 806 q 278 777 278 782 l 278 749 q 363 596 322 694 q 414 570 391 570 q 466 656 444 570 q 484 675 481 675 q 488 671 484 671 l 488 675 q 484 678 484 675 q 525 761 492 681 q 528 777 528 761 q 477 814 528 802 l 470 829 q 484 848 477 845 l 488 848 q 525 836 496 848 q 602 855 578 839 q 746 817 746 835 l 746 814 q 661 787 746 798 q 632 795 635 795 l 617 795 l 617 787 l 610 791 l 613 783 q 566 701 610 755 q 528 644 562 671 l 528 611 q 470 544 509 576 q 455 503 470 503 l 458 495 l 448 438 q 455 420 455 427 q 451 416 451 420 l 455 416 q 458 420 455 420 q 510 319 487 399 q 547 259 529 279 q 543 254 543 259 q 576 187 563 254 q 613 131 598 176 q 720 101 651 101 q 757 45 747 81 q 731 15 748 19 q 691 30 709 30 q 665 0 685 30 l 650 0 l 599 11 q 558 3 565 3 q 517 22 517 9 l 517 26 l 522 34 q 517 30 517 34 l 499 34 l 492 30 q 488 34 492 34 q 463 3 488 18 q 404 52 444 3 l 404 60 q 473 105 448 105 q 492 150 492 105 l 492 184 q 463 221 492 214 q 440 296 440 252 q 414 330 418 330 l 407 330 q 345 288 374 326 q 322 247 322 260 l 322 202 q 278 172 322 195 l 271 127 q 315 90 285 90 q 337 48 330 75 q 315 26 334 36 l 289 30 l 271 26 q 241 30 250 30 q 175 3 205 30 l 168 3 q 131 11 138 11 l 109 7 q 28 34 78 26 q 13 56 13 45 q 79 109 13 109 q 160 154 79 130 q 186 195 186 189 q 216 243 192 218 q 252 288 216 260 q 300 367 266 319 q 348 427 300 389 q 352 442 352 434 l 352 458 q 311 589 326 520 q 275 656 279 625 q 252 731 266 669 q 212 783 212 749 q 119 806 204 795 q 105 836 105 822 l 105 855 q 116 866 105 860 z "},"Y":{"ha":719,"x_min":29,"x_max":733,"o":"m 199 866 q 224 851 224 854 l 261 855 l 287 855 q 335 818 323 855 q 279 755 335 801 q 272 733 272 743 q 313 667 294 667 q 335 604 313 616 q 357 560 345 604 q 372 553 366 553 l 368 545 q 420 589 397 545 q 460 648 443 589 q 497 737 477 656 q 427 804 480 770 q 423 818 423 810 l 423 822 q 493 863 423 832 q 534 855 498 863 q 626 866 564 863 q 648 859 638 859 l 670 859 q 674 863 674 859 q 733 810 733 863 q 692 770 733 787 q 681 759 692 765 q 659 763 678 759 q 585 700 621 763 q 564 652 581 700 q 545 619 545 640 l 549 612 q 523 578 543 594 q 475 501 511 532 q 423 372 475 443 l 423 368 q 431 265 431 326 l 431 254 q 434 251 431 251 q 423 188 431 245 q 441 159 423 170 l 460 159 q 508 121 471 121 q 541 133 541 128 l 559 129 l 589 129 q 629 62 629 98 q 597 30 629 54 q 564 0 597 5 l 549 0 l 505 7 q 434 4 475 7 q 368 26 378 4 q 353 30 361 30 q 331 15 350 30 l 294 15 q 261 30 277 30 q 224 -3 246 -3 l 217 -3 q 158 18 201 11 l 151 33 q 202 111 166 111 l 206 111 q 287 103 222 111 q 331 140 331 119 q 342 173 336 173 q 338 247 338 223 l 338 291 q 342 361 338 321 q 335 380 335 373 q 338 383 338 380 l 335 383 q 331 380 335 380 q 320 442 325 387 q 272 512 272 490 q 243 604 248 559 q 191 660 199 660 l 191 686 q 147 755 191 711 l 140 752 q 81 766 102 766 l 66 763 q 29 800 29 772 q 58 855 29 855 q 92 840 85 840 q 199 866 102 840 m 364 792 l 368 792 q 375 785 375 791 l 375 781 q 368 774 375 774 l 364 774 q 357 781 357 774 l 357 785 q 364 792 358 792 m 464 218 l 467 218 q 475 210 475 216 l 475 206 q 467 199 475 199 q 456 210 463 199 q 464 218 458 218 m 677 62 l 688 62 l 688 52 l 677 52 l 677 62 z "},"Z":{"ha":687,"x_min":50,"x_max":618,"o":"m 212 863 q 238 859 233 863 q 290 863 269 863 l 338 863 q 408 859 372 863 q 437 863 428 863 q 507 859 496 859 l 559 863 q 603 817 603 846 q 559 753 603 753 q 536 692 549 711 q 515 647 526 692 q 485 602 498 642 q 422 549 449 562 q 382 480 422 520 q 352 401 362 452 q 282 310 310 401 q 241 245 241 275 q 190 166 213 210 q 172 136 172 157 l 172 121 q 267 95 172 106 q 378 113 297 95 q 415 106 401 106 q 500 148 497 111 q 536 317 511 212 q 573 374 536 374 l 592 374 q 618 333 618 356 q 610 275 610 286 q 614 231 614 237 q 600 72 603 155 q 500 22 584 22 q 477 15 500 15 q 418 19 472 15 l 411 15 q 382 22 398 22 l 371 22 l 363 19 q 359 22 363 22 l 359 19 q 363 15 363 19 q 352 11 359 15 l 338 19 q 235 3 235 14 q 209 22 231 3 q 168 15 173 15 q 58 37 89 27 q 50 98 50 71 q 113 193 71 140 q 172 288 136 220 q 205 344 195 311 q 282 462 269 406 q 341 533 309 462 q 374 575 374 565 q 389 590 380 590 q 385 594 389 594 q 433 669 401 654 q 481 745 481 709 l 500 771 l 500 787 q 492 794 500 794 q 467 783 483 794 l 456 783 q 397 810 438 783 l 393 810 q 359 798 384 810 q 308 802 328 802 l 304 802 q 267 790 296 802 q 235 794 248 794 l 220 794 q 186 715 186 794 q 157 665 164 699 q 164 628 161 659 q 131 590 163 618 l 131 578 q 135 564 131 570 q 120 541 127 541 q 94 635 105 541 q 91 647 91 635 q 113 836 105 739 q 212 863 113 853 z "},"[":{"ha":380,"x_min":82,"x_max":368,"o":"m 211 -94 q 218 -96 216 -96 q 233 -91 222 -96 q 249 -90 246 -90 l 252 -90 q 266 -84 260 -90 q 274 -90 281 -90 l 309 -90 l 317 -87 q 332 -92 317 -90 q 366 -146 357 -92 q 354 -186 361 -172 q 320 -193 331 -188 l 317 -193 q 307 -183 309 -183 q 277 -190 282 -190 q 264 -186 266 -186 q 231 -199 248 -193 l 218 -199 q 200 -205 207 -199 q 178 -190 189 -199 l 133 -193 q 130 -195 132 -193 q 117 -191 123 -195 q 106 -186 112 -189 q 109 -183 106 -183 l 109 -181 l 105 -183 l 104 -183 q 100 -171 104 -178 q 102 -164 100 -168 l 98 -165 q 94 -151 98 -161 l 94 -140 q 100 -122 96 -129 l 97 -95 q 101 -69 101 -80 q 94 -36 101 -63 q 111 40 94 -5 q 82 57 100 46 l 82 65 q 112 109 82 75 q 113 125 112 120 q 94 194 102 150 l 94 197 q 102 210 95 203 q 97 239 100 223 q 104 269 97 242 q 93 342 104 294 q 97 347 97 342 q 93 349 93 347 l 97 349 l 93 357 l 93 365 q 97 409 93 397 q 93 465 93 441 q 103 747 93 495 q 114 836 111 747 l 111 844 q 114 858 114 850 l 114 865 q 103 899 114 873 q 114 936 111 936 q 107 958 107 948 l 107 962 q 182 1006 107 991 l 182 1002 q 186 1006 186 1002 q 227 995 219 1003 l 230 994 q 243 999 234 994 q 259 994 256 994 l 262 994 q 275 999 269 994 q 302 994 290 994 l 314 994 l 321 997 q 335 991 321 993 q 368 951 359 991 q 357 905 363 917 q 325 897 335 902 l 321 897 q 312 907 313 907 q 285 900 289 900 q 293 905 294 905 q 242 903 258 910 l 230 903 q 220 902 224 903 l 208 850 l 218 810 l 215 784 l 222 769 l 218 769 l 222 762 l 216 490 q 197 461 200 472 q 216 420 201 450 q 191 324 216 368 l 191 306 q 209 254 191 298 q 201 220 201 226 q 209 197 209 205 q 186 142 186 169 q 205 113 188 136 l 205 109 q 201 76 205 95 q 205 57 205 69 q 193 46 199 51 q 216 -77 216 -47 q 211 -94 213 -87 z "},"\\":{"ha":386,"x_min":-21,"x_max":404,"o":"m 4 918 q 35 909 16 918 q 66 861 58 866 q 85 813 66 830 l 83 802 l 80 795 q 90 772 89 795 q 110 704 98 704 q 136 635 123 650 l 132 630 l 139 633 q 163 584 138 628 q 189 556 190 566 l 184 538 q 224 453 179 480 q 239 393 223 435 q 250 344 254 393 q 270 315 270 319 l 300 258 q 288 233 297 258 l 291 233 q 317 201 303 202 q 331 138 332 155 q 368 93 330 123 q 404 -39 390 38 q 376 -65 402 -64 l 367 -71 q 345 -1 357 -71 q 307 32 306 28 q 311 41 307 35 q 307 66 307 62 l 269 170 l 254 189 q 216 298 241 246 q 220 301 219 298 q 212 318 210 301 q 180 398 178 366 q 154 464 163 430 q 125 535 125 499 q 96 598 106 572 q 76 664 75 650 q 50 730 59 694 q 22 764 20 748 q 16 798 23 783 l -17 823 l -16 829 q -8 849 -14 849 q 9 913 -21 899 q 13 909 13 913 q 36 918 25 918 l 4 918 z "},"]":{"ha":412,"x_min":26,"x_max":312,"o":"m 183 -79 q 178 -62 181 -73 q 201 58 178 -34 q 189 69 195 63 q 193 87 189 81 q 189 120 189 106 l 189 124 q 208 153 206 147 q 185 208 208 179 q 193 230 185 215 q 185 263 193 235 q 203 314 203 307 l 203 332 q 178 427 178 376 q 197 467 193 456 q 178 496 194 478 l 172 764 l 176 771 l 172 771 l 179 786 l 176 812 l 186 851 l 174 895 q 164 896 170 896 l 152 896 q 101 898 136 903 q 109 893 100 898 q 82 900 105 893 q 73 890 81 900 l 69 890 q 37 898 59 895 q 26 950 31 910 q 59 990 35 990 q 73 996 73 991 l 80 993 l 92 993 q 119 998 104 993 q 132 993 125 993 l 135 993 q 151 998 138 993 q 164 993 160 993 l 167 994 q 208 1005 175 1002 q 212 1001 208 1001 l 212 1005 q 287 975 287 1004 l 287 970 q 280 949 287 961 q 291 899 283 949 q 280 866 280 874 l 280 859 q 283 844 280 850 l 280 838 q 291 749 283 749 q 301 471 301 501 q 297 416 301 448 q 301 372 301 404 l 301 365 l 297 357 l 301 357 q 297 355 301 355 q 301 350 297 350 q 290 277 290 303 q 297 248 297 252 q 292 219 294 233 q 300 208 299 214 l 300 204 q 281 136 292 161 q 282 120 282 131 q 312 77 312 86 l 312 69 q 283 52 294 58 q 300 -22 300 7 q 293 -56 293 -50 q 297 -81 293 -66 l 294 -108 q 300 -125 298 -115 l 300 -136 q 296 -151 296 -146 l 292 -149 q 294 -156 294 -153 q 290 -168 290 -163 l 289 -168 l 286 -165 l 286 -168 q 288 -170 288 -168 q 277 -175 282 -174 q 264 -179 271 -179 q 261 -177 262 -178 l 216 -174 q 194 -189 205 -184 q 176 -184 187 -184 l 163 -184 q 130 -170 146 -177 q 117 -174 128 -170 q 87 -168 112 -174 q 77 -177 85 -168 l 74 -177 q 40 -170 63 -172 q 28 -132 33 -157 q 62 -77 37 -77 q 77 -73 77 -76 l 85 -75 l 120 -75 q 128 -70 113 -75 q 142 -75 134 -75 l 145 -75 q 161 -77 148 -75 q 176 -81 172 -81 q 183 -79 178 -81 z "},"^":{"ha":688,"x_min":142,"x_max":603,"o":"m 374 996 l 385 996 q 430 878 411 947 q 477 812 477 844 q 500 734 477 776 l 500 731 l 496 698 q 547 621 498 685 q 595 499 547 553 l 603 484 q 551 433 598 433 l 547 433 q 544 444 544 439 l 522 444 q 500 473 500 444 q 488 499 494 473 l 492 507 q 456 631 470 549 q 418 702 433 659 q 397 728 403 711 q 400 768 400 760 q 382 849 385 813 q 374 860 374 849 l 349 860 q 294 694 349 842 q 267 643 294 653 q 235 507 235 564 q 238 495 238 499 l 227 477 l 227 451 q 205 440 217 451 q 157 466 157 440 q 142 495 152 466 l 161 551 l 164 551 q 161 554 164 554 q 176 580 176 575 l 183 576 l 183 580 l 179 580 q 205 694 197 601 q 245 798 217 713 q 294 941 294 901 q 338 985 294 959 q 374 996 357 996 z "},"_":{"ha":665,"x_min":-18,"x_max":688,"o":"m 383 -18 l 401 -18 q 519 -27 443 -24 q 581 -20 565 -20 q 673 -40 673 -20 q 688 -101 686 -40 q 641 -146 669 -146 q 568 -123 624 -132 l 562 -123 q 523 -146 546 -123 l 514 -146 q 481 -133 493 -133 l 469 -133 q 396 -139 430 -133 q 383 -127 396 -134 l 368 -127 l 357 -133 l 348 -133 q 319 -121 331 -121 l 290 -123 q 281 -121 285 -121 q 259 -133 259 -131 q 199 -121 229 -121 l 192 -121 l 192 -123 l 195 -146 l 192 -146 q 163 -127 180 -127 l 157 -130 q 90 -117 113 -117 q 45 -146 66 -117 q 39 -139 39 -146 q 42 -130 42 -134 q 26 -117 39 -117 q 4 -143 20 -117 l -3 -143 q -18 -88 -9 -143 q 14 -27 -18 -27 q 42 -20 27 -27 q 182 -24 126 -24 l 230 -24 q 233 -20 233 -24 q 243 -24 239 -24 q 290 -27 263 -24 q 383 -18 307 -27 z "},"`":{"ha":591,"x_min":135,"x_max":448,"o":"m 238 947 q 256 943 250 947 q 334 880 279 943 q 367 821 351 838 q 363 818 367 818 l 363 814 q 367 818 367 814 q 389 795 370 818 q 444 715 420 740 l 441 707 l 448 711 l 448 707 q 418 663 448 675 l 400 663 q 382 682 400 672 q 326 730 336 704 q 260 777 277 730 q 205 825 205 777 q 135 869 164 825 l 135 877 l 142 921 q 238 947 142 947 z "},"a":{"ha":731,"x_min":54,"x_max":735,"o":"m 278 639 q 322 628 312 628 q 355 639 349 639 q 440 609 383 616 q 503 559 473 597 q 558 496 551 559 q 569 462 569 481 l 569 451 q 562 349 569 385 q 573 315 573 323 q 569 217 573 291 q 580 191 578 191 q 573 160 573 167 l 591 96 q 617 85 605 85 l 628 85 q 672 125 661 85 q 724 145 672 142 q 735 119 731 134 q 691 66 735 90 q 661 17 667 44 l 646 9 q 558 32 558 9 q 492 77 558 58 q 448 47 481 77 q 378 28 381 28 q 374 32 378 32 l 374 28 q 378 24 378 28 q 275 -2 378 6 q 252 5 262 5 q 219 -2 247 5 q 127 32 170 22 q 54 149 54 109 l 54 156 q 105 277 54 205 q 134 303 111 277 l 142 299 l 142 303 q 138 307 138 303 q 178 311 165 307 q 182 307 178 307 l 182 311 q 178 315 178 311 q 216 334 199 334 l 241 334 q 271 330 256 334 q 418 375 299 330 l 425 375 l 451 372 l 507 406 l 510 420 q 488 492 510 460 q 496 526 488 501 q 440 545 458 532 l 422 541 l 414 541 q 381 564 394 564 q 345 552 352 552 q 300 575 312 575 q 216 541 220 549 q 186 428 205 524 q 153 416 161 416 q 83 451 83 427 l 83 496 q 109 538 83 511 q 186 606 109 568 q 260 624 214 621 q 278 639 260 628 m 411 296 l 392 299 q 315 273 366 273 q 286 243 303 273 l 278 243 q 230 254 236 254 q 142 224 142 241 l 131 179 q 153 107 131 123 q 149 104 149 107 l 157 107 q 248 69 172 96 l 275 73 q 326 58 298 63 q 418 104 326 70 q 481 156 442 131 q 517 239 505 176 l 517 247 q 492 307 509 307 l 488 307 q 411 296 463 299 z "},"b":{"ha":735,"x_min":-8,"x_max":696,"o":"m 143 861 q 216 787 216 846 q 228 728 216 761 q 220 695 220 701 q 246 606 242 644 q 250 610 250 606 l 257 606 l 275 606 l 283 610 q 287 606 283 606 q 349 632 287 629 q 375 644 349 636 q 530 603 530 632 q 600 533 600 576 q 604 536 604 533 q 659 467 659 536 q 684 415 684 432 q 681 378 684 410 q 696 315 696 344 l 696 308 q 688 279 688 282 q 692 231 692 233 l 681 223 l 677 223 q 655 275 666 223 l 644 275 q 629 212 629 275 q 648 190 648 201 q 611 87 636 87 q 537 43 602 87 l 519 39 l 511 43 q 460 24 463 24 l 441 28 q 349 6 361 15 l 334 6 q 305 17 307 6 q 309 20 309 17 l 301 17 q 235 46 269 46 q 191 39 202 39 q 165 50 165 39 l 157 46 q 136 102 136 71 q 139 179 136 131 q 136 209 136 199 l 139 235 l 136 260 q 139 330 139 296 q 136 359 139 339 q 143 441 143 409 l 139 448 q 151 625 146 469 l 146 644 q 154 688 154 678 q 143 728 154 701 q 157 765 157 760 q 132 783 153 783 l 92 783 q 40 787 71 783 q 18 783 34 783 q -8 817 -8 791 q 21 853 -1 853 q 51 846 51 851 l 77 853 l 99 850 q 143 861 138 861 m 228 404 q 239 363 228 395 q 228 326 228 332 q 261 176 237 222 q 349 102 332 102 l 379 102 q 437 124 402 102 l 431 150 q 441 164 436 164 l 456 164 q 471 146 456 153 q 534 227 499 146 q 530 256 530 253 q 555 371 555 279 l 555 389 l 522 441 q 508 496 515 452 q 511 500 511 496 l 508 500 q 504 496 508 496 q 456 526 500 511 q 434 566 456 557 l 427 562 l 416 562 q 386 570 412 562 l 372 570 q 323 522 355 561 q 261 441 277 522 q 228 404 228 426 z "},"c":{"ha":688,"x_min":45,"x_max":631,"o":"m 359 652 l 395 641 q 418 644 415 644 q 513 600 476 623 q 572 545 546 600 l 569 538 l 572 538 l 572 541 q 616 482 616 521 q 624 464 624 482 q 583 357 607 375 q 580 361 583 361 q 549 359 580 349 q 519 340 549 353 q 460 383 500 342 q 464 387 464 383 q 449 412 449 387 l 449 482 q 399 523 449 502 l 392 523 q 344 527 362 523 q 208 479 239 527 q 141 368 153 433 q 149 342 149 345 q 141 313 141 329 l 141 302 q 145 298 141 298 l 141 291 q 237 114 141 210 q 300 88 248 114 l 307 88 q 436 117 436 99 q 488 151 486 136 q 543 195 488 180 q 547 191 543 191 l 547 195 q 543 199 543 195 q 562 210 555 210 q 595 191 595 201 q 591 188 591 191 l 598 191 q 631 173 627 180 q 616 111 631 135 l 583 77 l 580 77 l 492 40 q 444 14 477 40 q 362 0 402 14 q 326 7 333 7 l 267 7 q 215 22 256 7 l 208 22 l 197 14 q 163 55 191 14 q 108 106 111 92 q 45 261 45 230 q 49 294 49 281 l 49 309 q 45 361 49 338 q 71 460 49 460 q 108 519 82 519 q 149 571 144 571 q 189 604 173 573 q 270 626 225 626 q 359 652 313 646 z "},"d":{"ha":677,"x_min":45,"x_max":671,"o":"m 340 854 q 521 828 521 845 l 547 791 l 547 765 q 539 713 547 753 q 543 667 539 707 q 535 627 535 635 q 547 582 547 593 q 539 450 547 525 q 543 413 543 431 q 535 390 543 407 l 539 368 q 535 225 535 278 q 543 180 535 199 q 535 113 535 132 q 609 91 535 91 q 671 42 630 91 l 671 35 q 639 1 660 9 l 613 16 l 609 16 q 572 -3 596 16 l 568 -3 q 535 8 562 -3 q 498 -7 513 -7 q 465 27 465 1 l 469 35 q 436 65 452 65 q 373 16 387 31 q 285 24 291 24 l 262 5 l 244 1 q 152 35 152 16 q 71 143 71 88 q 45 271 71 151 q 75 450 50 450 q 79 447 75 447 l 75 454 q 141 566 90 532 q 233 608 180 608 l 318 630 q 444 578 345 625 q 465 619 461 578 q 473 648 473 619 q 465 701 473 656 q 477 742 477 726 q 366 787 477 787 q 344 779 354 779 q 288 825 288 791 q 340 854 288 842 m 292 544 l 281 544 q 211 510 250 544 q 171 450 186 484 q 126 315 136 450 l 123 263 q 156 155 135 237 q 215 106 173 149 q 252 87 243 87 q 355 98 282 94 q 414 132 356 111 q 462 338 462 259 q 436 439 462 352 q 392 510 423 510 q 340 555 374 512 l 321 559 l 307 559 q 292 544 292 553 z "},"e":{"ha":629,"x_min":45,"x_max":587,"o":"m 347 632 q 414 616 360 621 q 458 575 444 596 q 454 571 454 575 q 465 575 461 575 q 513 534 485 569 q 587 347 587 492 q 524 290 587 310 l 506 294 q 425 267 460 294 q 395 264 399 267 q 370 271 380 271 l 344 256 q 311 264 319 264 q 270 260 302 264 q 200 279 231 278 q 163 253 163 271 q 146 235 146 258 q 163 180 135 216 q 229 108 182 108 q 296 81 240 97 q 311 71 296 76 q 406 93 347 71 q 450 135 429 93 q 494 161 457 135 q 498 158 494 158 l 498 161 q 494 165 494 161 l 513 176 q 517 172 513 172 l 517 180 l 547 180 q 568 139 568 168 l 568 131 q 513 74 568 95 q 476 39 494 49 l 469 44 l 469 39 q 473 36 473 39 q 380 9 448 25 l 370 9 l 362 13 l 362 5 l 340 5 q 203 18 287 18 q 141 58 184 39 q 85 135 141 70 q 45 271 61 175 l 45 385 q 75 492 61 463 q 119 556 108 524 q 347 632 213 632 m 349 518 q 329 526 329 519 q 247 503 261 519 q 149 418 179 507 q 200 347 125 340 q 212 351 208 351 q 220 342 213 343 l 231 341 q 278 347 278 339 q 282 343 282 347 l 302 346 l 321 345 l 345 339 q 411 351 372 349 q 477 367 414 356 l 477 371 q 474 382 477 382 l 494 393 l 477 431 q 427 488 470 475 l 427 522 q 395 534 403 534 q 352 517 386 535 l 349 518 z "},"f":{"ha":671,"x_min":37,"x_max":682,"o":"m 446 861 q 568 842 494 846 q 675 727 675 784 q 682 693 682 727 q 656 630 667 669 l 638 626 l 634 626 q 538 663 616 626 l 534 690 l 534 734 q 531 749 534 743 q 534 764 534 755 l 531 783 l 513 783 q 490 768 494 768 q 439 771 459 771 q 358 696 358 748 l 358 693 q 361 663 358 684 l 358 641 q 424 604 358 625 q 479 600 461 600 l 487 604 q 520 551 508 604 l 520 547 q 513 540 513 547 l 476 540 q 435 532 471 540 l 387 532 q 332 492 349 532 l 332 398 q 336 365 332 385 l 325 338 q 336 260 328 290 q 328 234 336 253 q 354 156 328 156 l 354 149 q 347 125 347 136 l 347 89 q 380 66 358 66 q 424 77 413 77 l 454 77 q 546 37 546 62 q 549 25 549 29 q 531 3 549 10 l 524 6 q 479 -9 495 5 l 469 -9 q 428 10 442 10 l 402 10 q 361 6 375 10 q 313 10 337 10 l 273 10 q 229 -5 233 -5 q 214 6 214 1 q 218 10 218 6 l 210 6 q 181 14 187 14 q 144 6 165 14 q 92 14 128 14 l 60 -5 q 37 18 47 -2 l 37 22 q 74 66 37 57 l 78 66 q 81 62 81 66 l 89 66 l 137 66 l 159 70 q 199 58 184 58 q 248 96 248 65 l 255 222 q 248 260 250 229 q 255 290 255 274 l 255 338 q 243 450 243 440 l 243 480 q 207 532 243 502 l 196 532 l 177 518 l 166 518 q 125 525 162 518 l 111 522 q 66 558 96 522 l 66 578 q 122 604 66 589 q 159 596 152 600 q 236 626 236 609 l 236 663 q 262 722 236 680 q 307 798 262 766 l 313 794 l 313 798 q 310 802 310 798 q 372 842 349 812 q 410 850 382 846 q 413 846 410 846 q 446 861 413 861 z "},"g":{"ha":751,"x_min":63,"x_max":730,"o":"m 351 639 q 483 606 387 639 l 483 602 q 479 598 479 602 q 483 602 483 598 l 509 598 l 513 598 q 612 635 598 635 l 656 635 q 723 576 692 635 q 730 513 730 529 q 686 484 686 510 l 671 484 l 634 517 q 612 539 612 534 q 579 473 579 530 q 575 425 579 456 l 579 407 q 538 292 566 292 q 479 271 538 286 q 424 219 434 219 q 391 226 418 219 l 343 219 q 277 248 292 248 q 229 271 236 271 q 203 259 210 259 q 199 263 203 263 l 199 259 q 203 256 203 259 q 155 215 186 256 l 155 208 q 181 149 155 180 q 177 145 177 149 q 199 123 184 145 q 243 115 203 119 l 332 153 l 428 145 q 457 153 441 153 q 605 101 605 119 q 667 50 644 87 l 664 42 l 667 42 q 671 45 667 45 q 693 -58 693 27 q 678 -83 693 -83 l 682 -91 q 642 -150 669 -132 q 579 -179 630 -150 q 528 -205 538 -179 q 516 -209 520 -209 q 487 -197 496 -197 q 384 -209 487 -204 l 384 -212 q 248 -197 248 -208 l 240 -201 q 140 -183 232 -191 q 100 -132 121 -165 q 71 -87 71 -111 q 74 -83 74 -87 q 63 -47 63 -83 l 63 -32 q 96 60 63 5 q 111 94 111 80 q 74 174 74 135 q 107 274 83 271 l 163 336 l 163 344 q 144 399 163 362 q 181 539 146 457 q 210 576 181 551 q 266 610 210 597 q 336 631 266 627 q 351 639 336 634 m 225 447 l 225 414 q 307 307 225 363 q 380 296 347 296 q 446 311 439 306 q 494 359 446 316 l 498 385 l 498 458 q 469 506 498 477 q 428 554 469 554 q 391 580 406 565 l 380 580 q 307 551 329 574 q 248 484 264 530 l 229 462 q 225 447 225 456 m 402 68 q 354 71 371 71 l 354 68 q 313 79 330 79 l 310 79 q 288 71 300 79 l 229 75 q 181 38 206 75 q 137 -28 163 4 l 137 -35 q 140 -58 137 -38 q 137 -61 137 -58 q 229 -117 183 -117 q 299 -150 229 -132 l 299 -153 q 302 -150 302 -153 q 332 -157 316 -157 q 528 -127 528 -142 q 616 -80 616 -100 q 646 -32 616 -63 q 652 -14 652 -20 q 593 12 652 5 q 490 68 553 68 q 450 83 460 83 l 439 83 q 402 68 428 83 z "},"h":{"ha":764,"x_min":39,"x_max":758,"o":"m 205 862 q 250 818 250 842 q 246 814 246 818 q 264 788 252 814 l 260 770 q 257 656 260 745 q 283 564 270 564 q 298 559 290 559 q 371 608 332 559 q 404 618 394 618 q 408 615 404 615 l 408 618 q 404 623 404 618 q 427 637 427 635 l 445 633 q 496 641 489 641 q 589 597 513 641 l 589 593 q 585 589 585 593 l 592 593 q 614 582 607 582 l 611 574 l 614 574 q 618 578 614 578 q 666 412 666 505 q 659 364 659 379 l 659 331 q 681 276 659 317 q 666 235 666 246 l 666 206 q 670 173 666 193 q 659 136 659 154 l 659 129 q 718 106 659 110 q 758 47 751 68 q 740 7 748 7 l 725 7 q 673 22 715 7 l 633 22 q 600 11 618 11 l 596 11 q 552 29 578 11 q 534 33 546 33 l 489 33 q 467 11 486 33 l 460 11 q 437 70 437 22 l 437 73 q 463 84 455 84 q 478 81 472 84 q 552 132 552 100 q 566 206 552 149 l 566 210 q 570 335 566 281 q 566 420 566 367 q 559 438 559 432 q 563 475 563 471 q 511 526 563 501 q 481 545 502 545 q 452 523 465 545 l 430 523 q 357 479 357 503 q 316 431 338 431 q 257 294 294 422 q 260 269 257 283 q 257 217 257 237 q 272 125 265 144 q 371 70 277 103 q 382 47 371 61 q 345 11 382 11 l 319 22 q 260 18 282 18 l 257 18 q 228 25 231 25 l 216 25 l 154 -1 l 146 -1 q 58 37 62 18 l 58 47 q 157 88 71 88 q 191 129 191 100 q 187 140 191 132 l 191 158 q 176 273 187 244 l 176 276 l 191 328 q 180 379 183 372 q 187 423 187 414 q 180 453 187 435 q 187 490 183 460 q 180 530 180 521 l 183 552 q 180 597 180 578 q 187 630 180 612 q 169 692 172 667 q 176 722 176 706 q 102 762 176 762 q 43 795 43 785 q 39 821 39 810 q 62 854 39 842 q 84 851 81 851 q 205 862 144 854 z "},"i":{"ha":621,"x_min":25,"x_max":604,"o":"m 316 872 q 423 812 364 872 l 423 808 q 405 734 414 795 q 349 688 382 688 q 290 677 349 680 q 231 771 231 700 q 316 872 250 872 m 254 636 q 357 576 357 636 l 360 568 l 357 531 q 368 475 368 498 l 368 330 q 372 229 368 281 q 368 168 368 212 q 408 98 368 98 q 471 94 437 94 l 475 94 q 511 101 482 94 q 563 83 563 92 l 570 87 q 604 53 591 68 q 581 1 595 15 q 405 19 435 7 q 364 15 372 15 q 342 22 352 22 l 298 22 q 195 -3 258 22 q 158 7 176 7 l 136 7 q 99 1 99 7 q 25 56 25 18 q 136 109 25 109 q 172 105 149 105 l 198 116 l 220 113 l 224 113 q 275 218 275 113 q 283 239 280 218 l 275 273 q 279 285 275 277 q 275 307 279 288 q 279 363 279 354 l 275 389 q 287 434 287 421 l 287 456 q 243 531 287 531 q 228 536 236 536 l 191 528 l 165 531 q 113 524 118 528 q 87 557 87 535 q 102 599 95 588 l 99 599 q 161 621 99 616 q 187 633 161 627 q 220 625 193 633 l 254 636 m 486 577 l 505 577 q 515 568 505 568 l 515 544 l 496 544 q 481 563 484 544 q 486 577 486 572 m 519 -64 q 530 -67 526 -67 l 530 -71 q 523 -79 530 -79 l 511 -79 q 504 -71 504 -79 l 519 -64 z "},"j":{"ha":534,"x_min":25,"x_max":452,"o":"m 335 884 q 401 846 401 865 l 397 839 l 401 839 q 405 843 401 843 q 446 780 446 800 q 375 651 446 768 q 364 640 370 651 l 364 633 q 416 607 364 621 q 446 530 432 589 q 441 526 441 530 q 452 507 451 526 l 449 486 l 452 448 q 441 386 441 404 q 449 363 443 363 q 438 283 444 309 q 441 198 441 216 l 427 117 l 431 98 l 427 73 q 434 -12 427 47 q 412 -90 434 -27 l 416 -108 q 320 -208 399 -159 q 313 -211 313 -208 l 305 -208 l 302 -208 q 257 -229 278 -208 l 250 -229 q 180 -211 192 -211 l 154 -218 l 77 -170 q 43 -119 64 -143 q 25 -41 31 -116 q 99 65 25 21 q 102 62 99 62 l 102 65 q 99 69 99 65 q 117 84 115 84 l 128 84 q 187 54 187 80 q 184 51 184 54 l 187 51 q 191 54 187 54 q 224 3 224 22 l 224 -1 q 195 -79 224 -20 q 191 -115 191 -111 q 231 -152 194 -131 l 231 -156 q 294 -119 263 -128 q 335 -53 308 -63 q 353 43 353 -15 q 357 54 357 43 q 353 87 357 68 q 357 128 357 120 q 353 169 357 136 q 357 227 357 197 q 349 264 349 261 q 353 312 349 267 q 349 327 353 321 q 353 368 353 352 l 353 416 q 349 474 353 437 q 357 500 357 493 q 323 545 340 545 q 272 541 292 541 l 261 541 q 220 566 246 541 q 161 545 200 566 l 143 548 q 92 541 136 548 q 62 585 62 547 l 62 600 q 146 633 62 623 q 235 618 153 633 q 276 625 242 618 q 313 622 308 622 q 346 648 346 622 q 290 703 346 652 q 261 773 261 760 l 261 777 q 272 846 269 804 l 290 858 l 298 854 q 331 884 307 854 l 335 884 z "},"k":{"ha":802,"x_min":47,"x_max":784,"o":"m 98 857 q 136 850 106 857 q 146 853 139 850 l 172 850 q 216 857 182 850 q 268 774 258 857 l 268 715 q 272 681 268 701 q 264 651 264 662 q 272 602 272 618 q 257 467 263 503 l 257 464 q 260 453 260 456 q 257 449 257 453 q 268 419 268 447 l 268 378 q 290 355 268 355 l 298 355 q 397 456 389 456 q 430 494 430 470 l 430 498 l 419 576 q 474 613 419 613 q 585 621 559 621 q 610 613 587 621 q 655 621 648 621 q 703 613 688 613 l 718 618 q 773 561 773 597 q 736 539 773 557 q 725 527 736 534 l 714 527 q 669 546 707 527 q 559 498 559 525 l 500 456 q 481 427 491 427 q 478 430 481 430 l 481 422 q 452 370 481 408 l 452 359 q 481 299 452 349 q 530 269 488 282 q 533 254 530 268 q 522 243 528 254 l 522 229 q 636 101 594 101 q 747 71 650 76 q 777 30 766 41 q 773 26 773 30 l 777 26 q 780 30 777 30 q 784 15 780 28 q 714 -8 760 -8 q 692 -19 710 -19 q 640 18 684 -19 q 622 -8 631 -6 q 607 18 614 -8 l 596 18 q 555 12 560 12 q 533 18 543 18 l 526 18 q 493 -8 526 -1 l 481 -8 q 415 49 415 7 q 452 138 415 68 l 452 150 q 397 202 439 182 l 393 209 l 393 213 l 401 258 q 375 295 382 295 l 371 295 l 363 292 q 360 295 363 295 l 360 292 q 363 288 363 292 q 327 232 345 279 q 260 176 260 193 q 257 135 257 142 l 260 97 q 283 82 268 97 q 316 85 296 82 q 363 52 359 52 l 363 41 q 342 12 363 20 q 319 18 327 18 l 260 4 q 216 12 235 12 l 209 12 q 109 -4 165 12 q 47 60 47 23 q 69 75 51 75 l 77 75 q 117 67 112 67 q 187 138 187 90 l 187 150 q 180 187 187 187 q 194 295 194 218 q 191 385 191 382 q 198 419 198 414 q 187 482 198 427 l 187 494 q 201 532 187 503 q 183 640 183 606 q 191 673 191 653 q 187 737 191 693 q 191 749 191 744 q 172 774 189 760 q 176 778 176 774 l 168 774 q 150 785 150 783 l 124 782 l 117 782 q 47 816 79 782 l 47 830 q 98 857 63 857 z "},"l":{"ha":672,"x_min":27,"x_max":811,"o":"m 304 869 q 366 858 345 858 l 374 858 l 374 851 q 377 854 377 851 q 407 806 407 846 l 407 803 q 399 773 407 787 q 414 667 407 738 l 410 641 q 414 556 414 573 q 407 519 407 522 l 410 500 l 407 482 l 414 357 q 410 302 410 311 q 414 269 410 288 q 410 180 410 223 l 410 140 q 458 92 424 92 q 510 84 486 84 l 517 84 q 543 103 540 103 q 628 88 565 96 q 680 22 680 88 q 654 3 674 3 q 616 7 649 3 l 584 -7 q 492 11 546 3 q 469 3 485 11 q 377 18 391 7 q 307 11 311 14 l 285 14 q 119 -4 156 3 q 57 18 57 1 l 57 29 q 104 92 57 73 q 138 84 129 84 q 248 99 212 99 l 278 99 q 326 136 308 99 q 322 195 322 174 l 322 224 l 326 232 q 311 254 316 232 q 322 287 322 278 l 322 298 q 311 405 315 330 q 315 438 315 418 q 307 460 307 450 q 315 497 315 490 l 315 526 q 318 604 315 556 q 315 615 315 611 l 318 630 q 315 711 315 679 q 252 759 302 759 q 212 762 231 759 q 174 759 192 759 q 145 766 151 766 l 112 762 q 27 810 57 762 l 27 818 q 97 862 66 862 l 160 851 q 304 869 226 865 m 612 317 l 619 296 l 608 283 l 593 283 l 593 309 l 612 317 m 708 317 l 711 317 q 719 303 719 314 l 719 283 l 701 283 l 678 290 q 656 277 666 277 q 649 290 649 277 q 656 303 650 303 q 678 296 675 296 q 708 317 696 317 m 800 303 q 811 296 807 296 l 811 271 l 796 271 q 785 290 791 271 l 785 296 q 800 303 793 296 m 763 296 l 774 296 l 774 290 q 767 277 774 277 l 755 277 l 755 283 q 763 296 757 296 z "},"m":{"ha":818,"x_min":44,"x_max":798,"o":"m 313 634 q 408 604 391 634 q 446 582 431 582 l 549 634 q 663 597 663 625 q 703 537 703 564 q 707 519 703 519 l 703 511 l 703 485 q 711 444 703 458 q 703 399 703 418 q 711 357 711 363 l 711 328 q 692 220 711 312 l 692 216 q 779 111 692 111 l 783 92 l 798 74 l 798 59 q 714 11 798 18 q 696 29 714 16 l 681 29 q 637 7 673 29 q 604 -5 612 -5 q 574 26 585 -5 q 563 29 570 26 q 534 14 538 14 q 511 26 511 18 q 515 29 515 26 q 397 11 405 11 q 361 26 366 26 q 342 18 342 26 q 320 40 331 18 q 335 104 323 104 q 338 100 335 100 l 338 104 l 335 104 q 364 175 364 158 l 361 182 q 375 269 375 256 q 361 366 375 290 q 368 388 361 372 q 320 537 368 528 q 316 541 320 541 q 283 515 316 536 l 261 474 q 239 448 261 448 q 198 384 210 448 q 187 324 198 356 l 187 313 q 205 250 197 296 q 198 134 205 245 q 210 126 210 130 q 243 138 236 138 q 257 119 257 134 l 254 85 q 261 44 261 58 q 239 -8 239 2 l 224 -15 q 191 7 205 7 q 121 22 145 12 l 99 19 q 55 52 78 19 l 44 81 q 114 134 70 109 l 114 220 q 110 279 114 241 q 117 310 117 293 l 117 458 q 73 560 117 560 l 73 564 l 66 560 q 47 586 47 568 q 140 623 47 623 q 202 582 153 623 q 298 627 202 605 q 313 634 313 631 m 467 414 q 471 410 467 410 l 460 384 q 464 287 464 311 q 460 245 460 254 l 467 212 q 471 197 471 205 q 467 182 471 189 l 478 156 q 471 130 471 141 q 537 96 517 96 q 570 130 542 96 q 611 212 593 130 q 618 257 611 228 q 608 310 612 310 q 622 444 618 334 q 574 526 622 513 q 523 503 532 526 q 493 477 523 498 q 467 422 493 466 l 467 414 z "},"n":{"ha":800,"x_min":47,"x_max":938,"o":"m 486 637 q 563 626 509 630 q 611 553 611 597 q 644 490 616 553 q 655 468 655 486 q 641 435 655 461 q 659 401 648 401 l 659 391 q 641 294 641 351 q 637 180 641 248 l 644 176 l 655 176 l 644 153 q 670 131 661 153 q 700 129 700 138 q 758 81 700 118 q 784 55 784 58 l 784 52 q 700 11 756 11 q 696 7 700 7 q 663 11 676 11 l 644 7 q 608 26 619 26 l 589 26 q 567 3 587 26 l 526 18 l 508 14 q 467 26 483 26 l 456 26 q 452 22 452 26 q 434 29 441 29 l 434 37 q 467 103 434 103 q 519 132 482 120 q 556 239 556 172 q 563 320 556 279 q 534 401 563 354 q 541 431 541 425 q 515 508 529 477 q 467 534 502 508 q 456 538 463 534 q 379 490 411 501 q 320 416 320 437 q 290 376 320 389 l 283 379 l 287 372 q 261 294 261 337 l 261 283 l 264 258 l 261 258 l 272 228 q 244 228 278 232 l 244 250 q 256 261 244 255 q 270 246 261 261 l 270 220 q 277 191 277 194 q 270 158 270 167 q 372 96 316 125 l 382 77 q 338 18 370 18 l 313 22 q 272 7 283 7 q 217 22 230 22 q 140 7 152 15 q 51 44 69 7 l 51 55 q 84 125 51 65 q 125 117 120 117 q 169 155 155 130 l 169 184 q 165 188 169 188 q 176 254 176 235 l 176 383 q 173 397 176 391 q 184 446 180 419 l 176 479 l 187 523 q 165 553 178 547 l 161 553 q 132 534 144 553 q 117 530 125 530 q 47 574 48 564 l 47 589 q 125 618 47 614 q 161 612 153 615 q 169 618 163 618 l 173 618 q 246 571 246 604 q 272 527 258 527 l 298 538 q 302 534 298 534 l 302 538 q 298 541 298 538 q 346 585 304 541 q 427 630 420 630 q 486 637 454 630 m 923 518 l 926 518 q 938 496 938 515 l 938 489 q 919 471 938 484 l 911 474 q 923 518 916 518 m 742 245 q 757 235 757 240 q 734 224 753 224 q 728 231 728 224 l 728 235 q 742 245 728 240 z "},"o":{"ha":641,"x_min":45,"x_max":602,"o":"m 303 637 q 314 633 310 633 l 366 637 q 432 618 425 618 l 429 611 l 436 614 q 498 588 467 588 q 509 565 509 574 q 506 562 506 565 q 535 512 518 562 q 576 448 576 492 q 594 403 594 431 l 591 380 q 602 334 591 371 l 602 327 q 594 297 594 300 l 594 240 q 506 55 569 113 q 436 24 454 28 l 410 28 q 326 2 355 2 q 292 -14 316 2 l 288 -14 l 200 20 q 141 58 190 47 q 100 123 115 90 q 56 210 95 123 l 56 214 q 64 243 56 230 q 45 304 52 297 q 85 471 66 462 q 126 546 111 513 q 303 637 255 637 m 314 538 q 226 482 314 527 q 196 448 217 463 q 193 452 196 452 l 196 444 q 159 365 159 406 q 149 308 149 330 l 156 285 q 152 281 152 285 q 167 229 167 281 q 163 198 163 208 q 248 103 182 150 q 300 89 254 103 q 329 92 326 92 l 362 89 q 450 126 413 89 q 480 157 456 126 q 491 164 491 157 q 488 168 488 164 q 502 248 494 168 q 513 274 513 256 l 513 316 l 517 338 l 476 425 q 450 463 476 463 q 443 467 450 467 l 447 475 l 443 475 q 439 471 443 471 q 395 505 420 505 l 395 509 l 399 516 l 395 516 q 391 512 395 512 q 370 535 391 517 l 355 535 l 318 531 l 318 538 l 314 538 z "},"p":{"ha":686,"x_min":17,"x_max":647,"o":"m 393 627 q 499 620 478 620 q 573 548 573 565 q 621 469 573 534 q 640 370 640 439 q 635 321 635 346 l 635 292 q 647 234 635 265 q 621 163 621 178 q 599 113 621 151 q 555 68 599 84 q 551 72 555 72 q 499 45 551 63 q 496 50 499 50 l 496 45 q 499 41 499 45 q 463 23 475 23 l 414 23 q 378 12 401 23 q 290 34 354 12 q 252 -12 252 19 q 249 -49 249 -31 q 278 -128 265 -128 q 311 -132 298 -132 l 356 -132 q 385 -155 385 -152 q 382 -159 382 -155 l 389 -155 q 408 -178 408 -165 q 378 -208 393 -208 l 352 -193 q 326 -215 344 -193 l 323 -215 q 278 -204 313 -215 q 241 -223 254 -223 l 234 -223 q 197 -201 212 -201 l 190 -201 q 109 -231 109 -201 q 94 -235 96 -235 q 31 -215 77 -219 l 17 -197 l 17 -185 q 76 -151 22 -174 q 90 -140 76 -142 q 123 -148 96 -140 q 164 -83 151 -148 q 179 -56 170 -83 q 164 -15 179 -54 q 172 200 172 117 q 161 283 172 245 q 168 355 168 324 l 164 416 q 168 442 168 431 q 142 526 146 491 q 105 537 121 537 l 54 532 q 17 582 17 576 l 17 597 q 120 620 37 612 q 168 612 153 612 l 186 612 q 190 616 190 612 q 219 578 208 616 q 252 571 233 571 l 297 608 q 393 627 357 627 m 271 469 q 267 472 271 472 l 267 469 q 271 465 271 469 q 227 389 255 465 l 241 344 q 234 299 234 318 l 234 234 q 275 155 234 227 q 363 83 304 111 l 370 83 q 492 121 456 83 q 529 159 522 142 l 532 159 q 529 163 532 163 q 562 313 543 163 q 555 348 555 338 l 555 397 q 529 450 529 425 l 529 461 l 532 469 q 514 499 526 469 q 463 545 502 500 q 393 559 425 545 l 378 559 q 271 469 345 543 z "},"q":{"ha":625,"x_min":45,"x_max":675,"o":"m 318 630 q 454 564 414 597 l 465 564 q 484 604 473 570 l 491 608 l 498 608 q 521 597 521 606 q 517 593 517 597 l 524 597 q 550 574 548 574 l 543 479 q 547 435 547 460 l 547 423 q 539 376 547 392 q 543 335 543 343 l 539 283 q 543 247 543 264 q 528 140 536 223 q 547 103 537 140 q 532 66 532 75 l 532 29 q 536 26 532 26 l 532 18 l 532 -22 q 528 -37 532 -31 q 536 -74 532 -44 q 528 -122 528 -104 q 624 -159 556 -159 q 646 -163 624 -163 l 653 -163 q 675 -199 653 -169 l 665 -207 l 657 -203 l 657 -207 q 661 -210 661 -207 q 587 -229 655 -210 q 547 -218 559 -218 q 465 -233 465 -222 q 447 -222 447 -228 q 451 -218 451 -222 l 444 -222 q 414 -210 428 -210 l 321 -222 q 300 -177 300 -194 l 300 -174 q 340 -133 300 -145 q 370 -140 359 -140 l 392 -130 l 429 -130 q 454 -78 454 -130 q 458 -52 454 -66 q 454 -22 454 -38 q 465 22 465 18 q 439 40 460 40 l 421 40 l 399 11 q 380 33 380 21 l 366 33 q 281 11 309 22 q 159 40 247 40 l 159 44 q 141 88 150 52 q 75 173 125 88 q 45 283 57 278 l 45 287 q 79 468 45 321 q 108 515 79 493 q 115 538 115 522 q 171 604 142 560 q 318 630 212 621 m 138 350 q 145 294 141 298 q 141 261 141 275 l 141 254 q 149 232 141 244 q 145 228 145 232 q 167 173 155 228 q 208 117 183 163 q 311 84 273 84 q 385 110 345 110 q 432 147 385 147 q 451 199 447 199 l 454 199 q 451 202 454 202 q 462 228 462 220 l 458 254 q 473 309 469 269 q 469 338 469 336 q 473 383 473 365 q 425 449 457 395 q 392 505 411 449 l 351 534 q 300 553 316 534 q 197 500 229 536 q 167 449 191 500 q 138 350 149 449 z "},"r":{"ha":767,"x_min":42,"x_max":742,"o":"m 606 635 q 690 591 679 614 q 734 513 712 591 q 738 509 738 513 l 738 476 q 742 443 738 463 q 639 391 742 414 q 576 439 576 412 q 565 461 571 439 q 569 502 569 487 l 569 509 q 506 539 552 539 q 458 502 500 538 q 392 439 443 500 q 336 358 361 387 l 336 351 q 344 321 336 335 q 336 270 336 294 q 340 237 336 256 q 333 193 333 219 q 388 104 333 104 l 462 104 q 491 111 465 104 l 503 111 q 583 34 554 111 l 583 23 q 580 12 580 16 l 569 12 q 539 23 553 23 q 517 1 525 21 q 506 -3 513 1 q 406 23 434 22 q 377 1 402 23 l 366 1 q 340 34 366 8 l 329 34 q 259 1 294 27 q 226 8 235 8 l 149 8 q 115 -10 134 8 q 53 19 100 1 q 42 38 42 28 q 60 78 53 52 q 130 96 71 85 q 153 100 130 100 l 230 100 q 248 130 248 110 q 244 185 248 153 q 248 237 248 216 q 237 321 241 271 q 252 366 252 354 q 244 402 244 389 q 256 421 244 421 q 230 543 241 543 l 218 543 q 145 535 171 543 l 123 539 l 115 539 q 68 532 100 539 q 42 561 42 539 q 100 627 50 627 l 127 616 q 178 623 154 623 l 189 623 q 322 579 322 618 q 362 553 347 553 q 418 602 389 553 q 510 623 420 602 q 513 620 510 620 q 524 631 513 625 l 565 631 q 606 635 581 631 m 503 281 l 510 281 l 510 266 q 498 262 506 266 l 495 270 l 495 273 q 503 281 496 281 m 162 -43 q 185 -52 181 -52 q 216 -47 205 -47 l 225 -47 q 243 -60 243 -47 q 225 -66 235 -66 q 208 -64 216 -66 q 181 -66 195 -66 l 179 -66 q 145 -56 172 -66 l 131 -56 q 127 -52 127 -56 l 162 -43 z "},"s":{"ha":667,"x_min":69,"x_max":614,"o":"m 272 630 l 305 626 q 353 630 351 630 q 493 577 450 612 q 490 573 490 577 q 493 577 493 573 l 511 573 q 537 600 517 573 l 559 604 q 589 573 589 602 l 581 543 q 585 486 585 510 l 578 460 q 581 399 581 422 q 522 385 564 385 q 496 449 509 431 q 500 452 500 449 l 496 452 q 493 449 496 449 q 393 513 466 513 l 393 517 l 405 536 l 405 551 l 397 551 l 375 547 q 346 559 350 559 q 275 528 279 528 l 216 539 q 180 438 180 518 q 239 389 180 408 q 250 381 239 385 q 283 385 270 385 q 294 374 283 380 l 313 374 q 331 389 329 389 l 342 389 q 423 362 359 362 q 452 366 432 362 q 490 339 480 348 q 548 310 533 339 q 614 185 614 264 l 614 170 q 596 110 614 163 q 534 54 596 81 q 482 34 516 34 q 405 12 482 26 q 386 -11 399 -4 l 379 -11 q 320 12 359 -11 q 294 20 305 20 q 264 5 285 20 q 198 23 245 16 q 169 34 196 34 l 161 34 q 132 0 134 0 q 77 31 77 8 q 69 64 69 55 l 80 102 l 80 125 q 69 174 80 163 l 73 193 l 73 241 q 102 268 73 268 q 191 136 143 268 q 316 73 283 73 q 334 76 328 73 q 368 73 355 73 q 456 102 406 73 q 504 140 483 102 q 526 170 526 148 l 526 204 q 500 238 526 226 l 482 238 l 467 227 l 460 231 l 460 227 q 463 223 463 227 l 456 223 q 441 260 450 223 l 427 260 q 397 253 423 260 l 393 253 q 323 298 357 258 l 316 298 q 283 272 295 273 q 224 302 264 273 q 180 325 180 302 q 110 381 110 362 q 99 415 110 394 q 102 419 102 415 q 92 446 94 419 q 121 547 92 547 q 195 600 148 600 q 269 626 214 609 q 272 630 269 630 m 478 426 l 490 426 l 490 419 q 482 412 490 412 l 478 412 q 471 419 471 412 q 478 426 472 426 z "},"t":{"ha":667,"x_min":-1,"x_max":621,"o":"m 282 869 q 315 810 297 869 q 319 688 319 709 l 323 681 q 319 666 319 674 l 319 663 q 367 633 319 633 q 385 625 367 629 q 507 633 486 633 q 595 600 595 627 l 595 578 q 547 526 595 551 q 526 545 526 534 l 518 545 q 488 522 518 533 l 467 530 q 345 496 405 508 q 337 489 345 489 q 341 434 341 452 q 326 301 341 405 q 337 275 331 275 l 334 239 l 334 228 l 337 205 q 334 187 334 199 l 334 183 q 370 139 334 169 q 400 110 370 110 l 404 110 q 477 161 432 110 q 507 246 496 203 q 570 283 534 283 q 621 224 621 283 l 621 216 q 588 110 603 144 l 532 39 q 444 3 482 3 l 418 7 q 389 -5 400 -5 l 382 -5 l 345 7 l 326 7 l 326 14 l 319 10 q 260 84 304 41 q 227 213 227 151 q 216 375 220 213 q 227 408 227 399 q 205 522 222 522 q 161 537 180 537 l 131 537 q 24 515 39 515 q -1 593 1 515 q 32 629 13 629 l 76 625 l 120 629 l 138 625 q 234 677 218 646 q 227 736 234 694 q 231 843 231 796 l 231 854 q 282 869 231 869 z "},"u":{"ha":766,"x_min":16,"x_max":749,"o":"m 517 637 q 616 580 616 628 q 627 538 627 550 l 627 530 q 616 492 627 526 l 616 450 q 627 409 616 438 l 624 375 l 627 349 q 624 317 624 321 q 627 276 627 292 q 616 162 616 245 l 616 105 q 650 87 623 87 l 672 87 l 698 90 q 724 60 724 69 l 731 64 l 749 41 l 749 22 l 742 26 l 745 18 l 745 14 q 731 -1 745 8 q 701 10 722 -1 l 683 -1 l 672 -1 q 646 18 650 18 l 594 14 q 488 60 547 14 l 477 60 q 421 22 452 60 q 373 10 393 22 q 359 14 367 14 l 355 14 l 340 3 l 333 3 l 318 14 l 274 14 q 193 37 193 25 q 197 41 197 37 l 189 37 q 130 127 130 110 l 130 140 q 141 212 130 149 q 134 257 134 238 l 134 508 q 56 557 134 551 q 16 591 37 557 q 53 625 32 625 q 141 621 104 621 l 193 621 q 233 511 233 583 q 237 508 237 511 q 222 431 223 475 q 230 394 230 397 q 222 276 230 385 q 226 235 226 242 q 222 219 226 233 q 285 90 243 90 q 326 94 300 90 l 347 90 l 377 105 q 380 101 377 101 l 380 105 q 377 109 377 105 q 462 215 436 157 q 510 299 510 264 l 510 322 l 506 345 q 521 409 521 394 q 517 447 521 414 l 528 496 q 488 538 493 524 q 432 523 440 523 q 388 587 413 523 q 484 633 388 633 q 517 637 503 633 z "},"v":{"ha":728,"x_min":-8,"x_max":725,"o":"m 73 626 q 99 618 80 626 q 176 623 146 623 l 205 623 q 301 596 301 617 q 313 585 307 596 l 313 581 q 272 532 313 540 q 250 491 261 532 q 269 347 250 347 q 320 265 297 320 q 364 242 347 242 l 368 242 q 412 306 387 252 q 460 408 441 306 q 475 431 463 408 l 475 445 q 445 513 445 477 q 423 555 433 513 q 427 558 427 555 q 397 551 397 555 q 372 589 376 551 q 364 607 365 589 l 375 615 l 397 612 q 456 626 428 626 q 511 618 458 626 l 522 618 q 574 626 535 618 q 604 618 597 618 q 637 626 637 621 q 714 589 714 616 q 725 577 721 589 q 637 528 725 537 q 629 525 637 525 l 607 528 q 567 475 576 528 q 537 434 537 464 q 515 370 537 426 q 486 302 515 327 q 464 235 486 264 q 460 216 460 228 l 464 216 q 416 102 464 180 q 372 -7 416 20 q 283 80 302 -7 q 246 182 263 97 q 195 310 237 195 l 198 332 q 165 404 198 342 q 102 528 136 528 q 87 547 102 539 q 21 539 23 539 q -8 592 -8 539 q 47 618 -8 614 q 73 626 47 626 z "},"w":{"ha":755,"x_min":16,"x_max":738,"o":"m 141 625 q 189 568 189 608 q 174 503 189 562 q 211 333 187 361 q 229 253 229 302 q 262 233 243 233 l 270 238 q 273 233 270 233 q 281 256 281 246 q 277 298 281 265 q 329 389 302 355 l 329 435 q 384 500 342 500 q 435 416 435 464 q 443 401 443 416 q 439 397 439 401 l 443 397 q 447 401 443 401 q 465 317 461 370 q 487 227 484 317 l 487 219 q 494 211 488 211 l 505 211 q 546 313 519 211 q 543 355 543 340 q 572 386 566 370 l 572 401 l 568 423 q 583 469 583 460 l 583 500 q 550 587 550 580 l 550 591 q 638 621 550 610 l 694 621 q 738 556 738 612 q 690 522 738 545 q 675 507 690 516 q 671 511 675 511 l 675 503 q 653 431 653 469 q 631 333 637 431 q 612 302 621 302 l 612 298 l 616 298 q 620 302 616 302 l 620 298 q 602 227 612 281 q 605 196 605 205 q 579 120 600 196 q 561 44 570 120 q 528 6 555 44 l 509 10 l 491 6 q 425 166 458 6 q 432 193 432 184 q 391 249 425 222 l 384 275 l 380 275 q 343 241 343 267 q 351 193 343 227 q 317 93 317 131 l 321 75 q 270 10 298 10 q 233 -13 252 10 q 193 56 202 -13 q 181 75 190 56 l 181 105 q 152 184 181 127 q 155 196 152 189 q 126 355 155 214 q 78 511 93 444 q 16 568 48 521 l 16 583 q 34 602 16 588 q 37 598 34 598 q 141 625 37 621 z "},"x":{"ha":789,"x_min":37,"x_max":778,"o":"m 155 627 q 199 623 161 627 l 225 623 q 329 623 229 623 q 357 578 357 614 q 361 546 361 576 q 339 509 319 536 q 402 416 380 416 l 406 416 q 450 457 450 431 q 487 487 463 473 l 490 509 l 490 513 q 450 575 490 538 l 450 583 q 501 623 477 623 q 572 619 542 619 l 597 619 q 637 620 602 619 l 649 620 q 693 616 684 616 l 715 619 q 737 575 737 612 l 737 572 q 711 524 737 542 l 701 524 q 649 535 652 535 l 645 535 q 586 513 633 535 q 583 509 586 509 l 586 509 q 578 501 586 501 q 575 505 578 505 l 578 498 q 538 439 566 455 q 516 395 528 432 q 468 328 488 395 q 534 233 470 307 q 542 218 542 233 q 538 214 538 218 l 542 214 q 546 218 542 218 q 572 192 546 213 q 649 111 580 168 q 652 104 652 111 q 708 111 656 107 q 774 59 749 101 q 778 45 778 53 q 755 22 770 22 q 693 7 707 7 l 686 7 q 634 8 664 7 l 623 8 q 583 7 618 8 l 549 7 q 505 7 522 10 q 446 59 446 18 q 487 107 461 92 q 424 207 472 207 q 402 214 424 214 q 347 166 394 214 q 328 136 328 157 q 358 89 288 96 q 372 24 389 64 q 357 5 363 6 q 354 9 357 9 q 313 7 354 6 q 273 3 287 17 l 273 -1 q 262 3 266 3 q 190 2 195 -1 q 100 6 161 6 q 71 7 100 1 l 66 7 q 37 63 37 26 q 92 104 50 104 q 133 111 126 111 l 159 107 q 210 148 176 107 q 247 199 216 149 q 302 280 267 199 q 339 321 339 296 q 298 365 339 345 q 266 450 298 427 q 221 501 221 471 q 144 550 195 539 l 125 550 q 89 546 93 546 q 63 607 63 546 q 74 625 74 621 l 96 625 q 155 627 149 627 z "},"y":{"ha":712,"x_min":3,"x_max":711,"o":"m 670 626 q 711 593 699 612 l 711 578 q 700 570 700 578 l 692 574 l 663 574 q 623 537 663 541 q 534 446 534 496 q 494 353 534 422 l 494 342 q 497 328 494 334 q 464 243 472 279 q 442 213 442 227 q 446 187 446 199 q 409 99 422 99 q 405 102 409 102 l 409 95 q 391 -12 402 95 q 346 -115 346 -46 q 317 -159 328 -123 q 176 -222 247 -222 q 88 -207 146 -207 l 85 -207 q 11 -130 11 -157 q 3 -100 3 -106 q 70 -22 24 -22 l 73 -22 q 162 -96 139 -22 q 199 -133 162 -133 q 254 -81 254 -127 q 298 -1 298 -37 q 306 58 298 5 q 254 205 306 110 q 214 313 237 273 q 180 412 199 344 q 158 441 176 412 l 158 471 q 99 549 158 490 q 44 559 83 549 q 14 552 31 552 l 7 564 q 70 615 7 599 q 96 611 91 615 q 165 615 136 615 l 221 615 q 294 589 277 615 l 294 564 q 306 537 294 551 l 294 530 l 269 530 l 254 479 l 291 357 q 332 294 291 337 l 335 294 q 401 323 401 302 q 442 387 425 380 l 438 394 q 442 405 438 397 q 438 438 438 425 l 438 446 q 460 486 460 471 l 456 500 l 442 500 q 427 497 433 500 q 405 549 408 497 q 397 574 399 549 l 397 578 q 446 618 416 618 q 471 615 456 618 q 538 618 506 618 l 549 618 q 564 622 557 618 q 578 618 570 618 l 615 618 q 670 626 635 618 z "},"z":{"ha":679,"x_min":69,"x_max":626,"o":"m 541 361 q 567 397 541 389 q 581 382 581 397 l 581 369 q 561 349 571 349 l 541 361 m 172 634 l 210 631 l 231 631 l 254 634 q 283 627 273 627 l 316 631 q 338 623 328 623 l 364 623 q 368 627 368 623 l 375 623 q 452 627 417 623 q 578 623 507 623 q 626 555 626 576 l 626 551 q 548 486 621 537 q 508 441 508 474 q 467 403 508 413 q 397 327 423 327 q 346 262 385 283 q 287 198 337 242 q 261 160 287 187 q 257 163 261 163 l 257 160 q 261 157 261 160 q 224 115 224 138 l 228 107 q 224 104 224 107 q 261 96 254 96 l 275 96 q 305 104 302 104 l 309 104 q 338 96 335 96 l 375 96 l 397 92 q 419 100 419 96 q 460 81 423 100 q 515 126 515 101 q 548 202 524 163 q 530 236 548 215 l 530 244 q 578 300 554 289 l 600 300 q 626 262 626 287 q 622 244 626 250 q 626 210 626 223 l 626 202 q 618 163 626 195 l 622 137 q 618 104 618 117 q 622 88 618 102 q 541 12 587 12 q 496 1 541 3 l 475 1 q 408 23 460 1 l 386 5 q 372 1 380 1 l 353 1 q 323 16 335 16 q 261 1 283 16 l 254 1 q 210 16 235 1 q 125 1 187 16 q 69 43 90 1 q 92 100 69 60 q 139 141 92 126 q 191 210 172 196 q 213 229 202 210 l 210 229 l 242 293 q 287 323 242 309 q 393 425 347 391 q 412 445 393 431 q 416 441 412 441 l 412 448 q 445 501 445 488 q 412 543 437 543 q 375 539 380 539 q 334 555 338 555 q 239 532 268 532 q 195 437 195 500 q 151 342 178 342 l 143 338 l 132 338 q 106 388 106 356 l 106 395 q 117 471 117 467 l 117 520 q 125 528 118 528 q 117 555 117 543 q 172 634 117 609 m 545 -48 l 555 -48 q 566 -71 566 -52 l 552 -82 l 541 -82 q 530 -67 535 -82 q 545 -48 537 -50 z "},"{":{"ha":478,"x_min":74,"x_max":437,"o":"m 178 446 q 199 465 189 452 l 207 475 q 227 534 245 524 q 219 610 233 602 q 196 687 214 613 q 185 759 183 699 q 165 903 144 876 q 191 959 172 913 l 199 969 q 268 1008 222 999 q 327 1017 273 1015 q 380 1018 350 1034 q 406 994 399 1004 l 414 989 q 420 968 417 987 q 353 966 406 950 q 337 961 350 962 q 267 926 273 934 l 264 861 q 276 790 283 851 q 296 707 279 731 q 300 651 287 682 q 302 555 309 623 l 308 509 l 288 472 l 283 467 q 256 441 273 452 l 250 425 q 253 422 252 424 l 293 389 q 320 365 309 379 l 330 300 l 304 243 l 299 233 l 309 180 q 305 124 296 150 q 286 41 289 100 q 274 -30 292 -20 l 276 -94 q 347 -130 282 -103 q 363 -136 359 -131 q 416 -130 402 -113 q 437 -158 413 -150 l 429 -163 q 389 -187 408 -174 q 336 -186 359 -203 q 277 -177 283 -184 q 208 -138 231 -168 l 200 -127 q 174 -73 182 -82 q 195 73 154 -45 q 205 144 193 132 q 229 222 223 218 q 236 298 243 229 q 216 357 254 307 l 209 367 q 182 389 195 383 q 149 386 168 382 l 146 381 q 131 376 144 383 q 132 381 129 379 l 130 384 q 129 379 127 382 q 109 383 112 379 l 108 390 q 93 393 99 385 q 90 409 87 400 q 104 437 74 425 q 136 450 134 448 l 140 444 l 143 443 l 144 443 q 157 445 154 446 q 178 446 169 447 z "},"|":{"ha":547,"x_min":201,"x_max":321,"o":"m 273 1034 l 273 1029 q 277 1034 277 1029 q 321 1015 321 1028 l 319 966 l 315 960 l 319 960 l 295 888 l 304 850 l 300 826 l 308 812 l 304 812 l 307 805 l 307 778 q 313 743 307 743 q 309 733 309 736 q 319 684 308 698 l 319 674 q 299 647 302 657 q 317 608 303 636 q 289 520 316 560 l 288 503 q 305 454 288 496 q 297 423 297 429 q 304 402 304 410 q 280 352 281 376 q 298 323 281 346 l 298 320 q 294 289 297 307 q 296 272 296 283 q 244 250 272 249 q 201 275 242 250 l 201 281 q 232 322 201 290 q 236 342 233 343 q 220 443 236 347 q 229 470 220 446 q 219 539 229 494 q 223 543 223 539 q 219 546 219 543 l 223 546 l 219 553 l 219 560 q 224 601 220 590 q 222 653 221 631 q 229 762 222 682 q 215 793 215 790 q 228 876 223 793 l 225 884 q 229 897 229 889 l 229 903 q 219 935 229 912 q 231 969 228 969 q 224 990 224 981 l 224 993 q 273 1034 225 1021 m 275 223 q 300 197 301 218 q 292 138 292 142 l 298 112 q 290 90 290 100 q 319 -84 319 -58 q 311 -110 311 -108 l 321 -136 q 256 -193 320 -142 q 229 -130 227 -192 l 226 -93 q 231 -67 231 -78 q 224 -34 231 -61 q 253 62 225 3 q 246 83 245 73 q 254 113 246 87 q 231 195 239 138 l 231 199 q 275 223 235 214 z "},"}":{"ha":476,"x_min":60,"x_max":395,"o":"m 290 444 q 311 444 300 446 q 325 441 314 445 l 325 441 l 328 443 l 332 449 q 364 435 334 446 q 378 408 395 424 q 375 391 381 399 q 360 389 369 384 l 359 382 q 339 378 356 378 q 338 382 341 380 l 336 380 q 337 375 339 378 q 322 380 324 382 l 319 385 q 287 388 301 381 q 259 366 273 382 l 252 355 q 232 296 214 306 q 239 220 225 228 q 262 142 245 216 q 273 71 275 130 q 294 -74 314 -47 q 268 -129 286 -83 l 260 -140 q 191 -178 237 -170 q 132 -187 185 -185 q 79 -189 109 -204 q 63 -148 60 -175 q 78 -137 66 -121 q 121 -132 81 -132 q 192 -96 186 -104 l 194 -31 q 182 39 176 -22 q 163 123 179 98 q 159 179 172 149 q 169 232 150 207 l 163 242 l 141 254 l 128 264 l 140 280 q 144 358 149 292 l 148 363 q 175 388 159 378 l 188 421 q 191 424 189 422 l 184 440 q 157 465 168 451 l 153 471 q 149 549 159 536 l 138 564 l 151 574 l 173 586 l 178 597 q 168 650 159 621 q 172 706 181 680 q 192 789 189 730 q 203 859 185 850 l 201 924 q 131 960 195 932 q 87 965 91 960 q 88 1017 69 1003 q 141 1016 118 1032 q 200 1007 195 1014 q 269 968 246 998 l 277 958 q 303 902 296 911 q 283 758 323 875 q 272 686 285 698 q 249 608 254 612 q 241 532 235 601 q 261 473 223 522 l 269 463 q 290 444 279 450 z "},"~":{"ha":916,"x_min":41,"x_max":848,"o":"m 686 878 l 701 878 q 789 837 743 878 q 819 800 795 837 q 848 760 841 800 q 845 708 845 728 l 845 652 q 838 612 845 648 l 838 593 q 789 564 812 593 q 731 549 762 549 l 727 549 q 653 597 694 549 l 653 601 q 679 660 667 660 q 734 678 721 678 q 786 715 786 678 q 789 726 786 719 q 771 752 787 737 q 727 793 762 774 q 679 814 727 800 q 616 781 648 791 q 565 734 598 734 q 495 682 537 706 q 439 631 487 654 q 380 583 392 583 l 373 587 q 351 572 351 578 l 351 546 l 347 528 l 326 528 q 244 479 307 528 q 197 487 213 479 q 156 476 161 476 q 134 509 143 476 q 86 542 86 509 q 41 645 41 592 q 79 760 41 747 q 130 808 117 808 l 130 804 q 159 814 157 814 l 159 811 l 167 814 q 244 789 206 795 l 244 781 q 237 774 244 774 l 241 767 l 233 752 q 237 749 233 749 q 208 682 237 702 l 163 686 l 156 686 q 123 649 136 686 l 104 642 l 104 634 q 189 549 104 602 l 197 549 q 259 553 216 549 q 344 612 259 570 q 399 678 344 640 q 425 711 420 711 q 429 708 425 708 l 429 711 q 425 715 425 711 q 536 811 465 736 q 621 863 591 863 q 686 878 631 863 z "},"":{"ha":440,"x_min":99,"x_max":322,"o":"m 197 836 l 212 836 q 298 795 248 836 q 316 744 316 758 q 322 711 316 739 q 283 643 304 643 q 233 604 271 643 l 224 604 q 126 664 172 612 q 105 714 126 670 q 99 759 105 728 q 171 830 99 797 q 197 836 190 836 m 203 -88 q 162 -56 171 -56 q 144 18 154 -56 q 170 337 162 116 q 165 370 165 360 q 203 431 175 431 q 269 337 269 431 q 265 304 269 321 q 283 194 269 251 l 283 140 q 288 137 283 137 l 306 39 l 306 18 q 298 -22 306 -22 q 214 -88 298 -66 l 203 -88 z "},"":{"ha":744,"x_min":93,"x_max":665,"o":"m 545 856 q 595 800 595 856 l 595 793 q 557 723 595 786 q 548 722 565 724 q 511 641 548 701 l 511 637 q 572 582 532 582 q 620 538 572 576 l 657 446 l 657 423 q 598 372 657 382 q 591 361 591 367 l 576 361 q 509 379 509 371 q 488 405 492 394 l 488 420 q 506 471 488 437 q 503 486 503 477 l 467 486 q 441 427 453 486 q 368 283 404 401 q 346 246 347 264 l 349 213 q 316 161 327 200 q 290 114 290 130 l 290 102 q 380 81 290 90 q 509 125 509 98 q 591 191 538 130 l 613 195 l 620 195 q 665 154 665 190 q 624 92 654 92 q 550 37 591 76 q 506 25 517 37 q 503 29 506 29 l 503 25 q 506 22 506 25 l 491 14 l 473 18 q 399 3 455 7 q 271 18 363 3 q 242 -1 259 18 q 238 3 242 3 l 242 -4 l 223 -52 q 217 -86 227 -59 q 198 -114 206 -114 l 172 -129 l 161 -129 q 121 -81 127 -129 q 141 -26 130 -47 q 156 22 141 -19 l 156 33 l 163 33 q 159 37 163 37 q 167 58 167 48 q 138 136 156 136 l 100 206 l 100 213 q 104 217 104 213 q 93 243 93 217 q 112 276 112 258 q 104 309 112 281 q 108 353 108 335 q 104 364 108 357 q 134 467 104 394 q 189 552 134 499 q 193 549 189 549 l 189 556 q 244 593 193 570 q 248 589 244 589 q 329 626 266 626 q 418 637 329 633 q 505 819 437 646 q 545 856 524 856 m 185 272 q 218 202 212 202 l 237 202 q 277 309 262 254 q 314 405 314 347 q 362 471 338 447 q 370 475 362 475 q 366 486 366 482 q 370 515 370 512 q 336 534 370 528 q 307 552 329 552 q 252 500 296 552 q 200 408 232 500 q 185 272 185 315 z "},"":{"ha":764,"x_min":22,"x_max":718,"o":"m 431 889 q 530 859 481 859 q 571 841 534 851 q 633 734 633 770 l 633 730 q 593 650 625 650 l 567 646 q 564 650 567 650 l 564 642 l 553 642 q 497 715 507 642 q 519 786 508 767 q 475 812 519 812 q 464 808 471 812 q 412 823 425 823 l 383 823 q 306 800 383 815 q 302 804 306 804 l 302 800 q 306 797 306 800 q 258 709 281 786 q 254 616 254 637 q 259 579 254 585 q 264 555 264 574 q 308 517 277 517 l 330 517 q 381 522 350 517 q 503 512 415 534 q 514 505 503 505 l 514 494 q 452 460 505 460 q 393 448 409 448 q 335 336 319 439 q 328 311 329 336 l 328 303 q 346 211 335 238 q 342 208 342 211 l 346 208 q 350 211 346 211 q 391 178 350 207 l 387 170 l 394 174 q 456 134 425 160 q 486 123 475 123 q 541 152 505 123 q 586 189 578 152 q 637 266 609 189 q 659 296 637 284 q 718 248 718 289 q 696 149 706 175 q 659 104 696 136 q 564 49 623 49 q 541 38 564 45 l 534 41 l 527 41 q 446 45 501 41 l 450 52 q 438 49 442 49 q 332 134 368 94 l 313 134 q 247 64 287 134 q 176 38 197 38 l 121 38 q 55 85 105 38 q 22 193 22 117 q 40 270 31 209 q 59 285 42 270 q 62 281 59 281 l 62 285 q 59 288 59 285 q 129 336 77 309 q 217 307 170 336 l 235 307 l 239 332 q 197 448 223 448 q 168 440 174 440 l 149 444 q 120 440 135 440 l 116 440 q 94 466 110 440 l 98 484 l 98 499 q 105 507 105 499 l 109 507 q 179 503 138 507 q 205 545 200 503 q 196 600 193 574 q 199 642 199 625 l 199 671 q 195 686 199 680 q 221 749 195 702 q 258 793 231 777 q 283 845 270 844 q 287 848 283 848 l 320 848 q 423 889 370 871 l 431 889 m 95 199 l 95 189 q 108 161 95 178 q 104 157 104 161 l 108 157 q 111 161 108 161 q 117 145 117 150 q 114 142 114 145 l 117 142 q 121 145 117 145 q 152 123 121 130 q 216 167 189 130 l 216 183 q 168 240 216 228 l 152 240 q 95 199 119 240 z "},"":{"ha":596,"x_min":66,"x_max":532,"o":"m 248 817 l 242 817 q 237 822 237 818 l 237 827 q 242 831 237 831 l 245 831 q 255 827 252 827 l 255 824 q 248 817 255 821 m 471 591 q 471 589 471 590 q 494 578 471 584 q 502 560 496 578 q 504 562 504 560 q 532 545 522 562 q 527 530 530 530 q 509 516 527 517 l 478 516 q 463 522 463 518 q 440 546 440 542 q 439 549 439 547 q 402 528 409 528 q 399 531 402 531 l 399 528 q 402 526 402 528 q 345 502 401 526 q 316 497 342 502 q 276 498 283 498 l 277 496 q 216 512 244 508 q 168 538 199 526 q 167 539 168 538 q 157 519 162 538 q 136 512 157 517 q 138 510 136 510 q 120 485 138 494 q 103 490 103 488 q 87 506 87 490 l 87 533 q 94 547 90 547 q 121 567 116 567 q 139 577 129 570 q 125 589 133 583 q 106 636 125 604 l 106 652 l 109 657 q 98 681 98 658 l 97 688 q 102 733 102 728 l 102 756 l 116 804 q 131 839 116 827 q 127 845 127 842 q 104 854 127 849 q 96 872 102 854 q 94 870 94 872 q 66 886 75 869 q 70 902 68 901 q 88 916 70 916 l 118 917 q 134 910 134 915 q 157 888 157 892 q 167 873 161 882 q 197 890 180 882 q 215 906 215 901 l 217 906 q 246 897 222 906 q 319 919 265 898 l 323 920 q 404 880 404 893 q 435 865 418 880 q 441 869 437 869 q 451 890 446 869 q 471 897 451 891 q 469 899 471 899 q 488 924 469 915 q 505 920 505 922 q 520 903 519 920 l 522 877 q 515 863 519 863 q 489 842 494 842 q 465 829 479 838 q 477 810 471 820 q 474 808 474 810 q 496 773 479 808 q 493 743 493 753 q 507 709 498 743 q 493 617 499 690 q 471 591 485 613 m 208 823 q 210 819 210 821 q 198 806 201 806 l 197 806 q 191 806 193 806 q 173 777 173 787 q 155 684 173 766 q 189 625 155 678 q 234 586 190 597 q 278 557 257 557 q 302 552 298 552 q 361 583 311 552 q 371 585 365 585 l 385 585 q 409 615 385 593 q 437 648 430 648 q 433 655 433 652 q 441 702 433 667 l 441 707 q 432 729 441 711 q 435 732 435 729 q 427 741 429 732 q 431 771 432 753 q 387 820 426 791 q 328 846 387 838 l 290 848 l 271 846 q 238 847 256 848 q 208 823 221 834 z "},"":{"ha":843,"x_min":60,"x_max":779,"o":"m 720 868 q 771 835 756 868 l 779 808 q 753 789 768 789 q 720 796 747 789 q 638 755 638 790 q 568 611 638 728 l 550 543 q 502 482 515 523 l 502 475 q 517 479 511 475 q 568 475 548 475 q 572 479 572 475 l 598 467 l 620 475 q 675 433 675 457 q 579 399 675 407 q 561 392 579 392 l 557 392 q 506 407 547 392 l 462 399 l 462 361 l 465 339 l 454 300 q 462 286 462 300 l 528 286 q 568 279 554 286 q 598 290 572 279 q 646 256 646 274 q 602 214 628 214 q 480 226 496 218 q 465 221 473 221 q 462 226 465 226 l 462 221 q 473 191 462 212 q 469 138 469 159 l 469 131 q 521 104 469 125 l 547 108 q 650 55 650 108 q 657 28 650 44 q 557 2 627 12 q 528 9 534 9 q 498 2 505 2 q 473 9 491 2 q 436 6 440 6 q 395 9 420 6 q 299 2 321 5 q 259 9 285 9 l 233 6 q 193 55 207 6 q 229 108 193 86 l 237 108 q 267 97 252 108 q 344 108 280 103 q 380 157 380 119 l 380 210 l 384 218 q 355 229 355 224 l 277 221 l 255 226 q 244 221 248 221 l 229 229 l 208 221 q 178 274 178 228 l 182 274 q 208 290 208 286 l 252 286 l 377 286 l 384 282 q 377 316 377 311 q 380 385 380 369 q 370 414 370 405 l 362 411 l 358 411 q 351 422 358 422 l 314 422 q 244 418 284 422 q 233 422 237 422 l 226 418 q 189 441 189 428 l 189 448 q 222 482 189 482 l 326 482 l 332 479 l 332 482 q 307 532 323 511 l 311 539 l 307 539 q 303 535 307 535 q 273 627 285 566 l 226 690 q 178 774 226 725 q 60 804 60 787 l 60 819 q 134 865 60 857 q 174 861 159 861 l 200 861 q 208 853 208 860 l 215 857 l 248 857 q 288 861 263 857 q 351 827 351 852 l 351 823 q 303 778 351 788 l 296 766 q 344 637 317 686 q 370 600 363 607 l 366 592 l 370 592 q 373 596 370 596 q 417 524 393 524 q 502 667 447 537 q 543 770 543 727 q 480 812 480 800 l 480 819 q 509 853 480 853 l 532 853 l 635 865 q 664 861 655 861 q 720 868 699 868 z "},"":{"ha":688,"x_min":15,"x_max":718,"o":"m 90 945 q 111 918 111 937 q 92 886 111 914 q 115 843 115 886 l 111 831 q 115 827 111 827 q 108 747 108 770 l 111 741 q 64 691 102 691 l 49 694 l 49 691 q 15 731 15 706 q 40 762 15 743 q 62 737 62 756 q 56 719 56 727 l 56 715 q 64 706 56 711 q 92 772 92 720 l 92 787 l 90 806 l 92 812 q 90 815 92 815 l 92 831 l 92 837 q 90 849 92 844 l 92 855 q 58 871 92 869 q 33 868 46 868 l 31 868 q 24 874 24 868 l 24 877 q 33 886 24 882 l 52 886 q 64 883 59 886 q 77 886 70 886 l 90 886 l 90 890 q 71 924 71 909 q 90 945 71 939 m 524 936 l 536 936 q 558 899 558 936 l 555 892 l 555 890 q 558 880 555 880 l 555 865 l 555 831 q 564 821 555 826 q 593 859 593 851 q 602 880 593 880 l 630 883 l 636 880 q 648 883 642 883 q 658 880 654 880 q 661 883 658 883 l 673 868 q 661 861 668 868 l 645 865 q 599 818 599 850 q 617 802 612 802 l 614 796 q 670 756 633 756 l 670 743 l 652 737 q 645 743 652 743 l 642 743 l 636 741 l 636 747 q 623 743 629 747 l 614 743 l 614 741 q 589 753 591 741 q 599 778 599 770 q 583 809 589 778 l 580 809 l 555 781 l 555 765 l 558 759 l 564 762 q 577 753 577 758 l 577 750 l 574 743 q 571 747 571 743 l 521 741 q 505 756 513 741 l 512 759 l 515 759 q 518 756 518 759 q 540 809 540 756 l 540 840 q 536 852 540 847 q 540 865 540 858 q 536 890 540 867 l 540 896 q 521 920 540 920 q 505 930 505 920 q 524 936 515 936 m 422 890 q 462 849 451 890 l 459 843 q 462 833 459 840 q 459 793 459 807 q 490 759 459 772 l 493 753 q 465 743 479 743 q 446 747 463 743 l 440 743 l 422 747 l 412 747 l 412 759 q 440 806 440 774 l 440 815 q 434 840 440 818 l 437 840 q 412 865 433 865 q 381 831 387 848 q 372 812 372 827 q 397 765 372 765 l 400 759 q 375 743 400 748 l 363 747 l 332 743 q 322 753 332 748 l 332 772 l 338 768 q 353 827 353 768 l 350 833 q 353 846 353 839 l 353 861 q 347 868 353 868 q 338 865 341 865 q 322 877 323 871 q 328 883 323 883 l 350 883 q 375 865 363 883 l 378 865 q 422 890 398 884 m 251 886 q 279 865 279 883 q 276 852 279 858 l 279 824 q 276 765 276 775 q 307 756 283 765 l 307 750 q 300 743 307 743 q 298 747 298 743 q 294 743 294 747 q 241 756 281 743 q 214 743 233 749 q 164 772 164 751 q 167 784 164 779 q 164 827 164 810 l 164 859 q 139 871 164 865 l 139 877 q 145 883 140 883 l 176 883 q 189 861 182 883 l 186 831 l 186 796 q 198 762 186 779 l 204 765 l 223 765 q 251 812 251 802 q 257 855 255 851 q 248 865 253 855 l 241 861 l 229 861 q 223 877 229 867 q 251 886 233 884 m 521 859 l 527 859 l 527 855 q 521 849 527 849 l 521 859 m 174 707 l 205 707 q 218 686 218 702 l 218 654 l 220 639 q 258 657 230 639 l 258 654 l 264 657 l 267 657 q 311 605 304 657 l 308 589 q 314 576 310 576 q 308 539 310 547 q 332 521 321 536 q 330 511 330 515 l 301 515 l 295 511 q 277 517 285 517 l 271 517 l 261 511 l 258 527 q 289 580 289 527 l 289 586 q 271 635 289 627 q 233 611 239 627 q 218 574 218 598 l 218 543 q 245 521 218 539 l 239 511 l 233 515 l 208 515 q 193 509 193 514 q 171 521 171 515 q 199 533 171 526 q 202 546 199 546 l 199 561 l 199 580 q 202 583 199 583 l 199 589 l 199 635 q 196 682 199 651 q 165 701 165 687 l 174 707 m 81 657 l 81 654 l 87 657 q 140 614 123 657 q 146 605 143 605 q 143 602 146 602 l 146 586 l 146 580 q 109 517 146 537 l 102 521 q 72 511 85 511 q 19 589 19 528 q 81 657 19 640 m 401 657 q 410 654 407 654 q 419 657 416 657 q 448 642 423 653 q 466 611 466 630 q 463 595 466 600 l 469 533 l 481 533 l 494 546 l 497 546 q 503 539 503 545 q 478 515 487 515 q 448 530 473 515 l 413 515 l 389 515 q 345 546 360 515 q 401 589 345 585 q 450 608 450 600 q 432 635 450 635 l 401 642 q 376 608 376 637 l 370 608 l 354 611 l 354 620 q 401 657 354 646 m 612 657 q 652 617 642 657 l 649 611 q 652 602 649 608 q 649 561 649 575 q 680 527 649 541 l 684 521 q 655 511 669 511 q 637 515 653 511 l 631 511 l 612 515 l 602 515 l 602 527 q 631 574 631 543 l 631 583 q 625 608 631 585 l 627 608 q 602 633 623 633 q 572 598 578 616 q 562 580 562 595 q 587 533 562 533 l 590 527 q 566 511 590 516 l 553 515 l 522 511 q 513 521 522 516 l 522 539 l 528 536 q 543 595 543 536 l 541 602 q 543 614 543 607 l 543 629 q 537 635 543 635 q 528 633 531 633 q 513 645 514 639 q 519 651 513 651 l 541 651 q 566 633 553 651 l 568 633 q 612 657 589 652 m 43 589 q 84 533 43 533 q 127 589 127 533 q 94 633 116 621 l 87 633 q 43 589 43 623 m 711 627 l 718 627 l 718 623 q 711 617 718 617 l 711 627 m 401 568 l 385 570 q 363 549 363 570 q 410 527 366 531 q 454 570 454 546 l 448 583 q 401 568 401 576 m 40 481 l 71 481 q 83 459 83 476 l 83 428 l 87 412 q 124 431 96 412 l 124 428 l 130 431 l 133 431 q 176 378 170 431 l 174 363 q 180 351 176 351 q 174 313 176 321 q 198 294 187 310 q 195 286 195 289 l 168 288 l 161 286 q 142 292 151 292 l 136 292 l 127 286 l 124 301 q 155 353 155 301 l 155 360 q 136 410 155 401 q 99 385 105 401 q 83 347 83 372 l 83 317 q 111 294 83 313 l 105 286 l 99 288 l 74 288 q 58 282 58 288 q 37 294 37 290 q 65 307 37 300 q 68 319 65 319 l 65 335 l 65 353 q 68 357 65 357 l 65 363 l 65 410 q 62 456 65 425 q 31 475 31 460 l 40 481 m 484 431 q 515 397 515 420 l 515 385 q 490 376 513 376 q 475 391 482 378 q 478 400 478 397 l 469 406 q 422 366 450 406 l 425 360 l 425 351 q 422 347 425 347 l 425 341 l 422 326 q 444 307 422 307 l 447 307 q 459 310 454 307 q 478 286 478 310 q 469 288 472 288 q 463 282 469 282 q 441 288 450 288 q 428 286 435 286 q 422 292 428 292 q 372 282 414 286 q 357 292 357 286 l 357 294 q 404 310 357 305 l 404 326 q 400 353 404 342 q 404 385 404 370 l 404 388 l 400 410 l 378 406 l 363 406 q 357 416 357 406 q 369 428 359 425 l 375 425 q 388 428 377 425 q 425 412 412 428 l 437 412 q 484 431 437 424 m 595 431 l 595 428 l 602 431 q 654 388 637 431 q 661 378 658 378 q 658 376 661 376 l 661 360 l 661 353 q 624 292 661 311 l 618 294 q 587 286 600 286 q 534 363 534 302 q 595 431 534 414 m 276 425 q 335 372 314 425 l 335 357 l 319 347 l 319 351 q 264 341 308 345 q 248 347 248 341 q 233 335 234 341 l 233 332 q 264 304 245 304 q 279 301 269 301 q 316 323 292 301 l 329 323 q 332 317 329 317 q 286 286 332 298 l 279 286 q 214 326 226 286 q 211 353 211 342 l 211 366 q 273 425 211 415 l 276 425 m 559 363 q 599 307 559 307 q 642 363 642 307 q 608 406 631 395 l 602 406 q 559 363 559 397 m 235 372 l 235 363 l 267 360 q 313 372 313 360 l 294 404 q 235 372 235 404 m 235 481 l 260 481 l 260 479 l 235 479 l 235 481 m 250 299 l 253 299 q 259 293 259 298 l 259 290 l 250 290 l 250 299 m 627 256 q 640 246 640 251 l 640 240 q 550 181 587 240 q 541 147 544 171 l 544 147 q 581 165 581 163 q 646 122 646 159 q 652 104 649 122 q 634 54 652 87 l 634 47 l 612 47 q 590 38 598 38 q 525 106 525 48 q 566 231 525 203 q 627 256 586 245 m 297 233 q 350 186 332 222 l 359 140 q 309 37 354 49 q 303 31 309 31 l 269 31 q 216 112 216 66 q 297 233 216 233 m 441 234 q 463 224 463 231 l 463 197 q 460 156 463 177 q 463 128 463 144 l 460 106 l 463 106 q 460 104 463 104 l 463 66 l 463 38 q 457 32 463 32 l 441 35 l 441 54 q 444 110 441 87 q 441 163 441 130 q 429 181 441 181 q 401 175 409 175 l 398 175 q 391 181 391 175 l 391 187 q 441 234 421 207 m 111 220 q 176 171 176 220 l 176 161 q 108 100 176 121 q 67 56 67 64 q 77 41 67 52 l 92 43 q 101 41 95 43 l 120 43 l 142 43 q 144 47 144 43 l 151 43 l 157 43 l 170 56 l 173 56 l 176 35 q 167 25 172 35 l 160 28 l 132 28 q 123 31 123 28 l 108 28 l 61 28 q 49 41 56 28 q 126 125 49 90 q 148 140 126 130 q 160 159 160 153 q 136 208 160 182 l 130 205 l 98 208 q 64 161 79 208 l 58 159 l 55 165 l 55 177 q 104 220 81 220 l 111 220 m 272 214 q 244 180 244 193 q 232 146 239 170 l 235 131 l 232 125 q 272 53 246 53 q 278 50 272 50 q 340 127 330 50 l 337 146 l 340 146 q 325 196 337 167 q 272 214 312 214 m 547 110 l 547 104 q 581 60 552 60 l 587 60 q 634 91 615 60 l 634 113 q 593 150 634 142 l 581 150 q 547 110 547 129 m 649 54 l 649 45 l 643 45 l 643 47 q 649 54 644 54 z "},"":{"ha":671,"x_min":79,"x_max":573,"o":"m 345 949 q 463 913 441 949 q 514 825 514 873 l 514 821 q 511 806 514 819 l 503 810 q 507 799 507 802 q 492 747 497 780 l 488 747 q 396 766 412 755 l 382 784 q 385 836 385 815 q 352 861 385 854 q 345 880 345 873 q 349 884 349 880 l 345 884 l 345 880 l 337 884 l 334 884 q 252 799 298 884 l 252 784 q 275 718 252 718 l 290 688 q 286 684 286 688 l 290 684 q 293 688 290 688 q 345 637 313 637 q 422 559 361 611 q 473 475 456 521 q 551 390 511 467 q 573 286 573 302 l 573 283 q 544 216 573 241 q 455 91 511 91 l 448 80 q 466 -38 448 23 l 466 -52 q 433 -130 466 -95 q 389 -170 420 -156 q 349 -203 389 -194 l 311 -200 l 241 -200 q 179 -185 179 -191 q 149 -144 179 -159 q 134 -82 134 -105 q 186 -5 134 -49 q 249 -38 249 -18 q 271 -123 271 -75 q 323 -141 298 -141 q 341 -123 323 -136 l 349 -126 l 349 -123 q 345 -119 345 -123 q 389 -64 361 -115 q 400 -31 400 -35 q 370 14 400 -24 q 359 39 370 22 q 355 36 355 39 q 319 84 319 50 q 264 154 307 89 q 212 213 244 154 q 175 260 189 213 q 149 283 159 267 l 153 309 q 120 334 151 320 q 79 416 104 416 l 79 423 q 113 566 90 433 q 157 589 119 573 q 223 637 174 637 q 231 651 226 651 q 179 743 229 683 q 186 795 179 767 l 175 832 q 208 858 175 846 q 245 905 212 905 q 271 924 245 910 q 275 920 271 920 l 275 924 q 271 928 271 924 q 345 949 292 943 m 153 496 l 153 471 q 142 449 153 452 q 172 357 155 357 q 234 298 199 357 q 271 264 255 298 q 304 228 271 237 q 319 195 309 228 q 385 136 365 136 q 499 235 412 136 l 499 319 l 496 327 q 499 331 499 327 q 463 393 483 340 q 426 437 456 393 q 429 441 429 437 l 422 437 q 389 452 389 448 l 382 449 l 378 449 q 363 496 366 449 q 337 515 339 506 q 341 548 341 535 q 282 633 282 582 l 275 637 l 241 637 q 231 604 234 637 q 161 504 161 541 q 153 496 153 503 z "},"":{"ha":694,"x_min":100,"x_max":598,"o":"m 204 884 q 226 836 226 884 l 226 791 q 189 754 226 754 l 145 754 q 104 813 104 754 l 100 832 q 204 884 100 884 m 543 884 q 598 843 574 873 l 598 839 q 562 762 585 762 q 543 740 562 750 l 536 740 q 462 795 462 753 q 451 821 451 817 q 510 880 479 880 q 543 884 529 880 z "},"":{"ha":870,"x_min":78,"x_max":804,"o":"m 447 916 q 616 867 527 916 q 682 827 625 859 q 734 757 701 808 q 789 672 753 751 l 785 646 l 785 631 l 793 621 l 793 584 q 797 569 793 575 q 793 554 793 562 q 804 513 793 534 q 797 492 797 501 l 797 469 q 789 395 797 448 l 793 362 q 764 322 764 345 q 720 245 764 281 l 715 230 l 708 233 l 712 226 l 712 222 q 661 189 692 222 q 538 145 608 145 q 469 104 496 128 q 432 115 450 115 l 366 115 q 237 153 237 130 q 189 189 233 153 q 148 241 166 189 q 100 326 100 296 q 96 355 100 341 q 100 359 100 355 l 93 359 l 93 392 q 89 421 93 407 q 93 451 93 435 l 93 477 q 78 517 93 486 q 89 539 89 521 l 89 562 q 85 572 89 572 l 89 591 l 89 628 q 126 713 89 643 q 148 764 126 754 l 211 838 q 255 867 211 857 q 417 904 255 897 q 447 916 417 909 m 329 863 q 262 823 304 859 q 196 760 235 823 q 152 720 195 749 q 130 650 131 667 l 122 642 l 126 635 l 126 621 q 111 587 111 604 l 115 565 q 111 528 111 546 l 126 503 q 111 488 117 503 l 111 462 q 144 377 144 422 q 178 311 161 372 q 199 271 183 311 q 240 241 224 264 q 237 237 237 241 l 303 204 q 432 171 303 179 q 450 168 432 168 q 572 208 495 168 q 642 274 625 237 q 694 370 676 299 q 720 414 720 387 l 715 451 q 734 510 734 500 l 734 528 q 723 569 734 569 q 726 580 726 576 q 708 621 715 613 l 708 631 l 686 654 q 697 687 697 678 l 697 690 q 690 713 697 701 q 694 716 694 713 q 656 760 656 756 q 661 764 661 760 q 620 808 656 764 q 535 838 602 825 q 443 867 469 845 q 329 863 363 863 m 435 783 q 465 772 454 772 l 484 775 q 561 739 534 755 q 609 690 587 739 q 649 631 634 682 q 616 551 629 551 q 557 521 616 547 l 546 521 q 498 591 498 570 l 498 646 q 461 687 498 674 l 461 683 l 454 687 q 450 683 450 687 l 425 687 l 421 687 l 399 683 q 388 687 391 687 q 373 683 381 683 l 373 687 q 299 639 299 662 q 248 554 277 639 l 255 532 l 248 513 q 252 503 252 507 l 248 503 l 252 495 q 248 480 252 487 q 325 340 248 430 l 388 315 l 388 318 q 399 315 395 315 q 509 344 509 329 q 550 385 550 355 q 602 418 602 413 l 656 389 q 642 340 653 355 l 642 326 l 656 311 q 653 307 653 311 q 612 315 639 315 q 517 278 523 278 q 450 259 517 263 q 439 252 450 256 q 336 263 420 258 q 317 271 336 269 l 314 271 l 296 267 q 237 330 296 290 q 181 462 181 439 q 185 495 185 482 q 181 551 185 518 q 185 595 185 570 l 181 595 q 211 661 211 644 q 262 716 241 673 q 310 753 279 716 q 435 783 337 753 z "},"":{"ha":857,"x_min":66,"x_max":796,"o":"m 398 919 l 435 908 l 516 908 q 652 860 652 890 q 707 823 673 840 q 770 720 707 809 q 785 598 785 618 q 781 554 781 579 l 781 547 q 796 507 781 541 l 785 488 l 785 473 q 789 448 785 452 q 785 414 785 427 l 785 385 l 748 300 q 722 256 748 256 q 726 252 722 252 l 667 182 q 619 149 667 160 q 457 112 619 119 q 424 101 457 106 q 302 123 333 109 q 254 145 302 130 q 184 186 242 162 q 103 289 144 248 q 74 359 103 292 l 81 359 l 81 392 l 74 392 l 74 429 l 70 451 q 74 466 74 458 q 66 495 74 477 q 70 565 70 536 l 70 584 q 77 591 71 591 l 74 598 l 77 624 q 70 657 74 651 q 111 739 111 682 q 115 742 115 739 q 111 746 111 742 q 159 801 139 760 q 206 834 173 801 q 328 878 258 878 q 398 919 370 895 m 284 793 l 328 793 q 357 801 354 801 l 406 801 l 416 808 l 457 808 l 479 805 q 509 812 492 812 q 560 790 527 793 q 616 734 560 783 q 652 661 652 683 l 652 657 q 623 617 627 619 q 642 591 623 611 l 642 587 q 634 580 642 580 q 630 584 630 580 q 560 517 591 570 l 560 513 q 593 444 560 502 q 612 418 593 439 l 608 392 q 652 315 608 315 q 707 296 683 311 q 745 389 728 330 l 741 395 l 741 403 l 755 425 l 752 458 q 755 488 755 479 q 741 507 751 507 l 741 513 l 755 536 l 755 554 q 722 639 722 594 q 696 680 713 639 l 701 680 q 652 753 667 753 q 608 793 644 753 q 545 831 583 793 l 420 849 q 284 793 316 831 m 361 731 q 354 613 357 625 q 372 576 365 576 l 387 576 l 398 584 l 409 584 q 460 591 433 584 l 498 569 q 560 621 560 590 q 564 635 564 627 q 557 643 557 635 l 557 680 q 568 701 568 694 q 519 742 568 723 q 494 753 494 748 l 468 749 l 442 749 l 424 760 q 361 731 368 742 m 236 753 q 203 713 236 742 q 162 631 180 634 q 155 610 155 616 q 159 562 155 607 q 148 536 159 552 q 151 532 151 536 q 140 507 140 532 l 140 495 q 151 451 140 464 q 148 448 148 451 q 151 444 151 448 l 148 444 q 166 403 159 413 l 166 392 q 188 374 178 374 q 177 340 188 355 l 177 326 l 184 315 l 180 307 q 218 256 218 271 l 221 256 q 247 304 221 304 q 310 330 310 304 l 313 348 q 284 407 313 380 l 284 410 q 302 451 284 420 l 288 477 l 288 488 q 310 521 310 505 l 306 536 l 310 536 q 306 539 310 539 q 317 610 306 548 l 317 617 q 313 680 317 636 l 317 680 l 310 701 l 313 724 q 236 753 313 747 m 361 395 q 365 381 361 394 l 361 348 q 427 296 380 296 q 450 278 439 296 l 450 259 q 427 227 427 238 l 406 227 q 387 248 406 242 q 324 237 387 240 q 306 245 313 245 q 239 233 292 245 l 239 227 q 310 193 283 193 q 431 156 408 177 q 538 160 497 160 q 601 197 551 160 q 648 233 620 197 l 648 241 q 642 245 642 241 l 616 241 l 590 241 q 549 278 569 241 l 512 466 q 479 503 486 501 q 409 480 444 483 q 376 410 376 458 l 361 395 z "},"":{"ha":490,"x_min":75,"x_max":409,"o":"m 229 948 q 323 918 304 948 q 409 828 356 905 l 409 819 q 383 764 383 787 q 391 730 391 748 q 366 721 377 721 l 353 721 q 314 665 347 686 q 259 644 272 644 q 224 648 235 648 q 203 631 224 642 l 117 670 q 75 798 75 760 l 75 828 q 177 930 107 930 q 229 948 191 930 m 152 789 q 233 725 171 725 l 242 725 l 298 755 q 293 798 298 775 q 298 841 298 821 q 220 876 253 876 q 156 828 156 876 q 152 789 152 812 z "},"":{"ha":688,"x_min":22,"x_max":668,"o":"m 343 777 q 387 660 387 777 q 384 645 384 653 l 384 634 q 391 608 385 608 q 384 571 384 591 q 461 512 409 512 q 501 516 494 516 q 557 505 538 505 l 616 516 q 649 486 649 507 q 645 483 645 486 l 649 483 q 652 486 649 486 l 663 468 l 663 450 q 612 416 654 431 q 590 431 608 416 l 575 431 q 557 427 563 431 l 534 431 l 513 431 q 490 420 498 420 q 413 427 444 427 q 398 361 398 415 q 406 342 406 349 q 384 173 394 184 q 328 155 353 155 q 302 218 308 155 q 306 265 302 234 l 302 302 q 310 357 310 337 l 310 376 q 258 424 310 418 q 236 416 246 416 l 199 416 q 159 424 173 416 q 118 406 147 420 q 71 424 113 406 q 59 420 66 424 q 22 453 22 424 q 59 509 33 486 l 92 509 q 122 512 108 509 q 151 509 136 509 q 177 519 159 509 l 199 516 q 295 553 295 516 l 299 578 q 288 619 292 619 l 292 645 l 292 663 q 280 704 280 699 q 343 777 297 777 m 416 129 l 421 129 q 447 109 436 109 l 482 109 l 502 115 q 556 109 525 115 q 585 111 571 111 q 665 83 665 106 q 662 80 662 83 l 668 80 l 668 40 l 662 40 l 665 35 q 650 20 663 26 q 631 26 631 20 q 610 17 616 17 q 573 20 598 17 l 548 17 q 522 20 532 20 q 519 17 522 17 q 516 20 519 20 q 505 12 516 13 q 482 17 494 17 l 473 17 q 407 9 454 12 q 378 17 393 17 q 350 9 350 13 q 327 14 340 14 l 324 14 q 313 -5 319 -5 l 304 -5 q 279 14 282 14 q 261 12 263 12 l 198 26 q 118 20 132 23 q 92 26 104 26 l 58 23 q 29 60 48 41 l 29 71 q 75 111 29 111 l 81 117 q 141 109 126 115 q 163 111 153 109 q 244 106 234 106 q 267 115 258 115 q 296 109 290 109 l 301 109 q 378 115 323 109 q 396 109 388 109 q 416 129 411 109 z "},"":{"ha":536,"x_min":155,"x_max":404,"o":"m 363 963 l 368 963 q 404 924 391 963 q 380 872 395 924 q 352 853 368 858 q 349 856 352 856 q 308 834 349 850 q 264 780 308 821 q 232 761 264 768 q 199 739 222 739 l 163 739 q 155 755 155 741 q 169 799 166 768 q 191 840 180 799 q 240 908 213 840 q 259 927 245 908 q 287 943 282 943 l 300 941 q 363 963 314 949 z "},"":{"ha":744,"x_min":1,"x_max":704,"o":"m 629 25 q 608 53 608 34 q 626 84 608 56 q 604 127 604 84 l 608 140 q 604 143 608 143 q 611 224 611 200 l 608 230 q 654 279 616 279 l 670 277 l 670 279 q 704 239 704 264 q 679 208 704 228 q 657 233 657 214 q 663 252 663 243 l 663 255 q 654 264 663 259 q 626 199 626 250 l 626 184 l 629 165 l 626 159 q 629 155 626 155 l 626 140 l 626 134 q 629 121 626 127 l 626 115 q 661 100 626 102 q 685 102 673 102 l 688 102 q 694 96 694 102 l 694 94 q 685 84 694 89 l 667 84 q 654 87 660 84 q 642 84 649 84 l 629 84 l 629 81 q 648 47 648 61 q 629 25 648 31 m 195 35 l 182 35 q 161 72 161 35 l 163 78 l 163 81 q 161 90 163 90 l 163 106 l 163 140 q 154 149 163 144 q 126 112 126 119 q 117 90 126 90 l 89 87 l 83 90 q 71 87 77 87 q 61 90 64 90 q 58 87 61 87 l 45 102 q 58 109 50 102 l 73 106 q 120 153 120 121 q 102 168 106 168 l 104 174 q 49 214 86 214 l 49 227 l 67 233 q 73 227 67 227 l 77 227 l 83 230 l 83 224 q 96 227 90 224 l 104 227 l 104 230 q 130 218 127 230 q 120 193 120 200 q 136 161 130 193 l 139 161 l 163 190 l 163 205 l 161 212 l 154 208 q 142 218 142 213 l 142 220 l 145 227 q 148 224 148 227 l 198 230 q 213 214 206 230 l 207 212 l 204 212 q 201 214 201 212 q 179 161 179 214 l 179 131 q 182 118 179 123 q 179 106 179 113 q 182 81 179 103 l 179 75 q 198 50 179 50 q 213 41 213 50 q 195 35 203 35 m 297 81 q 257 121 267 81 l 260 127 q 257 137 260 131 q 260 177 260 163 q 229 212 260 198 l 226 218 q 254 227 239 227 q 272 224 256 227 l 279 227 l 297 224 l 307 224 l 307 212 q 279 165 279 196 l 279 155 q 285 131 279 153 l 281 131 q 307 106 286 106 q 338 140 331 122 q 347 159 347 143 q 322 205 347 205 l 319 212 q 344 227 319 222 l 356 224 l 387 227 q 397 218 387 222 l 387 199 l 381 202 q 366 143 366 202 l 368 137 q 366 125 366 132 l 366 109 q 372 102 366 102 q 381 106 378 106 q 397 94 395 100 q 390 87 395 87 l 368 87 q 344 106 356 87 l 340 106 q 297 81 321 86 m 468 84 q 440 106 440 87 q 443 118 440 113 l 440 146 q 443 205 443 195 q 412 214 436 205 l 412 220 q 418 227 412 227 q 421 224 421 227 q 425 227 425 224 q 477 214 437 227 q 505 227 486 221 q 555 199 555 220 q 552 186 555 192 q 555 143 555 160 l 555 112 q 580 100 555 105 l 580 94 q 574 87 578 87 l 543 87 q 530 109 537 87 l 533 140 l 533 174 q 521 208 533 192 l 515 205 l 496 205 q 468 159 468 168 q 462 115 464 119 q 471 106 466 115 l 477 109 l 490 109 q 496 94 490 104 q 468 84 486 86 m 198 112 l 191 112 l 191 115 q 198 121 191 121 l 198 112 m 545 263 l 513 263 q 501 285 501 269 l 501 316 l 498 332 q 461 313 489 332 l 461 316 l 454 313 l 452 313 q 408 366 414 313 l 411 381 q 405 394 409 394 q 411 431 409 423 q 387 450 397 434 q 389 459 389 456 l 418 456 l 424 459 q 442 453 434 453 l 448 453 l 458 459 l 461 444 q 430 391 430 444 l 430 385 q 448 335 430 344 q 486 359 479 343 q 501 397 501 372 l 501 428 q 473 450 501 431 l 479 459 l 486 456 l 511 456 q 526 462 526 456 q 548 450 548 455 q 520 437 548 444 q 517 425 520 425 l 520 410 l 520 391 q 517 388 520 388 l 520 381 l 520 335 q 523 288 520 319 q 554 270 554 283 l 545 263 m 638 313 l 638 316 l 631 313 q 579 357 596 313 q 572 366 576 366 q 576 369 572 369 l 572 385 l 572 391 q 610 453 572 433 l 616 450 q 647 459 634 459 q 700 381 700 442 q 638 313 700 331 m 318 313 q 309 316 312 316 q 300 313 302 313 q 271 329 296 317 q 253 359 253 340 q 256 375 253 370 l 250 437 l 237 437 l 225 425 l 222 425 q 216 431 216 426 q 241 456 232 456 q 271 440 246 456 l 306 456 l 330 456 q 374 425 359 456 q 318 381 374 385 q 269 363 269 371 q 287 335 269 335 l 318 329 q 343 363 343 334 l 349 363 l 365 359 l 365 351 q 318 313 365 325 m 107 313 q 66 353 77 313 l 70 359 q 66 369 70 363 q 70 410 70 395 q 39 444 70 430 l 35 450 q 64 459 50 459 q 82 456 66 459 l 88 459 l 107 456 l 116 456 l 116 444 q 88 397 88 428 l 88 388 q 94 363 88 385 l 92 363 q 116 338 96 338 q 147 372 141 355 q 157 391 157 375 q 132 437 157 437 l 129 444 q 153 459 129 454 l 166 456 l 197 459 q 206 450 197 454 l 197 431 l 191 434 q 175 375 175 434 l 178 369 q 175 357 175 363 l 175 341 q 182 335 175 335 q 191 338 187 338 q 206 326 205 332 q 200 319 205 319 l 178 319 q 153 338 165 319 l 151 338 q 107 313 130 318 m 675 381 q 635 437 675 437 q 591 381 591 437 q 625 338 603 350 l 631 338 q 675 381 675 347 m 7 344 l 1 344 l 1 347 q 7 353 1 353 l 7 344 m 318 403 l 334 400 q 355 422 355 400 q 309 444 353 439 q 265 400 265 425 l 271 388 q 318 403 318 394 m 679 490 l 648 490 q 635 511 635 494 l 635 543 l 632 558 q 595 539 623 558 l 595 543 l 589 539 l 586 539 q 543 592 549 539 l 545 608 q 539 620 543 620 q 545 657 543 649 q 520 676 532 661 q 524 685 524 682 l 551 682 l 557 685 q 576 679 568 679 l 583 679 l 592 685 l 595 669 q 564 617 564 669 l 564 610 q 583 561 564 570 q 620 586 614 569 q 635 623 635 599 l 635 654 q 608 676 635 658 l 614 685 l 620 682 l 645 682 q 660 688 660 683 q 682 676 682 681 q 654 663 682 670 q 651 651 654 651 l 654 635 l 654 617 q 651 614 654 614 l 654 608 l 654 561 q 657 514 654 545 q 688 496 688 510 l 679 490 m 235 539 q 203 573 203 551 l 203 586 q 229 595 205 595 q 244 580 237 593 q 241 570 241 574 l 250 564 q 297 604 269 564 l 294 610 l 294 620 q 297 623 294 623 l 294 629 l 297 645 q 275 663 297 663 l 272 663 q 260 661 265 663 q 241 685 241 661 q 250 682 247 682 q 256 688 250 688 q 278 682 269 682 q 291 685 283 685 q 297 679 291 679 q 347 688 305 684 q 362 679 362 684 l 362 676 q 315 661 362 665 l 315 645 q 319 617 315 629 q 315 586 315 600 l 315 583 l 319 561 l 340 564 l 356 564 q 362 555 362 564 q 350 543 360 545 l 343 545 q 331 543 342 545 q 294 558 307 543 l 281 558 q 235 539 281 547 m 123 539 l 123 543 l 117 539 q 64 583 81 539 q 58 592 61 592 q 61 595 58 595 l 58 610 l 58 617 q 95 679 58 660 l 101 676 q 132 685 119 685 q 185 608 185 669 q 123 539 185 557 m 443 545 q 384 598 405 545 l 384 614 l 399 623 l 399 620 q 455 629 410 626 q 471 623 471 629 q 486 635 485 629 l 486 639 q 455 667 474 667 q 439 669 450 669 q 402 648 427 669 l 390 648 q 387 654 390 654 q 433 685 387 672 l 439 685 q 505 645 493 685 q 508 617 508 628 l 508 604 q 446 545 508 555 l 443 545 m 160 608 q 120 663 160 663 q 77 608 77 663 q 111 564 88 576 l 117 564 q 160 608 160 573 m 484 598 l 484 608 l 452 610 q 406 598 406 610 l 425 567 q 484 598 484 567 m 484 489 l 458 489 l 458 492 l 484 492 l 484 489 m 469 671 l 466 671 q 460 677 460 673 l 460 681 l 469 681 l 469 671 m 91 715 q 79 724 79 720 l 79 730 q 169 789 132 730 q 178 823 175 800 l 175 823 q 138 805 138 808 q 73 848 73 811 q 66 867 69 848 q 85 917 66 883 l 85 923 l 106 923 q 128 932 121 932 q 194 864 194 922 q 153 740 194 767 q 91 715 132 726 m 422 737 q 369 784 387 748 l 360 831 q 410 933 365 922 q 416 939 410 939 l 450 939 q 503 859 503 904 q 422 737 503 737 m 277 736 q 256 746 256 740 l 256 774 q 259 814 256 793 q 256 842 256 826 l 259 864 l 256 864 q 259 867 256 867 l 256 904 l 256 932 q 262 939 256 939 l 277 935 l 277 917 q 275 861 277 883 q 277 808 277 841 q 290 789 277 789 q 318 795 310 795 l 321 795 q 327 789 327 795 l 327 783 q 277 736 298 764 m 608 750 q 543 800 543 750 l 543 809 q 611 871 543 849 q 652 914 652 907 q 642 930 652 918 l 627 927 q 618 930 623 927 l 599 927 l 577 927 q 574 924 574 927 l 568 927 l 562 927 l 549 914 l 546 914 l 543 936 q 552 945 547 936 l 559 942 l 587 942 q 595 939 595 942 l 611 942 l 658 942 q 670 930 663 942 q 593 846 670 881 q 571 831 593 840 q 559 812 559 818 q 583 762 559 789 l 589 765 l 621 762 q 654 809 640 762 l 661 812 l 664 806 l 664 793 q 614 750 638 750 l 608 750 m 447 756 q 475 790 475 778 q 487 824 480 800 l 484 840 l 487 846 q 447 918 473 918 q 441 920 447 920 q 378 843 389 920 l 382 824 l 378 824 q 394 774 382 804 q 447 756 407 756 m 172 861 l 172 867 q 138 910 167 910 l 132 910 q 85 880 104 910 l 85 858 q 125 821 85 829 l 138 821 q 172 861 172 842 m 69 917 l 69 926 l 76 926 l 76 923 q 69 917 75 917 z "},"":{"ha":1009,"x_min":8,"x_max":996,"o":"m 804 778 l 810 778 q 852 742 840 778 q 849 625 849 667 q 840 594 844 594 l 843 588 l 843 552 q 849 494 843 519 l 840 471 q 843 429 843 446 q 837 377 837 388 l 837 362 q 852 296 837 348 q 870 278 852 278 l 888 278 q 891 281 891 278 q 933 275 895 279 q 963 278 949 278 q 996 239 996 262 q 957 214 996 229 q 885 230 936 224 q 849 202 880 220 q 837 148 837 170 q 852 19 852 72 q 828 -2 849 -2 q 780 37 780 5 q 792 130 792 119 l 792 157 l 798 157 q 737 218 798 218 q 656 230 720 223 q 637 224 651 230 q 595 227 612 227 l 566 227 q 545 214 551 214 q 503 257 503 231 q 532 335 511 294 q 568 387 532 340 q 608 465 568 393 q 641 531 608 480 q 668 591 661 559 q 707 643 683 625 q 731 691 719 679 l 728 691 q 753 745 736 725 q 804 778 785 778 m 629 374 l 623 377 q 626 368 626 372 q 587 330 612 330 l 584 314 l 584 308 q 650 272 590 272 l 662 269 q 698 278 690 278 l 741 269 l 755 269 q 798 326 778 269 q 795 389 795 366 l 795 395 q 786 422 795 405 l 795 483 q 789 510 795 488 q 795 549 795 536 q 774 612 795 612 q 728 552 749 602 q 701 504 710 552 q 671 456 690 504 q 629 374 630 409 m 192 930 q 261 903 261 923 q 264 900 264 903 q 261 897 261 900 q 271 894 264 897 l 264 764 q 267 734 267 749 q 256 668 256 689 q 264 545 261 639 q 256 503 258 528 q 261 478 256 497 l 256 445 q 261 403 261 422 l 261 357 q 267 334 267 336 q 261 315 267 328 q 264 258 264 282 l 264 252 q 246 216 264 224 l 216 216 q 189 243 189 220 l 192 261 q 186 291 186 287 l 189 328 l 186 342 q 189 373 189 358 l 186 391 q 198 457 189 431 l 198 514 l 201 520 q 186 587 189 520 q 192 610 186 592 q 189 659 189 642 l 189 689 q 149 747 178 747 l 134 747 q 83 722 111 726 q 80 725 83 725 q 71 716 80 721 l 47 716 q 8 755 8 727 q 98 822 8 784 q 177 918 98 839 q 192 930 177 922 m 690 1003 l 661 1003 q 681 994 671 1003 q 684 997 681 997 q 694 932 711 983 q 701 911 701 932 l 701 905 l 668 878 q 661 843 661 863 q 631 808 661 827 q 602 740 620 772 q 578 672 602 725 q 545 607 567 646 q 513 534 543 570 q 484 465 502 498 q 448 383 484 433 q 439 365 448 365 q 442 362 439 362 q 398 250 415 309 l 383 229 l 339 123 q 333 96 339 118 q 336 87 336 90 q 299 52 336 83 q 273 -19 281 -19 l 264 -14 q 241 14 241 -14 q 286 149 261 93 q 323 197 323 180 q 341 262 323 214 q 368 294 355 262 l 371 294 q 362 320 365 320 l 395 380 q 415 409 395 383 q 430 460 415 460 q 448 522 448 503 q 492 610 492 550 l 489 628 q 516 657 489 639 q 542 707 542 703 l 548 705 l 545 711 q 574 781 558 725 q 598 852 585 781 q 610 876 602 876 l 607 882 l 607 894 q 628 944 625 911 q 661 994 635 949 q 690 1003 680 1003 z "},"":{"ha":1133,"x_min":14,"x_max":1037,"o":"m 198 931 q 267 904 267 924 q 271 901 271 904 q 267 898 267 901 q 277 895 271 898 l 271 766 q 273 736 273 750 q 262 669 262 690 q 271 546 267 640 q 262 504 264 529 q 267 479 262 498 l 262 446 q 267 404 267 424 l 267 359 q 273 335 273 338 q 267 317 273 330 q 271 260 271 283 l 271 254 q 252 217 271 226 l 222 217 q 195 244 195 222 l 198 262 q 192 292 192 288 l 195 329 l 192 344 q 195 374 195 359 l 192 393 q 204 458 195 432 l 204 515 l 207 522 q 192 588 195 522 q 198 612 192 593 q 195 660 195 643 l 195 690 q 155 748 184 748 l 140 748 q 90 724 117 728 q 86 726 90 726 q 77 718 86 722 l 54 718 q 14 757 14 728 q 104 823 14 785 q 183 919 104 840 q 198 931 183 924 m 703 991 l 673 991 q 694 981 684 991 q 697 985 694 985 q 707 920 724 970 q 713 899 713 920 l 713 893 l 681 866 q 673 831 673 850 q 644 795 673 815 q 614 728 633 760 q 591 660 614 713 q 558 595 580 633 q 526 522 555 557 q 496 453 515 486 q 460 371 496 420 q 452 353 460 353 q 455 350 452 350 q 411 237 428 296 l 396 217 l 352 111 q 346 83 352 106 q 349 75 349 78 q 312 40 349 71 q 286 -31 294 -31 l 277 -26 q 254 1 254 -26 q 298 137 274 81 q 336 184 336 168 q 354 250 336 201 q 381 282 368 250 l 384 282 q 375 308 378 308 l 408 368 q 428 397 408 371 q 443 448 428 448 q 460 509 460 491 q 505 598 505 538 l 502 616 q 529 645 502 627 q 555 695 555 690 l 561 692 l 558 699 q 587 769 571 713 q 611 840 597 769 q 623 863 614 863 l 620 869 l 620 882 q 641 932 638 899 q 673 981 648 937 q 703 991 692 991 m 781 695 l 808 689 q 841 692 829 692 q 959 659 898 671 l 1004 605 q 1001 602 1001 605 l 1004 602 q 1007 605 1004 605 q 1037 500 1020 605 q 998 388 1020 388 q 935 334 996 378 q 886 294 919 294 q 802 264 813 264 q 775 235 795 264 q 730 204 747 235 q 690 168 715 204 q 648 104 648 134 q 685 54 648 54 q 727 62 724 62 l 733 62 q 769 54 741 62 l 772 54 q 814 62 811 62 l 817 62 q 865 56 831 62 q 932 68 912 63 q 962 60 938 68 q 998 102 981 60 l 1010 111 l 1013 111 l 1022 104 l 1019 75 l 1019 68 l 1031 50 q 1007 8 1031 25 q 1004 12 1007 12 l 1004 8 q 1007 5 1007 8 q 995 -1 1002 5 q 965 8 993 -1 q 944 5 956 8 q 823 14 869 8 q 796 5 804 5 q 751 12 784 5 q 742 8 747 12 q 715 12 725 12 q 633 2 699 6 q 600 20 604 20 l 604 26 l 597 23 q 583 41 592 23 l 585 47 l 585 96 q 652 225 601 171 q 712 262 652 235 q 760 292 726 292 q 805 315 775 315 q 889 385 850 337 q 953 430 930 385 q 977 472 971 430 q 941 578 959 578 q 901 629 907 629 q 886 641 886 633 l 880 641 q 856 638 868 641 l 841 641 q 823 638 839 641 q 790 653 798 653 q 733 638 779 646 q 688 608 716 620 q 658 551 688 600 q 631 478 650 478 q 625 472 631 472 l 612 472 q 597 509 600 472 q 637 578 597 560 q 682 650 676 650 q 709 671 687 650 q 781 692 778 692 q 784 689 781 689 l 784 692 q 781 695 781 692 z "},"":{"ha":1158,"x_min":77,"x_max":1160,"o":"m 968 785 l 974 785 q 1016 749 1004 785 q 1013 631 1013 674 q 1004 601 1008 601 l 1007 595 l 1007 559 q 1013 501 1007 526 l 1004 477 q 1007 435 1007 452 q 1001 384 1001 395 l 1001 369 q 1016 303 1001 355 q 1034 285 1016 285 l 1052 285 q 1055 288 1055 285 q 1097 282 1059 286 q 1127 285 1113 285 q 1160 245 1160 269 q 1121 221 1160 235 q 1049 237 1100 231 q 1013 209 1044 227 q 1001 155 1001 176 q 1016 26 1016 79 q 992 5 1013 5 q 944 43 944 12 q 956 137 956 125 l 956 164 l 962 164 q 901 224 962 224 q 820 237 884 230 q 802 231 815 237 q 760 233 777 233 l 730 233 q 709 221 715 221 q 667 264 667 238 q 696 342 675 300 q 732 393 696 347 q 772 471 732 400 q 805 538 772 487 q 832 598 825 566 q 871 650 847 631 q 895 698 883 686 l 892 698 q 917 751 900 732 q 968 785 949 785 m 793 381 l 787 384 q 790 375 790 378 q 751 336 777 336 l 748 321 l 748 315 q 814 279 754 279 l 826 276 q 862 285 854 285 l 905 276 l 920 276 q 962 333 942 276 q 959 396 959 372 l 959 402 q 950 429 959 412 l 959 490 q 953 517 959 494 q 959 555 959 543 q 938 619 959 619 q 892 559 913 608 q 865 511 874 559 q 835 463 854 511 q 793 381 794 416 m 867 1010 l 838 1010 q 859 1000 848 1010 q 862 1004 859 1004 q 872 939 888 989 q 878 918 878 939 l 878 912 l 846 885 q 838 850 838 869 q 808 814 838 834 q 779 747 798 779 q 755 679 779 732 q 723 614 745 652 q 691 541 720 576 q 661 472 680 505 q 625 390 661 439 q 617 372 625 372 q 620 369 617 369 q 576 256 593 315 l 561 236 l 517 130 q 511 102 517 125 q 514 94 514 97 q 477 59 514 90 q 450 -12 459 -12 l 442 -7 q 418 20 418 -7 q 463 156 439 100 q 501 203 501 187 q 519 269 501 220 q 546 301 532 269 l 549 301 q 540 327 543 327 l 572 387 q 593 416 572 390 q 608 467 593 467 q 625 528 625 510 q 669 617 669 557 l 667 635 q 694 664 667 646 q 720 714 720 709 l 726 711 l 723 718 q 752 788 736 732 q 776 859 762 788 q 787 882 779 882 l 785 888 l 785 901 q 806 951 803 918 q 838 1000 813 956 q 867 1010 857 1010 m 315 931 l 345 922 l 420 931 q 505 901 505 931 q 513 873 509 901 q 498 841 506 841 q 495 844 498 844 l 498 838 q 435 781 450 808 q 393 711 393 760 q 387 696 390 711 q 435 663 387 675 q 522 555 522 587 q 541 497 538 497 q 532 473 532 477 l 534 431 q 492 335 501 351 q 465 295 489 335 q 405 238 461 295 l 351 202 q 291 169 308 169 q 170 118 188 118 q 125 115 132 115 q 92 154 92 120 q 140 190 112 184 q 155 196 150 196 q 179 193 176 193 q 212 220 185 193 q 270 244 236 220 q 339 274 300 244 q 342 271 339 271 l 342 274 q 339 277 339 274 q 369 317 355 290 l 435 380 q 459 452 459 441 l 459 494 q 420 570 459 512 q 351 602 391 602 q 330 612 350 608 q 260 587 263 597 q 215 570 260 576 q 191 576 196 576 l 194 581 l 188 578 q 176 587 176 583 q 179 591 179 587 l 173 591 l 173 597 q 203 648 173 623 l 209 645 l 209 648 q 206 650 206 648 q 267 720 242 682 q 309 751 274 720 q 351 810 330 763 l 351 823 q 312 844 349 832 q 303 852 312 848 l 291 852 q 258 835 270 835 l 227 850 l 188 831 q 143 787 160 820 l 131 781 q 77 841 77 781 q 127 907 85 907 q 191 922 170 922 l 194 922 l 200 919 q 206 925 201 925 l 221 925 q 270 919 225 925 l 285 919 q 315 931 294 919 z "},"":{"ha":650,"x_min":60,"x_max":591,"o":"m 385 -85 q 230 -63 311 -85 q 134 -23 164 -63 q 83 18 106 -23 l 86 25 l 83 25 q 79 22 83 22 q 60 84 64 54 l 75 213 l 71 213 q 123 294 71 256 q 171 320 157 320 q 215 349 189 320 q 248 382 222 349 q 281 427 281 382 q 274 460 281 443 q 322 508 290 508 l 330 508 q 392 445 359 508 l 392 416 q 286 254 392 347 q 212 210 286 243 q 197 161 204 200 q 182 128 182 157 l 182 95 q 252 14 182 14 q 286 -8 268 -8 q 440 22 440 3 q 495 55 490 50 q 458 95 495 83 l 458 99 l 462 106 l 458 106 q 454 102 458 102 q 444 151 444 121 l 444 154 l 462 224 q 513 246 492 246 q 554 198 522 246 q 591 136 568 186 q 569 58 581 58 q 488 -45 543 -14 l 399 -78 q 385 -85 385 -78 m 351 596 q 241 677 279 596 q 318 784 262 784 l 330 784 q 433 714 405 784 q 444 663 433 700 q 429 644 439 646 q 425 648 429 648 l 429 640 l 429 637 q 359 596 408 637 l 351 596 z "},"":{"ha":726,"x_min":2,"x_max":709,"o":"m 244 1164 q 260 1148 260 1153 q 292 1132 292 1141 l 292 1122 l 289 1116 l 324 1097 q 353 1042 324 1059 q 376 994 353 1008 q 401 929 382 986 q 382 907 388 907 l 363 907 q 328 942 338 942 q 254 1003 273 997 q 195 1078 195 1054 q 221 1164 203 1164 l 244 1164 m 330 852 l 337 852 q 374 819 371 828 q 370 814 370 819 l 374 814 q 378 819 374 819 l 400 785 q 415 734 408 768 q 411 730 411 734 q 452 612 425 719 q 467 538 460 612 q 496 424 496 500 q 532 336 532 365 l 532 325 l 529 317 q 562 207 546 317 q 588 144 570 196 q 650 111 609 127 l 650 107 q 654 111 654 107 q 709 56 709 98 q 625 7 685 7 q 595 15 606 15 q 459 12 502 12 q 437 22 437 15 q 441 26 441 22 l 433 22 q 415 52 415 35 l 415 78 q 448 104 415 104 l 470 104 q 492 159 482 104 l 492 189 q 411 243 492 229 q 408 247 411 247 l 363 243 q 271 247 302 247 q 212 155 212 208 l 212 140 q 267 81 212 104 l 267 78 l 275 81 q 300 30 296 81 q 260 4 300 18 l 238 7 q 190 -3 233 7 q 168 4 178 4 l 153 4 q 35 -11 102 4 q 2 45 26 -2 l 2 48 q 116 100 2 85 q 149 174 138 127 q 157 192 157 174 l 153 210 q 168 251 168 247 q 164 295 164 289 q 208 454 201 408 q 245 627 238 570 q 256 656 253 627 q 253 678 256 659 q 286 781 286 737 q 297 804 297 785 l 297 833 q 330 852 297 844 m 260 372 q 326 325 269 325 q 359 317 333 321 q 441 336 431 326 l 444 354 l 444 361 q 426 479 429 398 q 404 568 416 479 q 367 663 379 602 q 349 671 360 663 q 308 568 328 671 q 279 446 297 470 q 260 372 279 407 z "},"":{"ha":736,"x_min":2,"x_max":720,"o":"m 444 1162 l 467 1162 q 492 1075 484 1162 q 435 1001 492 1051 q 361 940 415 994 q 326 905 349 940 l 307 905 q 287 927 300 905 q 312 991 307 984 q 335 1040 335 1006 q 363 1095 363 1056 l 399 1114 l 396 1120 l 396 1129 q 428 1145 396 1138 q 444 1162 428 1150 m 330 861 l 341 861 q 393 810 362 861 q 411 766 406 810 q 448 669 433 749 q 496 493 465 574 q 525 397 496 445 q 570 246 543 316 q 625 128 589 128 q 706 98 666 110 q 720 54 720 77 q 661 3 720 15 l 640 6 q 576 3 601 3 q 532 10 536 10 q 481 3 497 3 q 426 58 426 15 l 426 87 q 485 106 426 102 q 499 194 499 124 q 389 242 499 234 l 363 246 l 322 231 q 293 242 304 242 l 286 242 q 231 201 269 242 q 216 168 216 197 l 216 154 l 241 95 q 311 36 285 95 q 256 -1 294 -1 l 227 -1 q 179 3 203 -1 q 54 -12 87 -12 q 2 58 27 -12 l 2 69 q 16 77 7 69 l 43 77 q 75 95 56 77 l 109 95 q 142 139 136 95 q 160 224 160 170 q 172 250 172 232 l 172 298 q 208 427 208 414 q 231 526 208 439 q 267 695 249 587 q 293 813 279 695 q 330 861 321 861 m 315 589 q 319 541 319 557 q 293 445 307 541 l 275 368 q 355 319 275 326 q 367 316 355 316 q 444 334 406 332 q 452 357 452 347 l 452 363 q 433 471 437 395 l 407 574 l 370 659 l 359 666 l 349 666 q 326 610 335 666 q 315 589 319 610 z "},"":{"ha":722,"x_min":2,"x_max":705,"o":"m 354 1149 q 377 1120 377 1149 q 403 1059 385 1120 q 445 1010 445 1036 q 448 1007 448 1010 l 448 987 q 487 920 448 964 l 493 909 q 471 871 493 888 q 468 874 468 871 l 461 871 l 454 871 q 406 884 406 878 q 393 920 406 894 q 396 929 396 926 q 374 987 374 964 q 351 1046 360 1039 q 345 1048 345 1046 q 328 1039 328 1044 l 328 1007 q 292 945 292 983 q 290 920 292 937 l 292 913 l 283 897 l 283 877 q 267 867 267 876 q 221 890 221 867 q 208 909 217 890 q 244 981 221 963 q 276 1072 244 1017 q 334 1149 276 1131 l 354 1149 m 363 842 q 400 820 385 842 l 396 812 q 404 809 404 812 q 458 599 458 621 q 488 514 488 526 l 484 488 q 517 374 517 395 q 514 370 514 374 q 525 363 520 370 q 566 208 540 256 q 599 131 566 144 q 705 93 705 123 l 702 71 l 702 45 q 676 31 696 31 q 650 31 655 31 q 517 20 578 20 q 466 24 471 24 l 458 13 q 407 35 407 16 l 407 61 q 418 87 407 73 q 484 131 484 115 l 484 153 q 448 245 471 245 l 426 245 l 389 234 q 359 241 373 234 q 223 201 243 269 q 234 168 223 188 l 219 127 l 219 109 q 296 43 296 90 l 296 24 q 278 2 283 2 l 271 2 q 241 9 245 9 q 208 2 232 9 q 160 24 187 2 l 149 24 q 72 12 112 24 l 2 44 q 9 56 5 56 q 68 104 9 95 q 131 164 131 119 q 164 296 164 273 q 212 455 186 342 q 223 511 216 511 l 249 581 q 275 661 249 625 q 308 779 275 743 q 363 842 308 842 m 385 650 q 359 691 380 691 q 337 687 340 687 q 315 610 328 610 q 293 540 308 562 l 296 488 q 282 448 286 448 q 260 334 282 387 q 263 327 263 334 q 348 315 263 317 q 404 309 404 303 q 444 339 444 315 l 444 404 q 393 562 411 485 l 396 588 q 381 629 396 594 q 385 643 385 635 l 385 650 z "},"":{"ha":718,"x_min":-2,"x_max":701,"o":"m 248 1050 q 276 1041 276 1043 l 281 1045 l 288 1045 q 380 981 324 1045 q 424 939 387 960 l 435 930 q 491 949 481 930 q 522 990 515 973 l 522 1013 q 549 1041 522 1041 q 569 1010 569 1041 l 569 1006 q 538 907 569 964 q 513 879 513 907 l 508 876 l 497 876 l 480 879 q 452 869 458 869 l 441 869 l 405 895 l 391 892 l 388 892 q 371 932 382 932 l 366 930 l 357 930 l 315 958 l 298 958 q 259 987 298 977 q 250 997 259 989 q 186 926 201 969 q 167 882 186 896 l 159 882 q 139 945 143 882 l 139 962 q 170 1010 159 983 l 200 1038 q 248 1050 237 1050 m 359 862 q 396 839 380 862 l 392 831 q 399 827 399 831 q 454 611 454 633 q 484 524 484 536 l 480 497 q 513 380 513 401 q 510 376 510 380 q 521 368 516 376 q 562 208 536 258 q 595 129 562 142 q 701 90 701 121 l 698 66 l 698 40 q 672 25 692 25 q 646 26 651 26 q 513 15 574 15 q 462 18 467 18 l 454 7 q 403 31 403 10 l 403 57 q 414 83 403 69 q 480 129 480 113 l 480 152 q 444 246 467 246 l 422 246 l 385 235 q 355 243 369 235 q 219 201 239 271 q 230 166 219 187 l 215 125 l 215 106 q 292 38 292 87 l 292 18 q 274 -4 279 -4 l 267 -4 q 237 3 241 3 q 204 -4 228 3 q 156 18 183 -4 l 145 18 q 68 6 108 18 l -2 39 q 5 51 1 51 q 64 102 5 92 q 127 163 127 116 q 160 299 160 275 q 208 463 182 347 q 219 520 212 520 l 245 592 q 271 675 245 637 q 304 797 271 760 q 359 862 304 862 m 381 664 q 355 706 376 706 q 333 702 336 702 q 311 622 323 622 q 289 550 304 573 l 292 497 q 278 455 282 455 q 256 338 278 392 q 259 331 259 338 q 344 319 259 321 q 399 313 399 307 q 440 343 440 318 l 440 410 q 389 573 407 494 l 392 600 q 377 642 392 606 q 381 656 381 648 l 381 664 z "},"":{"ha":718,"x_min":-2,"x_max":701,"o":"m 156 1046 q 222 991 222 1018 q 197 921 211 921 q 167 899 192 909 q 104 961 140 899 q 101 972 104 965 q 156 1046 122 1046 m 528 1046 q 580 983 559 1036 q 532 909 580 949 q 480 947 483 931 l 484 954 q 469 987 469 954 l 469 991 q 528 1046 505 1046 m 138 924 l 138 921 l 149 913 l 149 917 l 138 924 m 340 869 q 395 804 395 869 q 429 681 429 766 q 454 597 454 643 l 480 525 q 492 467 487 525 q 539 302 517 350 q 572 164 539 277 q 635 96 572 117 q 694 31 694 71 q 701 18 698 31 l 631 -1 q 554 18 591 18 l 543 18 q 495 -4 516 -4 q 462 3 471 3 q 433 -4 458 3 l 425 -4 q 407 18 420 -4 l 407 38 q 484 106 407 87 l 484 126 l 469 168 q 480 203 480 189 q 344 245 480 245 q 315 237 330 237 l 277 248 l 256 248 q 219 153 233 248 l 219 130 q 285 84 219 114 q 296 57 296 70 l 296 31 q 245 7 296 10 l 237 18 q 186 15 232 18 q 53 26 125 15 q 27 12 48 26 q 1 26 7 12 l 1 53 l -2 77 q 104 130 -2 108 q 138 210 138 144 q 178 371 163 260 q 189 378 183 378 q 186 383 189 383 q 219 501 186 404 l 215 528 q 245 616 215 541 q 300 835 245 639 q 307 838 300 838 l 303 846 q 340 869 319 869 m 318 670 l 318 662 q 322 648 318 654 q 307 605 307 612 l 311 578 q 259 413 292 498 l 259 368 q 300 336 259 342 q 355 321 300 330 q 440 340 440 331 q 444 349 440 349 q 421 459 421 395 q 407 501 417 459 l 410 555 q 388 627 395 578 q 366 708 376 627 q 344 712 363 708 q 318 670 323 712 z "},"":{"ha":724,"x_min":2,"x_max":721,"o":"m 356 1168 q 437 1142 420 1168 q 511 1065 465 1131 l 511 1057 q 488 1009 488 1029 q 496 980 496 996 q 474 972 484 972 l 463 972 q 429 924 457 942 q 382 906 393 906 q 352 910 361 910 q 334 895 352 905 l 260 928 q 223 1039 223 1006 l 223 1065 q 311 1153 251 1153 q 356 1168 323 1153 m 290 1031 q 359 976 306 976 l 367 976 l 415 1002 q 411 1039 415 1019 q 415 1076 415 1058 q 349 1105 376 1105 q 293 1065 293 1105 q 290 1031 290 1051 m 338 859 q 418 772 418 819 q 474 579 474 623 q 477 571 477 579 q 474 567 474 571 q 488 500 481 567 q 522 403 503 431 q 555 329 522 389 q 591 231 572 243 q 595 220 595 224 q 591 183 591 188 q 610 134 610 140 l 610 127 l 606 119 q 691 71 624 89 q 721 22 721 64 l 721 11 q 695 -4 715 -4 l 673 -4 q 629 7 663 -4 l 625 7 q 566 0 571 0 l 485 0 q 422 33 425 3 q 455 63 427 50 q 492 115 492 98 q 467 216 485 216 l 404 239 q 370 224 393 239 q 334 235 352 235 l 282 235 q 241 172 248 235 l 241 168 q 249 142 249 149 l 245 115 q 267 86 245 111 q 264 82 264 86 l 271 86 q 304 48 296 75 q 264 7 304 23 q 245 -7 263 2 l 197 -7 q 157 0 193 -7 l 142 0 q 123 -7 123 -1 l 79 -4 l 61 -4 l 39 -7 q 2 45 18 -7 q 109 104 33 104 q 157 254 157 174 q 182 336 168 254 q 212 422 182 366 q 231 530 212 486 q 290 728 231 543 q 326 837 302 837 l 323 844 q 338 859 323 850 m 308 522 l 308 508 q 311 504 308 504 q 279 407 311 496 q 286 381 279 381 q 279 340 279 366 q 363 298 279 311 q 389 288 372 288 q 452 340 422 288 q 429 467 444 358 q 393 605 412 467 q 352 639 376 639 q 308 522 308 605 z "},"":{"ha":1103,"x_min":1,"x_max":1055,"o":"m 826 868 q 867 857 860 857 q 892 868 889 868 q 1018 789 998 868 l 1047 640 l 1047 617 q 1018 572 1042 572 q 974 606 1001 572 q 951 621 962 606 q 974 692 951 634 l 974 703 q 867 779 974 742 q 856 774 860 774 q 852 779 856 779 q 845 771 852 771 l 823 771 q 789 797 802 771 l 767 800 l 753 800 q 723 782 729 782 q 653 785 711 782 q 602 733 602 772 l 602 730 l 609 680 q 602 621 609 679 q 609 591 609 597 q 605 542 605 559 q 668 505 638 505 l 682 505 q 686 508 686 505 l 694 505 l 712 505 q 764 549 764 517 q 797 625 764 625 q 819 640 797 640 q 852 591 833 640 l 841 456 q 852 325 852 406 q 830 295 842 300 q 826 298 830 298 l 826 295 q 830 291 830 295 q 804 280 817 280 l 797 280 q 771 310 797 286 q 730 422 771 395 l 686 426 l 682 426 q 616 385 616 426 l 616 329 q 624 306 616 319 q 620 250 620 269 q 631 160 627 231 l 627 153 q 646 137 631 137 q 675 160 650 137 l 682 160 q 756 145 716 149 q 819 119 785 119 q 856 126 842 126 l 863 123 q 915 178 907 123 q 933 209 924 178 q 929 223 933 217 q 951 317 933 317 q 981 336 961 336 l 1000 336 q 1055 250 1055 336 q 1021 44 1044 222 q 1007 29 1010 29 q 985 33 1004 29 q 951 14 976 33 l 944 14 q 918 29 920 14 q 915 25 915 29 l 897 29 q 856 14 871 14 q 793 29 846 14 q 745 10 766 10 q 682 14 733 10 q 661 6 671 6 q 576 25 633 25 q 484 -1 528 -1 q 473 10 484 2 q 450 3 460 3 l 443 3 q 370 18 435 10 l 347 44 l 347 51 q 406 119 347 96 l 439 123 q 506 115 476 115 q 524 149 524 125 l 520 157 l 524 163 q 520 205 520 190 l 520 228 l 513 228 q 473 235 477 235 l 421 235 l 414 239 l 414 235 l 406 239 q 362 228 380 228 q 332 239 344 239 l 314 239 q 244 123 269 239 q 299 89 260 99 q 314 71 314 73 q 266 14 314 14 l 252 14 q 233 25 252 25 q 203 18 203 24 l 196 22 q 60 33 60 25 q 12 18 26 18 l 1 25 q 23 96 1 87 q 75 115 56 115 q 78 111 78 115 q 167 175 167 132 q 218 280 167 186 q 262 374 245 372 l 262 385 q 314 486 269 408 l 314 494 q 311 497 314 497 q 351 580 317 532 q 429 745 373 639 q 447 793 447 786 l 384 771 q 351 831 351 787 q 417 861 351 856 l 473 861 l 494 857 q 517 865 510 865 q 597 853 583 860 l 826 868 m 450 644 q 454 632 454 635 q 425 557 425 604 q 340 400 371 448 l 329 340 q 384 314 337 334 q 395 317 391 317 q 414 310 407 310 l 414 314 l 421 310 l 425 310 l 443 314 l 443 310 q 465 317 455 317 l 498 317 q 502 314 502 317 q 528 332 526 323 l 528 343 q 520 381 528 351 q 532 426 526 426 q 520 494 524 439 q 532 528 532 519 l 532 534 q 524 568 532 544 l 528 602 l 513 654 q 520 680 515 680 q 494 703 520 703 q 450 644 463 703 z "},"":{"ha":819,"x_min":30,"x_max":737,"o":"m 281 1151 q 323 1129 311 1137 l 337 1100 q 363 1084 342 1100 q 382 1065 378 1065 q 431 1029 410 1029 q 453 989 442 989 q 466 947 455 960 q 458 930 466 933 l 423 930 q 391 952 400 930 q 359 971 359 959 q 316 1024 316 1012 q 241 1114 243 1057 q 276 1151 253 1151 l 281 1151 m 575 858 q 691 829 669 848 q 709 803 709 806 q 706 799 706 803 q 730 629 721 799 l 730 608 q 701 563 725 563 l 696 563 q 656 596 684 563 q 634 611 645 596 l 634 618 l 656 681 l 656 692 q 560 762 656 729 q 553 766 560 766 q 519 758 529 758 l 512 758 q 465 791 483 758 q 406 770 431 788 q 336 773 394 770 q 313 766 323 766 q 310 770 313 770 l 310 766 q 313 762 313 766 q 284 729 290 762 l 284 725 q 291 666 291 671 l 291 663 q 284 622 291 658 l 284 614 l 291 589 q 288 534 288 543 q 350 497 320 497 l 365 497 q 369 500 369 497 l 376 497 l 395 497 q 446 541 446 508 q 475 614 446 614 q 501 629 481 629 q 528 578 518 629 q 530 449 530 452 q 528 328 538 433 q 498 276 528 306 l 483 276 q 446 372 446 294 q 387 419 429 419 l 365 419 q 292 379 292 419 l 292 346 q 288 257 292 309 q 303 224 300 224 q 292 184 292 199 q 328 136 292 136 q 357 124 332 136 q 457 115 457 128 q 498 117 486 117 l 516 121 q 519 117 516 117 l 519 125 l 545 125 l 545 117 l 549 117 q 583 136 549 123 q 611 184 598 148 q 623 205 618 184 q 618 217 623 210 q 623 257 623 242 l 623 287 q 663 331 640 331 l 696 331 l 696 323 l 704 328 q 737 250 732 317 q 711 50 719 174 q 696 35 700 35 l 670 39 q 627 21 646 21 l 619 21 l 623 28 q 612 24 616 24 q 578 35 592 35 l 553 21 l 545 21 q 479 35 522 21 q 427 17 446 17 q 273 43 273 26 l 236 28 q 199 39 232 28 l 184 6 l 166 6 q 148 28 148 17 l 129 28 q 107 17 115 17 q 30 47 47 17 l 30 58 q 118 121 30 110 l 121 121 q 177 113 157 113 l 180 113 q 206 143 206 113 l 199 272 q 214 309 214 300 q 210 353 214 334 q 221 456 214 425 q 210 497 214 497 l 214 504 l 214 526 l 210 549 q 221 618 221 570 l 221 714 q 174 773 221 773 q 121 777 151 777 q 70 758 107 777 q 33 810 33 774 l 33 821 q 107 847 47 847 q 206 843 150 847 q 247 847 232 847 q 284 840 277 843 l 509 854 q 549 843 543 843 q 575 858 575 854 z "},"":{"ha":819,"x_min":30,"x_max":737,"o":"m 526 1166 l 531 1166 q 568 1127 555 1166 q 543 1073 558 1127 q 514 1053 530 1058 q 511 1056 514 1056 q 469 1033 511 1050 q 423 977 469 1019 q 389 957 423 964 q 355 934 380 934 l 318 934 q 310 951 310 937 q 324 996 321 965 q 347 1039 336 996 q 398 1109 370 1039 q 418 1129 403 1109 q 446 1147 441 1147 l 460 1143 q 526 1166 474 1152 m 575 858 q 671 829 649 848 q 689 803 689 806 q 686 799 686 803 q 730 629 701 799 l 730 608 q 701 563 725 563 l 696 563 q 656 596 684 563 q 634 611 645 596 l 634 618 l 656 681 l 656 692 q 560 762 656 729 q 553 766 560 766 q 519 758 529 758 l 512 758 q 465 791 483 758 q 406 770 431 788 q 336 773 394 770 q 313 766 323 766 q 310 770 313 770 l 310 766 q 313 762 313 766 q 284 729 290 762 l 284 725 q 291 666 291 671 l 291 663 q 284 622 291 658 l 284 614 l 291 589 q 288 534 288 543 q 350 497 320 497 l 365 497 q 369 500 369 497 l 376 497 l 395 497 q 446 541 446 508 q 475 614 446 614 q 501 629 481 629 q 534 578 518 629 q 524 449 524 452 q 534 328 531 433 q 498 276 534 306 l 483 276 q 446 372 446 294 q 387 419 429 419 l 365 419 q 298 379 298 419 l 298 346 q 295 257 298 309 q 310 224 307 224 q 298 184 298 199 q 328 136 298 136 q 357 158 332 136 q 457 128 457 142 q 498 117 486 117 l 516 121 q 519 117 516 117 l 519 125 l 545 125 l 545 117 l 549 117 q 583 136 549 123 q 604 184 591 148 q 616 205 612 184 q 612 217 616 210 q 616 257 616 242 l 616 287 q 663 331 640 331 l 696 331 l 696 323 l 704 328 q 737 250 732 317 q 704 43 719 174 q 689 28 693 28 l 663 33 q 627 14 639 14 l 619 14 l 623 22 q 612 18 616 18 q 578 28 592 28 l 553 14 l 545 14 q 479 28 522 14 q 427 10 446 10 q 273 36 273 20 l 236 22 q 199 33 232 22 l 184 -1 l 166 -1 q 148 22 148 10 l 129 22 q 107 10 115 10 q 30 40 47 10 l 30 51 q 118 121 30 110 l 121 121 q 177 113 157 113 l 180 113 q 206 143 206 113 l 199 272 q 214 309 214 300 q 210 353 214 334 q 221 456 214 425 q 210 497 214 497 l 214 504 l 214 526 l 210 549 q 221 618 221 570 l 221 714 q 174 773 221 773 q 121 777 151 777 q 70 758 107 777 q 33 810 33 774 l 33 821 q 107 847 47 847 q 206 843 150 847 q 247 847 232 847 q 284 840 277 843 l 509 854 q 549 843 543 843 q 575 858 575 854 z "},"":{"ha":819,"x_min":30,"x_max":737,"o":"m 384 1162 q 407 1133 407 1162 q 433 1072 415 1133 q 475 1023 475 1049 q 478 1020 478 1023 l 478 1000 q 517 932 478 977 l 523 922 q 500 884 523 901 q 498 887 498 884 l 491 884 l 484 884 q 436 897 436 891 q 423 932 436 907 q 426 942 426 939 q 404 1000 404 977 q 380 1059 390 1052 q 374 1061 374 1059 q 358 1052 358 1057 l 358 1020 q 322 958 322 996 q 319 932 322 950 l 322 926 l 313 909 l 313 890 q 296 880 296 889 q 251 903 251 880 q 238 922 247 903 q 274 994 251 976 q 306 1084 274 1029 q 364 1162 306 1144 l 384 1162 m 578 845 q 675 808 675 829 q 722 642 698 808 q 730 616 730 642 l 730 594 q 696 550 730 550 q 645 591 689 550 q 634 598 634 591 l 634 606 l 656 668 l 656 679 q 560 749 656 716 q 553 753 560 753 q 520 745 529 745 l 505 745 q 472 771 484 745 l 450 775 l 435 775 q 406 756 412 756 q 339 760 391 756 l 321 756 q 317 760 321 760 l 317 756 q 321 753 321 756 q 284 716 284 743 l 284 705 q 292 665 292 669 l 284 598 q 292 568 292 574 q 288 521 288 537 q 351 484 318 484 l 357 484 q 372 488 366 484 q 387 484 379 484 l 395 484 q 446 532 446 495 q 501 616 446 606 q 534 565 518 616 l 524 436 q 534 314 531 420 q 487 262 518 262 l 483 262 q 446 359 446 281 q 395 403 431 403 q 369 406 395 406 l 365 406 q 299 359 299 406 l 299 333 q 295 244 299 296 l 310 211 q 299 170 299 186 q 332 123 299 123 q 354 144 354 136 l 365 144 q 439 130 399 134 q 501 104 468 104 q 534 111 526 111 l 546 111 q 549 108 549 111 q 601 167 587 108 q 616 189 607 167 q 612 203 616 197 q 642 311 612 292 q 656 318 647 311 l 671 318 q 730 285 721 318 q 737 233 737 250 q 704 31 720 166 q 689 16 693 16 l 663 20 q 627 1 639 1 q 578 16 585 16 l 553 1 l 546 1 q 479 16 522 1 q 428 -3 446 -3 q 351 8 351 -3 q 347 5 347 8 q 273 23 292 5 l 266 23 l 243 8 l 236 8 q 207 20 225 8 q 181 -14 201 20 l 166 -14 q 148 8 148 -3 l 130 8 q 107 -3 115 -3 q 30 27 47 -3 l 30 38 q 81 100 30 80 q 115 108 87 104 q 181 100 159 100 q 207 130 202 100 l 199 259 q 214 296 214 288 q 210 336 214 316 q 221 444 215 418 q 210 484 214 484 l 214 502 l 214 513 l 210 535 q 221 606 221 557 l 221 701 q 174 760 221 760 q 125 764 149 764 q 71 745 107 764 q 33 797 47 745 l 33 808 q 100 833 49 833 l 104 833 q 207 830 158 833 q 251 833 233 833 q 280 827 258 833 q 313 830 300 830 l 343 830 l 351 827 q 357 833 351 833 l 391 833 q 465 838 415 833 q 468 833 465 833 q 475 841 469 841 l 490 841 q 549 830 509 841 q 578 845 569 837 z "},"":{"ha":819,"x_min":30,"x_max":737,"o":"m 220 1055 q 290 991 290 1042 q 242 916 290 953 q 227 911 235 911 l 194 911 l 172 908 q 146 979 146 908 q 172 1021 146 1004 q 176 1018 172 1018 l 172 1025 q 220 1055 172 1050 m 577 1055 l 581 1055 q 651 995 651 1031 q 581 900 651 920 q 570 904 574 904 l 551 900 q 503 949 503 913 q 500 961 500 949 l 500 965 q 577 1055 514 1055 m 578 860 q 675 822 675 844 q 722 652 698 822 q 730 626 730 652 l 730 603 q 696 557 730 557 q 645 600 689 557 q 634 607 634 600 l 634 614 l 656 679 l 656 690 q 560 762 644 793 q 553 766 560 766 q 520 758 529 758 l 505 758 q 472 784 484 758 l 450 789 l 435 789 q 406 769 412 769 q 339 773 391 769 l 321 769 q 317 773 321 773 l 317 769 q 321 766 321 769 q 284 728 284 755 l 284 716 q 292 675 292 680 l 284 607 q 292 576 292 583 q 288 528 288 545 q 351 490 318 490 l 357 490 q 372 494 366 490 q 387 490 379 490 l 395 490 q 467 538 467 501 q 501 626 467 615 q 534 573 518 626 l 524 441 q 534 315 531 424 q 507 262 518 262 l 503 262 q 467 361 467 282 q 395 407 452 407 q 369 410 395 410 l 365 410 q 299 361 299 410 l 299 335 q 295 244 299 298 l 310 210 q 299 168 299 184 q 332 119 299 119 q 354 121 354 113 l 365 121 q 439 127 399 110 q 501 100 468 100 q 534 108 526 108 l 546 108 q 549 104 549 108 q 628 165 614 104 q 643 188 634 165 q 639 202 643 196 q 669 312 639 292 q 656 319 647 312 l 671 319 q 730 286 721 319 q 737 233 737 250 q 704 25 720 164 q 689 9 693 9 l 663 14 q 627 -5 639 -5 q 578 9 585 9 l 553 -5 l 546 -5 q 479 9 522 -5 q 428 -9 446 -9 q 351 2 351 -9 q 347 -1 347 2 q 273 3 292 -16 l 266 3 l 243 -12 l 236 -12 q 207 14 225 2 q 181 -20 201 14 l 166 -20 q 148 2 148 -10 l 130 2 q 107 -9 115 -9 q 30 22 47 -9 l 30 33 q 81 96 30 76 q 115 104 87 100 q 181 96 159 96 q 207 127 202 96 l 199 259 q 214 297 214 288 q 210 338 214 317 q 221 448 215 422 q 210 490 214 490 l 214 508 l 214 520 l 210 543 q 221 614 221 565 l 221 713 q 174 773 221 773 q 125 777 149 777 q 71 758 107 777 q 33 810 47 758 l 33 822 q 100 848 49 848 l 104 848 q 207 845 158 848 q 251 848 233 848 q 280 841 258 848 q 313 845 300 845 l 343 845 l 351 841 q 357 848 351 848 l 391 848 q 465 852 415 848 q 468 848 465 848 q 475 856 469 856 l 490 856 q 549 845 509 856 q 578 860 569 852 z "},"":{"ha":684,"x_min":52,"x_max":648,"o":"m 263 1163 q 279 1146 279 1151 q 311 1131 311 1139 l 311 1121 l 309 1114 l 344 1095 q 373 1040 344 1057 q 395 992 373 1007 q 421 927 401 984 q 401 905 408 905 l 382 905 q 347 941 358 941 q 273 1002 292 995 q 214 1076 214 1052 q 241 1163 222 1163 l 263 1163 m 184 874 q 317 867 239 867 l 332 867 q 372 870 347 867 q 446 856 394 865 q 505 859 499 859 q 538 852 532 852 l 564 863 q 637 823 637 849 q 648 774 646 823 q 618 767 635 767 q 578 771 611 767 l 523 756 q 471 760 492 760 l 442 760 q 387 738 387 760 l 387 730 q 394 693 394 696 q 391 649 391 655 q 394 620 394 623 q 387 579 387 593 q 394 535 394 547 q 387 498 387 512 q 394 343 387 432 l 391 336 l 391 310 q 393 297 391 305 q 391 277 396 288 l 391 270 q 397 240 391 267 l 397 237 q 391 196 397 232 q 397 148 397 163 l 397 122 l 401 115 q 394 108 394 114 l 397 108 l 397 111 q 420 104 410 104 q 482 126 439 116 q 612 82 549 115 q 641 52 641 77 l 641 37 q 623 4 641 24 q 626 1 626 4 q 615 -7 617 -7 l 608 -3 l 608 -7 q 612 -10 612 -7 l 608 -10 q 556 -3 595 -10 q 519 -14 537 -14 q 482 -3 517 -14 q 460 -14 460 -10 l 453 -10 l 394 -10 q 379 -14 386 -10 q 258 4 352 -4 q 221 -10 226 -10 q 184 4 199 4 q 125 -18 159 4 q 52 30 52 -18 l 52 41 q 77 89 52 63 q 99 115 77 115 l 140 104 q 243 122 189 115 l 280 115 q 291 126 280 120 q 287 166 287 159 q 302 222 294 212 l 294 222 l 294 233 l 291 255 q 302 340 298 271 q 309 355 309 340 q 283 414 287 395 q 298 454 298 445 l 298 458 l 291 484 q 317 708 298 576 l 317 720 q 280 749 317 742 q 184 782 243 782 q 136 760 148 760 l 132 760 q 85 767 99 767 q 81 764 81 767 l 66 771 l 81 852 q 184 874 100 874 z "},"":{"ha":685,"x_min":52,"x_max":648,"o":"m 465 1152 l 487 1152 q 513 1070 505 1152 q 455 1001 513 1048 q 380 944 435 995 q 345 911 370 944 l 326 911 q 307 932 320 911 q 332 992 326 985 q 355 1037 355 1006 q 384 1088 384 1053 l 419 1106 l 416 1112 l 416 1121 q 448 1136 416 1129 q 465 1152 448 1140 m 516 874 q 619 852 600 874 l 634 771 l 619 764 q 615 767 619 767 q 568 760 601 767 l 564 760 q 516 768 552 760 q 420 749 456 782 q 397 726 397 749 l 397 715 q 409 484 401 576 l 401 458 l 401 454 q 403 414 401 445 q 391 355 399 395 q 398 340 391 340 q 409 255 402 271 l 406 233 l 406 222 l 398 222 q 413 166 406 212 q 409 126 413 159 q 420 115 420 120 l 457 122 q 560 131 511 115 l 601 128 q 623 102 623 128 q 648 55 648 77 l 648 43 q 575 -4 648 -4 q 516 4 541 4 q 479 -10 500 4 q 442 4 474 -10 q 321 -14 348 -4 q 306 -10 314 -10 l 247 -10 l 239 -14 q 218 -3 239 -10 q 180 -14 182 -14 q 144 -3 163 -14 q 92 -10 104 -10 l 88 -10 q 92 -7 88 -7 l 92 -3 l 85 -7 q 74 1 83 -7 q 77 4 74 4 q 59 37 59 24 l 59 52 q 88 82 59 77 q 218 99 151 115 q 280 104 260 116 q 302 111 290 104 l 302 108 l 306 108 q 298 115 306 114 l 302 122 l 302 148 q 309 196 302 163 q 302 237 302 232 l 302 240 q 309 270 309 267 l 309 277 q 298 288 304 288 q 273 240 286 288 l 262 240 q 258 251 262 244 q 265 281 265 264 l 265 299 q 277 307 277 299 q 298 299 283 307 q 309 310 309 305 l 309 336 l 306 343 q 269 414 278 343 q 277 432 269 420 q 313 498 313 432 q 306 535 313 512 q 313 579 306 547 q 306 620 313 593 q 309 649 306 623 q 306 693 309 655 q 313 730 306 696 l 313 738 q 258 760 313 760 l 229 760 q 177 756 208 760 l 121 771 q 81 767 89 767 q 52 774 65 767 q 62 836 54 836 q 136 876 62 863 l 162 865 q 195 873 168 865 q 254 856 201 873 q 328 870 306 865 q 368 867 353 867 l 383 867 q 516 874 461 867 m 280 509 q 291 469 288 509 q 280 458 283 458 l 277 458 l 265 465 q 277 509 277 492 l 280 509 m 265 193 l 265 185 q 247 159 265 164 q 239 170 243 159 q 258 203 246 203 l 265 193 z "},"":{"ha":662,"x_min":30,"x_max":627,"o":"m 320 1156 q 376 1086 376 1140 q 408 1005 408 1037 q 441 941 429 989 q 429 924 433 924 q 386 903 429 903 q 370 911 386 911 l 370 929 l 361 944 l 364 949 q 361 973 361 966 q 327 1028 361 1006 l 327 1057 q 311 1065 327 1062 q 305 1063 311 1063 q 283 1010 296 1057 q 262 958 282 989 q 264 949 262 956 q 252 918 252 927 q 205 907 252 913 l 199 907 l 193 909 q 190 907 193 907 q 168 941 168 922 l 174 949 q 212 1010 212 990 l 212 1028 q 214 1031 212 1031 q 255 1075 214 1055 q 280 1131 272 1131 q 302 1156 280 1156 l 320 1156 m 494 874 q 597 852 578 874 l 612 771 l 597 764 q 593 767 597 767 q 546 760 579 767 l 542 760 q 494 782 530 760 q 398 749 435 782 q 361 720 361 742 l 361 708 q 387 484 380 576 l 380 458 l 380 454 q 395 414 380 445 q 369 355 391 395 q 376 340 369 340 q 387 255 380 271 l 384 233 l 384 222 l 376 222 q 391 166 385 212 q 387 126 391 159 q 398 115 398 120 l 435 122 q 538 104 489 115 l 579 115 q 601 89 601 115 q 627 41 627 63 l 627 30 q 553 -18 627 -18 q 494 4 519 4 q 457 -10 479 4 q 420 4 452 -10 q 299 -14 326 -4 q 284 -10 292 -10 l 225 -10 l 218 -14 q 196 -3 218 -10 q 159 -14 161 -14 q 122 -3 141 -14 q 71 -10 83 -10 l 66 -10 q 71 -7 66 -7 l 71 -3 l 63 -7 q 52 1 61 -7 q 56 4 52 4 q 37 37 37 24 l 37 52 q 66 82 37 77 q 196 126 129 115 q 258 104 239 116 q 281 111 269 104 l 281 108 l 284 108 q 277 115 284 114 l 281 122 l 281 148 q 288 196 281 163 q 281 237 281 232 l 281 240 q 288 270 288 267 l 288 277 q 277 288 282 288 q 251 240 264 288 l 240 240 q 236 251 240 244 q 243 281 243 264 l 243 299 q 255 307 255 299 q 277 299 262 307 q 288 310 288 305 l 288 336 l 284 343 q 248 414 256 343 q 255 432 248 420 q 292 498 292 432 q 284 535 292 512 q 292 579 284 547 q 284 620 292 593 q 288 649 284 623 q 284 693 288 655 q 292 730 284 696 l 292 738 q 236 760 292 760 l 207 760 q 155 756 186 760 l 100 771 q 60 767 67 767 q 30 774 43 767 q 41 823 33 823 q 115 863 41 849 l 140 852 q 174 859 146 852 q 233 856 179 859 q 307 870 284 865 q 347 867 332 867 l 361 867 q 494 874 439 867 z "},"":{"ha":684,"x_min":52,"x_max":648,"o":"m 134 1080 q 200 1025 200 1053 q 174 957 189 957 q 144 935 170 945 q 82 996 118 935 q 79 1008 82 1000 q 134 1080 100 1080 m 506 1080 q 557 1018 537 1069 q 509 945 557 984 q 458 982 460 967 l 462 989 q 447 1021 447 989 l 447 1025 q 506 1080 482 1080 m 115 960 l 115 957 l 126 949 l 126 953 l 115 960 m 516 881 q 619 859 600 881 l 634 780 l 619 772 q 615 776 619 776 q 568 768 601 776 l 564 768 q 516 790 552 768 q 420 758 456 790 q 383 729 383 751 l 383 718 q 409 496 401 588 l 401 471 l 401 467 q 416 428 401 458 q 391 370 413 409 q 398 355 391 355 q 409 271 402 288 l 406 250 l 406 239 l 398 239 q 413 184 406 229 q 409 144 413 176 q 420 133 420 138 l 457 140 q 560 122 511 133 l 601 133 q 623 108 623 133 q 648 61 648 82 l 648 50 q 575 3 648 3 q 516 24 541 24 q 479 10 500 24 q 442 24 474 10 q 321 6 348 16 q 306 10 314 10 l 247 10 l 239 6 q 218 18 239 10 q 180 6 182 6 q 144 18 163 6 q 92 10 104 10 l 88 10 q 92 14 88 14 l 92 18 l 85 14 q 74 21 83 14 q 77 24 74 24 q 59 57 59 43 l 59 71 q 88 101 59 96 q 218 144 151 133 q 280 122 260 134 q 302 130 290 122 l 302 126 l 306 126 q 298 133 306 132 l 302 140 l 302 165 q 309 213 302 180 q 302 253 302 249 l 302 256 q 309 286 309 283 l 309 293 q 298 304 304 304 q 273 256 286 304 l 262 256 q 258 267 262 260 q 265 296 265 281 l 265 315 q 277 322 277 315 q 298 315 283 322 q 309 326 309 321 l 309 351 l 306 358 q 269 428 278 358 q 277 446 269 433 q 313 511 313 446 q 306 547 313 524 q 313 591 306 559 q 306 631 313 605 q 309 659 306 634 q 306 703 309 665 q 313 740 306 706 l 313 747 q 258 768 313 768 l 229 768 q 177 765 208 768 l 121 780 q 81 776 89 776 q 52 783 65 776 q 62 831 54 831 q 136 870 62 857 l 162 859 q 195 867 168 859 q 254 863 201 867 q 328 878 306 872 q 368 874 353 874 l 383 874 q 516 881 461 874 z "},"":{"ha":789,"x_min":48,"x_max":813,"o":"m 269 1131 q 301 1122 301 1124 l 308 1125 l 315 1125 q 424 1059 358 1125 q 477 1015 433 1037 l 490 1006 q 556 1025 544 1006 q 593 1068 585 1050 l 593 1085 q 626 1101 593 1115 q 649 1068 649 1101 l 649 1065 q 613 968 649 1029 q 583 939 583 968 l 576 936 l 563 936 l 543 939 q 510 929 517 929 l 497 929 l 454 956 l 437 952 l 434 952 q 414 995 428 995 l 408 992 l 397 992 l 348 1022 l 328 1022 q 281 1052 328 1042 q 271 1061 281 1054 q 195 988 212 1033 q 159 969 182 983 l 149 969 q 139 1022 130 969 l 139 1038 q 175 1088 163 1061 l 212 1118 q 269 1131 254 1131 m 165 861 q 271 851 271 873 q 327 770 301 845 q 345 749 340 764 q 338 726 338 736 q 353 689 338 717 q 349 685 349 689 q 415 550 364 685 q 441 509 415 543 q 478 403 441 490 l 481 385 q 478 380 478 385 l 481 380 q 485 385 481 385 q 511 324 511 353 q 551 222 551 241 l 570 222 l 577 218 q 591 320 595 253 q 576 358 580 357 q 581 369 581 365 q 570 463 581 418 q 576 534 576 526 q 570 564 576 546 l 573 591 q 576 651 576 646 q 587 689 576 656 q 539 774 576 774 l 524 774 l 489 770 q 437 812 437 777 l 437 820 q 533 861 437 861 l 563 861 q 795 854 754 857 q 813 818 813 823 l 813 806 q 784 764 813 796 l 747 774 l 732 774 q 728 770 728 774 q 699 779 706 779 q 677 749 686 779 q 644 730 644 736 l 644 718 q 666 682 644 696 l 666 677 q 647 572 650 677 q 654 546 654 557 q 647 512 647 522 q 647 425 647 489 l 643 403 q 665 279 652 323 l 665 271 q 650 237 650 252 q 673 31 661 237 q 621 -7 673 4 l 614 -7 q 536 72 536 24 q 496 151 536 77 q 463 219 496 177 q 433 286 452 257 l 437 306 q 419 358 437 324 q 422 361 422 358 q 378 437 404 363 q 349 505 378 494 q 271 661 302 661 q 264 669 271 669 l 268 695 q 257 724 268 721 l 250 724 l 245 699 l 245 695 q 257 672 248 672 q 242 572 257 653 l 242 553 l 245 531 q 242 512 242 525 q 257 471 242 501 q 250 414 250 435 q 253 388 250 403 q 250 332 250 355 l 250 309 q 264 196 260 264 q 260 147 260 178 l 260 140 l 257 132 q 312 91 277 103 l 349 94 q 393 23 393 53 q 356 4 393 13 q 304 -11 356 -7 l 201 4 q 139 -7 155 0 q 58 23 64 16 q 50 42 50 35 q 68 87 50 50 l 73 87 q 109 83 90 87 q 179 132 167 83 l 179 144 q 176 219 179 163 q 183 260 183 258 q 176 306 176 290 q 179 347 179 339 q 168 385 172 359 q 179 543 179 468 l 176 576 q 183 640 180 633 l 179 663 l 179 677 q 186 744 186 739 q 179 774 186 751 q 183 779 183 774 l 179 779 q 176 774 179 774 q 150 790 170 790 q 96 789 126 783 q 48 827 54 789 l 48 834 q 165 861 48 861 z "},"":{"ha":753,"x_min":64,"x_max":687,"o":"m 243 1122 q 295 1110 284 1115 l 307 1114 q 329 1103 310 1115 q 345 1089 341 1088 q 385 1038 368 1036 q 404 1007 395 1006 q 414 972 406 982 q 408 958 414 961 l 379 954 q 352 969 359 951 q 325 981 325 971 q 289 1021 289 1010 q 254 1035 254 1031 q 252 1032 252 1035 q 230 1045 240 1035 q 210 1086 217 1086 q 239 1121 220 1118 l 243 1122 m 352 885 l 367 881 q 400 885 387 885 q 562 823 450 885 q 654 660 654 689 q 687 476 687 566 q 680 369 680 440 l 680 351 q 669 321 680 340 q 673 292 673 301 q 621 196 669 245 q 591 119 621 186 l 591 115 l 584 119 l 588 111 q 558 67 576 101 l 473 34 q 414 -7 451 -7 q 381 1 406 -7 l 311 -7 q 231 52 267 12 q 201 75 201 71 q 205 78 205 75 l 197 75 q 149 119 167 89 q 105 185 125 134 q 64 343 64 254 q 72 376 68 369 q 64 410 68 385 q 75 491 71 422 l 72 513 l 98 664 q 172 774 138 739 q 212 826 172 813 q 352 885 298 885 m 142 561 l 134 564 q 138 561 134 561 q 131 484 131 524 l 134 476 q 127 417 127 455 q 146 307 138 393 q 172 225 172 290 q 241 122 197 172 q 238 119 238 122 l 245 122 q 334 78 312 78 q 385 93 378 93 l 404 89 q 414 93 411 93 q 418 89 414 89 q 466 115 418 100 q 566 244 566 191 q 584 302 573 244 q 614 420 597 312 q 602 454 614 427 l 606 472 l 599 568 q 602 579 602 575 q 536 726 586 633 q 518 745 536 741 l 522 752 l 514 749 q 437 797 477 797 q 408 808 428 797 q 374 800 383 800 l 370 800 q 319 808 347 800 q 282 774 313 808 q 223 738 243 764 q 182 686 207 732 q 153 605 166 605 q 142 561 142 597 z "}}}
